<?xml version="1.0" encoding="utf-8"?>
<!-- Generator: Adobe Illustrator 27.9.0, SVG Export Plug-In . SVG Version: 6.00 Build 0)  -->
<svg version="1.1" id="Layer_1" xmlns="http://www.w3.org/2000/svg" xmlns:xlink="http://www.w3.org/1999/xlink" x="0px" y="0px"
	 viewBox="0 0 800 800" style="enable-background:new 0 0 800 800;" xml:space="preserve">
<style type="text/css">
	.st0{fill:#9A2D2F;}
	.st1{fill:#FFEB4D;}
	.st2{fill:#C2F2FF;}
	.st3{fill:#FFACC2;}
	.st4{fill:#DAE5FF;}
	.st5{fill:#FFFFFF;}
	.st6{fill:#FFC0F0;}
</style>
<path class="st0" d="M189.1,219c-10.1,0-15-7.9-18.6-13.6c-3.4-5.4-5.1-7.7-8-7.7s-4.6,2.3-8,7.7c-3.6,5.7-8.5,13.6-18.6,13.6
	s-15-7.9-18.6-13.6c-3.4-5.4-5.1-7.7-8-7.7s-4.6,2.3-8,7.7c-3.6,5.7-8.5,13.6-18.6,13.6s-15-7.9-18.6-13.6c-3.4-5.4-5.1-7.7-8-7.7
	c-3.4,0-6.2-2.8-6.2-6.2s2.8-6.2,6.2-6.2c10.1,0,15,7.9,18.6,13.6c3.4,5.4,5.1,7.7,8,7.7s4.6-2.3,8-7.7c3.5-5.8,8.4-13.6,18.6-13.6
	s15,7.9,18.6,13.6c3.4,5.4,5.1,7.7,8,7.7s4.6-2.3,8-7.7c3.6-5.8,8.4-13.6,18.6-13.6s15,7.9,18.6,13.6c3.4,5.4,5.1,7.7,8,7.7
	c3.4,0,6.2,2.8,6.2,6.2C195.3,216.2,192.5,219,189.1,219z M206.2,179.9c-10.8,0-16.2-7.7-20.1-13.3c-4-5.7-6-8-9.9-8s-5.9,2.3-9.9,8
	c-4,5.6-9.4,13.3-20.1,13.3c-10.8,0-16.2-7.7-20.1-13.3c-4-5.7-6-8-9.9-8s-5.9,2.3-9.9,8c-4,5.6-9.4,13.3-20.1,13.3
	s-16.2-7.7-20.1-13.3c-4-5.7-6-8-9.9-8c-3.4,0-6.2-2.8-6.2-6.2c0-3.4,2.8-6.2,6.2-6.2c10.8,0,16.2,7.7,20.1,13.3c4,5.7,6,8,9.9,8
	s5.9-2.3,9.9-8c4-5.6,9.4-13.3,20.1-13.3s16.2,7.7,20.1,13.3c4,5.7,6,8,9.9,8s5.9-2.3,9.9-8c4-5.6,9.4-13.3,20.1-13.3
	s16.2,7.7,20.1,13.3c4,5.7,6,8,9.9,8c3.4,0,6.2,2.8,6.2,6.2S209.6,179.9,206.2,179.9z"/>
<path class="st1" d="M250,81.8c0,13.8,11.2,25,25,25s25-11.2,25-25s-11.2-25-25-25S250,68,250,81.8z"/>
<path class="st0" d="M275,113c-17.3,0-31.2-14-31.2-31.2s14-31.3,31.2-31.3s31.2,14,31.2,31.3S292.3,113,275,113z M275,63
	c-10.3,0-18.8,8.4-18.8,18.8s8.4,18.8,18.8,18.8s18.8-8.4,18.8-18.8S285.3,63,275,63z"/>
<path class="st2" d="M288.2,183.4h250v159.4h-250L288.2,183.4z"/>
<path class="st3" d="M427.7,224.4L320.5,342.7h192.3L427.7,224.4z"/>
<path class="st4" d="M487.4,378.7H288.2L405.7,249L487.4,378.7z"/>
<path class="st5" d="M461,271.2l-31.4-7.7l-40.6,4.1l38.7-42.7L461,271.2z"/>
<path class="st5" d="M373.3,284.8l17.8,13l14.5-10.9l32.3,13.2l-32.2-51L373.3,284.8z"/>
<path class="st0" d="M343.7,243.5c-10.3,0-18.8-8.4-18.8-18.8c0-10.3,8.4-18.8,18.8-18.8s18.8,8.4,18.8,18.8
	C362.4,235.1,354.1,243.5,343.7,243.5z M343.7,218.5c-3.4,0-6.2,2.8-6.2,6.2c0,3.4,2.8,6.2,6.2,6.2s6.2-2.8,6.2-6.2
	C349.9,221.3,347.1,218.5,343.7,218.5z"/>
<path class="st1" d="M331.2,224.8c0,6.9,5.6,12.5,12.5,12.5c6.9,0,12.5-5.6,12.5-12.5c0-6.9-5.6-12.5-12.5-12.5
	C336.8,212.3,331.2,217.9,331.2,224.8z"/>
<path class="st4" d="M625.7,742.7h-450c-13.8,0-25-11.2-25-25v-350c0-13.8,11.2-25,25-25h450c13.8,0,25,11.2,25,25v350
	C650.7,731.5,639.5,742.7,625.7,742.7z"/>
<path class="st1" d="M625.7,742.7h-450c-13.8,0-25-11.2-25-25v-75h500v75C650.7,731.5,639.5,742.7,625.7,742.7z"/>
<path class="st4" d="M249.9,543.5c0,83.3,67.5,150.8,150.8,150.8s150.8-67.5,150.8-150.8l0,0c0-83.3-67.5-150.8-150.8-150.8
	S249.9,460.2,249.9,543.5L249.9,543.5z"/>
<path class="st5" d="M288.2,543.5c0,62.1,50.4,112.5,112.5,112.5s112.5-50.4,112.5-112.5S462.8,431,400.7,431
	S288.2,481.4,288.2,543.5z"/>
<path class="st5" d="M243.7,421.6h-45.3c-6.9,0-12.5-5.6-12.5-12.5c0-6.9,5.6-12.5,12.5-12.5h45.3c6.9,0,12.5,5.6,12.5,12.5
	C256.2,416,250.5,421.6,243.7,421.6z"/>
<path class="st6" d="M365.9,543.4c0,20.7,16.8,37.5,37.5,37.5c20.7,0,37.5-16.8,37.5-37.5s-16.8-37.5-37.5-37.5
	C382.6,505.9,365.9,522.6,365.9,543.4z"/>
<path class="st0" d="M400.7,662.3c65.5,0,118.7-53.3,118.7-118.8s-53.3-118.8-118.7-118.8S282,478,282,543.5
	S335.2,662.3,400.7,662.3z M400.7,437.3c58.6,0,106.2,47.7,106.2,106.2s-47.7,106.2-106.2,106.2s-106.2-47.7-106.2-106.2
	S342.1,437.3,400.7,437.3z M243.7,390.4h-45.3c-10.3,0-18.8,8.4-18.8,18.8c0,10.3,8.4,18.8,18.8,18.8h45.3
	c10.3,0,18.8-8.4,18.8-18.8C262.4,398.8,254.1,390.4,243.7,390.4z M243.7,415.4h-45.3c-3.4,0-6.2-2.8-6.2-6.2c0-3.4,2.8-6.2,6.2-6.2
	h45.3c3.4,0,6.2,2.8,6.2,6.2C249.9,412.6,247.1,415.4,243.7,415.4z"/>
<path class="st0" d="M403.4,587.1c24.1,0,43.8-19.6,43.8-43.8s-19.6-43.8-43.8-43.8c-24.1,0-43.8,19.6-43.8,43.8
	S379.2,587.1,403.4,587.1z M403.4,512.1c17.3,0,31.2,14,31.2,31.2s-14,31.2-31.2,31.2c-17.3,0-31.2-14-31.2-31.2
	S386.1,512.1,403.4,512.1z"/>
<path class="st0" d="M743,536.2c-3.9,0-5.9-2.3-9.9-8c-4-5.6-9.4-13.3-20.1-13.3s-16.2,7.7-20.1,13.3c-4,5.7-6,8-9.9,8
	s-5.9-2.3-9.9-8c-3.4-4.8-8-11.3-16.1-12.9v-25.8c1.8,1.2,3.5,3.4,5.9,6.8c4,5.6,9.4,13.3,20.1,13.3s16.2-7.7,20.1-13.3
	c4-5.7,6-8,9.9-8s5.9,2.3,9.9,8c4,5.6,9.4,13.3,20.1,13.3c3.4,0,6.2-2.8,6.2-6.2c0-3.4-2.8-6.2-6.2-6.2c-3.9,0-5.9-2.3-9.9-8
	c-4-5.6-9.4-13.3-20.1-13.3s-16.2,7.7-20.1,13.3c-4,5.7-6,8-9.9,8s-5.9-2.3-9.9-8c-3.4-4.8-8-11.3-16.1-12.9V367.7
	c0-17.3-14-31.2-31.2-31.2h-81.2V183.4c0-3.4-2.8-6.2-6.2-6.2h-250c-3.4,0-6.2,2.8-6.2,6.2v153.1H175.6c-17.3,0-31.2,14-31.2,31.2
	v350c0,7,2.3,13.5,6.2,18.8H79.1c-3.4,0-6.2,2.8-6.2,6.2s2.8,6.2,6.2,6.2h643.8c3.4,0,6.2-2.8,6.2-6.2s-2.8-6.2-6.2-6.2h-72.2
	c3.9-5.2,6.2-11.7,6.2-18.8V528.5c1.8,1.2,3.5,3.4,5.9,6.8c4,5.6,9.4,13.3,20.1,13.3s16.2-7.7,20.1-13.3c4-5.7,6-8,9.9-8
	s5.9,2.3,9.9,8c4,5.6,9.4,13.3,20.1,13.3c3.4,0,6.2-2.8,6.2-6.2S746.4,536.2,743,536.2L743,536.2z M294.5,189.6H532v146.9h-16.1
	l-83.1-115.8c-1.1-1.6-2.8-2.5-4.7-2.6c-1.9-0.1-3.8,0.6-5,2L317.7,336.5h-23.2V189.6L294.5,189.6z M421.3,285.5l0.9,1.4l-14.2-5.8
	c-2-0.9-4.4-0.5-6.1,0.8l-10.8,8.1l-8.4-6.2l9.4-10.4l12.8-14.1l7.7,12.1L421.3,285.5L421.3,285.5z M413.5,249.7l13.6-15l18.9,26.2
	l-14.9-3.7c-0.5-0.2-1-0.2-1.5-0.2H429l-10.1,1L413.5,249.7L413.5,249.7z M387.4,302.8c2.2,1.6,5.2,1.6,7.4-0.1l11.6-8.8l27.1,11.1
	l19.8,31.4H334.8l39.2-43.4L387.4,302.8L387.4,302.8z M443.3,296.9c0-0.1-0.1-0.2-0.1-0.2l-11.5-18.1l-5.4-8.6l2.8-0.3l28.4,7
	l42.9,59.7h-32.3L443.3,296.9z M644.5,717.7c0,10.3-8.4,18.8-18.8,18.8h-450c-10.3,0-18.8-8.4-18.8-18.8V649h127.5
	c28.8,31.6,70.2,51.6,116.2,51.6S488.2,680.6,517,649h127.5V717.7z M256.2,543.5c0-79.7,64.8-144.5,144.5-144.5
	s144.5,64.8,144.5,144.5S480.4,688,400.7,688S256.2,623.2,256.2,543.5z M644.5,636.5H527.2c19.2-26,30.5-58.2,30.5-93
	c0-86.6-70.5-157-157-157s-157,70.5-157,157c0,34.8,11.3,67,30.5,93H157V367.7c0-10.3,8.4-18.8,18.8-18.8h450
	c10.3,0,18.8,8.4,18.8,18.8V636.5z"/>
<path class="st5" d="M157,441.5c4.5-1.1,8.5-2.4,11.7-4.2c8.8-4.9,13-10.4,15.5-15.9c-2.8-3.3-4.5-7.6-4.5-12.2
	c0-9.5,7.1-17.3,16.2-18.6c6.6-6.2,18.8-11.2,43.1-14.1c45.4-5.4,54.2-19.4,55.3-27.6H175.7c-10.3,0-18.8,8.4-18.8,18.8V441.5z"/>
</svg>
