<?xml version="1.0" encoding="utf-8"?>
<!-- Generator: Adobe Illustrator 28.0.0, SVG Export Plug-In . SVG Version: 6.00 Build 0)  -->
<svg version="1.1" id="Layer_3" xmlns="http://www.w3.org/2000/svg" xmlns:xlink="http://www.w3.org/1999/xlink" x="0px" y="0px"
	 viewBox="0 0 800 800" style="enable-background:new 0 0 800 800;" xml:space="preserve">
<style type="text/css">
	.st0{fill:#86BB03;stroke:#000000;stroke-width:14;stroke-linecap:round;stroke-linejoin:round;stroke-miterlimit:10;}
	.st1{fill:#754C24;stroke:#000000;stroke-width:14;stroke-linecap:round;stroke-linejoin:round;stroke-miterlimit:10;}
	.st2{fill:#EB2D34;stroke:#000000;stroke-width:14;stroke-linecap:round;stroke-linejoin:round;stroke-miterlimit:10;}
	.st3{opacity:0.2;fill:#EB2D34;enable-background:new    ;}
</style>
<g>
	<g>
		<path class="st0" d="M381.1,165.6c29.1,48.6,19.4,108.1,19.4,108.1s-57.1-19.4-86.2-68c-29.1-48.6-19.4-108.1-19.4-108.1
			S351.9,117,381.1,165.6z"/>
		<path class="st1" d="M457,80.6c-1.2,2.4-3,5.5-4.2,8.5c-1.2,3-3,6.1-4.2,9.1c-2.4,6.1-5.5,12.1-7.9,18.8
			c-2.4,6.7-4.9,12.7-6.7,19.4c-2.4,6.7-4.2,13.4-6.1,20c-7.3,26.7-12.1,54-15.8,82c-1.2,14-3,27.9-3,41.9c0,7.3-0.6,14-0.6,21.2
			v21.2v10.3l0.6,10.3l1.2,21.2c1.2,14,3,27.9,4.2,42.5c-3-14-6.7-27.9-9.1-41.9l-3.6-21.2l-1.8-10.3l-1.2-10.3l-2.4-21.2
			c-0.6-7.3-1.2-14.6-1.2-21.2c-1.2-14.6-1.2-28.5-1.2-43.1c0.6-28.5,2.4-57.7,7.3-86.2c1.2-7.3,2.4-14.6,3.6-21.2
			c1.2-7.3,3-14.6,4.9-21.2c1.8-7.3,3.6-14,6.1-21.2c1.2-3.6,2.4-7.3,3.6-10.9c1.2-3.6,2.4-6.7,4.2-10.9L457,80.6z"/>
		<path class="st2" d="M685.8,389.6c0-94.7-73.5-171.2-163.3-171.2c-48.6,0-91.7,22.5-122,57.1c-29.7-35.2-73.5-57.1-122-57.1
			c-90.5,0-163.3,76.5-163.3,171.2c0,169.4,135.4,319.9,135.4,319.9c12.1,15.8,31,25.5,51.6,25.5c20.6,0,39.5-9.7,51.6-25.5l0,0
			c0,0,24.3-21.9,46.1-21.9s46.1,21.9,46.1,21.9l0,0c12.1,15.8,31,25.5,51.6,25.5s39.5-9.7,51.6-25.5
			C550.4,709.5,685.8,558.9,685.8,389.6z"/>
		<path class="st3" d="M474,668.2c-7.3,0-11.5-4.2-14-7.3c-1.8-2.4-3.6-4.2-5.5-6.1c-9.1-7.9-41.3-34.6-78.9-34.6
			s-69.8,26.7-78.9,34.6c-1.8,1.8-3.6,3.6-5.5,6.1c-1.8,2.4-6.7,7.3-14,7.3s-11.5-4.2-14-7.3c-0.6-0.6-1.2-1.8-1.8-2.4
			c-1.2-1.2-123.2-139-123.2-287.1c0-67.4,51.6-122.6,114.7-122.6c32.8,0,62.5,14.6,85,40.1c9.1,10.9,22.5,17,37,17
			c14,0,27.9-6.1,37-17c22.5-26.1,52.2-40.1,85-40.1c63.1,0,114.7,55.2,114.7,122.6c0,148.1-122,285.9-123.2,287.8
			c-0.6,0.6-1.2,1.8-1.8,2.4C485.5,664,481.2,668.2,474,668.2z"/>
	</g>
</g>
</svg>
