<?xml version="1.0" encoding="utf-8"?>
<!-- Generator: Adobe Illustrator 28.0.0, SVG Export Plug-In . SVG Version: 6.00 Build 0)  -->
<svg version="1.1" id="Layer_3" xmlns="http://www.w3.org/2000/svg" xmlns:xlink="http://www.w3.org/1999/xlink" x="0px" y="0px"
	 viewBox="0 0 800 800" style="enable-background:new 0 0 800 800;" xml:space="preserve">
<style type="text/css">
	.st0{fill:#EB2D34;stroke:#000000;stroke-width:14;stroke-linecap:round;stroke-linejoin:round;stroke-miterlimit:10;}
	.st1{opacity:0.3;fill:#EB2D34;}
	.st2{fill:#86BB03;stroke:#000000;stroke-width:10;stroke-miterlimit:10;}
	.st3{fill:#739902;stroke:#000000;stroke-width:14;stroke-miterlimit:10;}
</style>
<g>
	<g>
		<path class="st0" d="M673.8,574.5c0,56.3-54,127.9-120.5,127.9c-66.6,0-120.5-71.6-120.5-127.9c0-56.3,54-102,120.5-102
			C619.9,472.5,673.8,518.2,673.8,574.5z"/>
		<path class="st1" d="M608.6,561.7c0,37.3-35.7,84.7-79.8,84.7s-79.8-47.4-79.8-84.7c0-37.3,35.7-67.6,79.8-67.6
			S608.6,524.4,608.6,561.7z"/>
		<path class="st0" d="M406.5,574.5c0,56.3-54,127.9-120.5,127.9c-66.6,0-120.5-71.6-120.5-127.9c0-56.3,54-102,120.5-102
			C352.5,472.5,406.5,518.2,406.5,574.5z"/>
		<path class="st1" d="M345.6,559.2c0,37.3-35.7,84.6-79.7,84.6s-79.7-47.3-79.7-84.6s35.7-67.5,79.7-67.5S345.6,521.9,345.6,559.2z
			"/>
		<path class="st2" d="M389.9,125.7c0.7,2.1,0.3,4.5-0.5,6.5c-0.6,1.4-2.1,3.8-2.9,5.2c-29.7,53.1-50.8,110.7-66.1,169.5
			c-13.2,51.2-21.4,103.9-24.6,156.6c-0.4,6.8-1,17.6-1.1,24.4c0,0-0.4,12.2-0.4,12.2s0,0.2,0,0.2c-0.1,4.5-3.9,8.1-8.5,7.9
			c-4.4-0.1-7.9-3.8-7.9-8.2c0,0-0.1-12.5-0.1-12.5c-0.2-9.6,0.2-21.6,0.5-31.2c1.7-43.7,7-87.5,16-130.3
			c5.2-24.4,11.4-49,18.9-72.8c13.8-44,31.2-86.9,53.8-127.2c1.4-2.3,3.2-6.2,5.7-7.8c5.6-4.1,14-2.2,16.4,4.6
			C388.9,123.1,389.9,125.7,389.9,125.7L389.9,125.7z"/>
		<path class="st3" d="M272.3,211c-63,41.2-145.1,27.2-145.1,27.2s20-80.9,83-122.1c63-41.2,145.1-27.2,145.1-27.2
			S335.3,169.8,272.3,211z"/>
		<path class="st2" d="M340.1,60.2c5.4-1.2,10.3-0.6,14.6,2.4c5,4.4,9.3,9.5,13.9,14.2C467.8,184,557.1,326.7,561.7,476.4
			c0.2,8,0.1,16-0.2,23.9c-0.6,10.3-15.4,10.8-16.4,0.2c-8.3-152.4-100.1-291.3-201-400.6c-3.5-3.7-7-7.3-10.6-10.9
			c-1.9-1.8-3.5-3.7-4.4-6.3c-1.2-3.7-1.1-7.8,0.1-12C330.7,65.2,335,61.3,340.1,60.2L340.1,60.2z"/>
	</g>
</g>
</svg>
