<?xml version="1.0" encoding="utf-8"?>
<!-- Generator: Adobe Illustrator 28.0.0, SVG Export Plug-In . SVG Version: 6.00 Build 0)  -->
<svg version="1.1" id="Layer_3" xmlns="http://www.w3.org/2000/svg" xmlns:xlink="http://www.w3.org/1999/xlink" x="0px" y="0px"
	 viewBox="0 0 1600 1600" style="enable-background:new 0 0 1600 1600;" xml:space="preserve">
<style type="text/css">
	.st0{fill:#3B8CDE;stroke:#000000;stroke-width:10.9986;stroke-miterlimit:10;}
	.st1{fill:#3B8CDE;stroke:#000000;stroke-width:5.9465;stroke-miterlimit:10;}
	.st2{fill:#3B8CDE;stroke:#000000;stroke-width:5.4993;stroke-miterlimit:10;}
	.st3{stroke:#000000;stroke-width:5.7157;stroke-miterlimit:10;}
	.st4{fill:#95C7EF;stroke:#000000;stroke-width:5.9465;stroke-miterlimit:10;}
</style>
<g>
	<g>
		<path class="st0" d="M1460.8,790.1c-0.2-14.8-1.1-43.4-1.1-43.4h-0.2c-0.7-18.4-1.6-35.4-2.9-50.5c0.4-0.2,0-0.2,0-0.2
			c-1.6-19.3-3.8-34.8-6.4-45.2c-12.6-46.7-35.4-210-78.4-254.1c-43-44.3-62-53.2-93.5-59.4c-31.7-6.4-96.1-1.3-110.1-3.8
			c-1.8-0.4-6.9-1.3-14.2-2.7c-8.9-7.5-19.3-13.3-31.2-15.1c-36.3-5.5-66.2-2.2-92.4-6.2c-0.7,0-1.3-0.2-2.2-0.2
			c-8.6-1.3-16.8-3.8-24.4-7.3c-22.2-10.6-37-10-47.6-1.8c-19.9-2-37.4-2.9-49.6-2c-60.7,3.8-116.3,48.1-171.9,34.1
			c-55.6-14-169.5-59.4-254.1-15.1s-206,163-216.2,231.3c0,0-26.8,80.6-47.4,139.6c-20.6,58.9-56,128.7-88.4,158.4
			c-32.3,29.5-77.8,41.2-92.4,42.3c-14.6,0.9,10,7.8,10,7.8s-14.8,6-20.6,6.9c-6,0.9,26.6-2.9,21.7,2c-3.5,3.5,2.2,9.5-0.9,10.9
			c-3.3,1.3-2,8.4,2,7.8c7.8-0.9,8.9,6,8.9,6s-11.7,6-18.6,6.9c-6.9,0.9,22.6-2,28.6-6c6-4,7.8,0,16.6-4.9
			c8.9-4.9,23.5-12.8,27.5-18.6c4-6,16.6-32.3,34.3-49.2c17.7-16.6,71.8-87.5,97.2-135.6c21.3-39.9,27.5-54.9,29-58.7
			c5.3,29,12.8,59.8,21.9,89.7c-1.1,4.2-9.7,36.5-10.6,73.3c-0.9,34.3-1.8,95.9-6.4,118.1h-0.4c0,0,0.2,0,0.4,0
			c-0.7,3.1-1.6,5.5-2.2,6.9c-0.9,1.3-2.2,3.5-3.5,6c-0.4,0-0.9,0-1.3-0.2l1.3,0.2c-10,17.5-31.5,58.9-35.7,86.4
			c-4.9,31.5-6,89.5-10.9,103.2c-4.9,13.7-26.6,45.2-11.7,62.9c10,12,31.2,18.4,49.6,21c-0.9,9.5,2.9,18.6,24.1,14.2
			c10-2,13.3-7.5,13.5-14h0.2c2.4,7.3,7.5,11.7,19.7,9.1c6-1.3,8-6.9,7.8-13.3c1.3-0.2,2.7-0.7,4.2-0.9c1.6,2.4,3.1,4.4,4.9,5.3
			c7.3,3.8,16.6,4.9,19.3-6.6c1.1,1.8,2.2,2.9,3.3,2.7c6-0.9,17.5-8,16.8-15.7c-0.9-9.7-7.8-30.3-17.7-20.6
			c-6.9-13.5-16.4-27-20.6-42.3c-6-20.6,0-39.4,8.9-56c8.9-16.6,52.1-96.4,52.1-96.4l-15.7-36.8c23,47.6,42.5,89.5,52.9,120.9
			c17.7,54.3,14,60.7,20.2,72c6.4,11.3,20.2,27.9,19.1,37.9c-1.3,10.2-21.5,59.4,2.4,70.9c11.1,5.3,25.9,10.4,42.8,13.1
			c-0.9,11.1,7.1,20.8,33.7,13.7c8-2.2,12.2-5.8,13.7-10.2c10.4,6.9,31.7,1.8,42.3-7.5c2.7-2.2,3.8-4.9,3.8-7.8
			c6.9,4,16.2,3.5,25.7-12c3.8-6.2,2.2-12-1.8-16.4c4.4-4,6.4-11.3-1.3-22.8c-6.9-10.2-15.5-8.6-20.2-6.6c-1.1-3.1-2.2-6.2-3.5-9.3
			c-15.1-36.8-31.7-65.8-31.7-78.4c0-12.6,1.3-54.3-8.9-74.6c-10.2-20.2-26.6-115.2-27.7-137.8c-1.3-22.8-1.3-22.8-1.3-22.8
			s50.5,22.8,155.5,6.4s190.9-77.1,190.9-77.1s16.4,50.5,34.1,80.9c9.5,16.2,19.9,36.8,29.5,54.7c0.9,13.1,4.9,72,6.6,94.6
			c0.4,4.9,0.9,10.6,1.3,16.6H960c0,0,0.4,0,1.3,0c0.2,4.2,0.7,8.4,0.9,12.8H962h0.2c1.8,23.7,3.5,48.1,3.5,48.1v0.2
			c-15.5,8.9-38.8,25.3-40.8,58.5c-1.6,27.5,0.7,58.5,12.8,82.4c-2.2,4.2-3.8,7.3-3.8,7.3c-2,9.7,14.8,21.7,30.6,22.6
			c0.2,0,0.4-0.2,0.9-0.2c2.4,1.3,5.1,2.7,8,3.8c2,4,5.8,7.5,10.9,10c8.2,4.2,14.2,5.8,21.7-1.3c3.5,0.2,6.4,0.2,9.3-0.2
			c4.7,8.4,22.8-2.9,28.1-10.2c1.3-1.8,2.4-4.2,3.3-6.9c8.2,1.1,17.5,1.1,26.8,0.2c4.2,4.4,10.9,5.8,21.9-0.2c2-1.1,3.5-2.4,4.4-3.8
			c4.9-1.1,9.5-2.2,13.7-3.5c4.2,2.4,8.2,3.3,11.3,2.4c12.8-4,14.8-2,12.8-18.6c-0.4-3.5-1.8-7.1-3.8-10.4c3.8-0.9,7.1-3.1,7.8-8.2
			c0.9-9.7-25.5-22.6-25.5-22.6c-1.3,0.9-1.8,3.5-1.8,6.6c-3.1-3.3-5.8-6.4-8.2-8.6c-9.1-8.9-19.5-39.7-24.8-57.2
			c2-4.2,4-7.5,5.3-10c11.3-19.1,10.2-87.3,19.1-112.5c6-17.3,11.5-43.2,11.5-66.5c0,0,1.1-0.4,0-2c0-10.2-1.3-19.7-4-27.7
			c-8.9-26.6-16.4-110.1-15.3-137.8c1.3-27.9-5.1-39.2,5.1-56.9c8.9-15.7,14.8-50.9,23.3-63.4c3.1,1.6,6.6,3.1,10.9,4
			c12.6,2.4,32.8,3.8,39.2-10.2c6.4-14,15.1-8.9,19.1-20.2c0.2-0.9,0.4-1.3,0.7-2c3.5,0.2,6.9,1.8,10.6,4.7
			c10.2,7.5,49.4,15.1,60.7,26.6c11.3,11.3,19.1,23.9,35.4,31.7c8.6,4,23.9,6.6,37.2,12c6,6.6,14.2,15.7,23.7,26.1
			c3.3,31.5,34.1,251.2,36.5,312.1c2.4,62-8.9,131.6-16.4,128.9c-7.5-2.4-20.2,0-19.1,12.6c1.3,12.6-3.8,15.1-8.9,15.1
			c-5.1,0-16.4,8.9-7.5,19.1c8.9,10.2,65.8,29,91-22.8c24.4-51.8,21.9-184.5,21.9-274.5c0-28.8,0.2-65.1-0.2-102.3
			c43.9,24.8,115,52.5,120.3,41.6C1587.7,875.3,1510.7,843.7,1460.8,790.1z"/>
		<path class="st0" d="M19.2,916.1c1.1,0.2,3.5,0,6.4-0.9C21.2,915.4,17.9,915.9,19.2,916.1z"/>
		<path class="st0" d="M25.2,925.8c1.8,0.7,4,0,6.6-1.3C26.5,924.7,22.8,925,25.2,925.8z"/>
	</g>
	<path class="st1" d="M965.1,1119.7c0,0-4-52.1-6-77.8c-2-25.5-6.9-97.2-6.9-97.2s12.2-32.3,37.7-20.4
		c25.5,11.7,41.2,93.5,43.6,134.7c2.4,41.2-17.3,121.6-37.2,116.7C976.1,1170.6,965.1,1119.7,965.1,1119.7z"/>
	<path class="st1" d="M293.7,752.8c0,0-9.7,34.3-10.9,73.8c-0.9,39.4-2,114.1-8.9,124.9c-6.9,10.9-34.3,60.9-39.2,92.4
		c-4.9,31.5-6,89.5-10.9,103.2c-4.9,13.7-26.6,45.2-11.7,62.9c14.8,17.7,55.2,23.7,72.7,22.6c17.7-0.9,83.5-8,78.6-26.6
		s-20.6-36.3-26.6-56.9c-6-20.6,0-39.4,8.9-56c8.9-16.6,52.1-96.4,52.1-96.4"/>
	<path class="st1" d="M264.2,548.6c0,0-26.8,80.6-47.4,139.6c-20.6,58.9-56,128.7-88.4,158.4C96.1,876,50.7,887.7,36,888.9
		c-14.6,0.9,10,7.8,10,7.8s-14.8,6-20.6,6.9c-6,0.9,26.6-2.9,21.7,2s-23.5,11.7-27.5,10.9c-4-0.9,31.5-2,26.6,0s-15.7,11.7-20.6,9.7
		c-4.9-2,14.8-0.9,22.6-2c7.8-0.9,8.9,6,8.9,6s-11.7,6-18.6,6.9s22.6-2,28.6-6c6-4,7.8,0,16.6-4.9c8.9-4.9,23.5-12.8,27.5-18.6
		c4-6,16.6-32.3,34.3-49.2c17.7-16.6,71.8-87.5,97.2-135.6c25.5-48.1,29.5-60,29.5-60"/>
	<path class="st1" d="M288.6,945.6c0,0-8.9,0-12.8-0.9"/>
	<path class="st1" d="M283.7,959.3c0,0-6.9-0.9-14.8-2"/>
	<path class="st1" d="M375.2,1212c0.9,7.8-10.9,14.8-16.8,15.7c-6,0.9-10.9-26.6-0.9-36.3C367.2,1181.5,374.1,1202.3,375.2,1212z"/>
	<path class="st1" d="M333.8,1192.3c7.8-5.5,23.7,16.6,21.7,30.6c-2,13.7-11.7,12.8-19.7,8.9C328,1227.8,320,1202.3,333.8,1192.3z"
		/>
	<path class="st1" d="M312.3,1200.3c7.5-3.1,24.6,36.3,6.9,40.3c-17.7,4-20.6-7.8-21.7-20.6C296.5,1207.2,302.3,1204.1,312.3,1200.3
		z"/>
	<path class="st1" d="M280.8,1204.1c7.5-2.2,34.3,35.4,4.9,41.2c-29.5,6-25.5-13.7-21.7-24.6C268,1210,273.9,1206.1,280.8,1204.1z"
		/>
	<path class="st1" d="M1033.5,1282.7c23.9,9.1,68.4,0.2,89.7-7.8c25.5-9.7-4.9-43.2-17.7-56c-9.1-8.9-19.5-39.7-24.8-57.2
		c-14.2,28.1-40.8,90.6-45.2,112.8C1034.8,1277.4,1034.4,1280.3,1033.5,1282.7z"/>
	<path class="st2" d="M1461.7,948c0-89.7,1.3-250.3-11.3-297c-12.6-46.7-35.4-210-78.4-254.1c-43-44.3-62-53.2-93.5-59.4
		c-31.7-6.4-96.1-1.3-110.1-3.8s-201.1-39.2-261.8-35.4s-116.3,48.1-171.9,34.1c-55.6-14-169.5-59.4-254.1-15.1
		s-206,163-216.2,231.3c-10.2,68.2,21.5,206,64.5,299.7c43,93.5,88.6,178.3,106.3,232.6s14,60.7,20.2,72
		c6.4,11.3,20.2,27.9,19.1,37.9c-1.3,10.2-21.5,59.4,2.4,70.9c24.1,11.3,67.1,22.8,106.1,8.9c39.2-14,44.3-37.9,29-74.7
		c-15.1-36.8-31.7-65.8-31.7-78.4c0-12.6,1.3-54.3-8.9-74.7c-10.2-20.2-26.6-115.2-27.7-137.8c-1.3-22.8-1.3-22.8-1.3-22.8
		s50.5,22.8,155.5,6.4s190.9-77.1,190.9-77.1s16.4,50.5,34.1,80.9c17.7,30.3,39.2,75.8,49.4,91c10.2,15.1,21.5,17.7,21.5,29
		c0,11.3-8.9,93.5-16.4,99.9s-50.5,20.2-53.2,65.8c-2.4,45.4,5.1,101.2,51.8,117.6c41.2,14.4,52.1,6.4,57.4-13.1
		c0.7-2.7,1.3-5.5,2-8.4c4.4-22.2,31-84.6,45.2-112.8c2-4.2,4-7.5,5.3-10c11.3-19.1,10.2-87.3,19.1-112.5
		c8.9-25.3,16.4-69.6,7.5-96.1c-8.9-26.6-16.4-110.1-15.3-137.8c1.3-27.9-5.1-39.2,5.1-56.9c10.2-17.7,16.4-60.7,26.6-67.1
		c10.2-6.4,34.1,1.3,46.7-12.6c12.6-14,20.2-15.1,30.3-7.5c10.2,7.5,49.4,15.1,60.7,26.6c11.3,11.3,19.1,23.9,35.4,31.7
		c16.4,7.5,58.3,10.2,60.7,36.5c2.4,26.6,34.1,251.6,36.8,313.7c2.4,62-8.9,131.6-16.4,128.9c-7.5-2.4-20.2,0-19.1,12.6
		c1.3,12.6-3.8,15.1-8.9,15.1s-16.4,8.9-7.5,19.1c8.9,10.2,65.8,29,91-22.8C1464.1,1170.6,1461.7,1037.9,1461.7,948z"/>
	<path class="st1" d="M981.7,1104.8c0,0,17.7,13.7,21.7,21.7"/>
	<path class="st1" d="M977.5,1112.6c0,0,13.1,12,16.2,20.8"/>
	<path class="st1" d="M959.1,1058.8c0,0,11.7,0.9,17.7,0"/>
	<path class="st1" d="M961.1,1071.4c0,0,10.9,4,13.7,2.9"/>
	<path class="st1" d="M1115.5,1220.9c0,0,26.6,12.8,25.5,22.6c-0.9,9.7-11.7,8.9-17.7,8.9
		C1117.3,1252.4,1110.4,1224.7,1115.5,1220.9z"/>
	<path class="st1" d="M612,1207.2c0,0,13.7-9.7,23.5,4.9c9.7,14.8,4,22.6-2.9,25.5C625.7,1240.6,605.1,1216.9,612,1207.2z"/>
	<path class="st1" d="M609.1,1226.9c8-6.9,40.3,6.9,29.5,24.6c-10.9,17.7-21.7,15.7-28.6,9.7
		C603.1,1255.2,594.3,1239.5,609.1,1226.9z"/>
	<path class="st1" d="M579.6,1235.5c13.5-4,44.3,22.6,29.5,35.4c-14.6,12.8-50.1,17.7-48.1-6C563,1241.5,569.9,1238.6,579.6,1235.5z
		"/>
	<path class="st1" d="M541.3,1244.4c11.7-1.3,45.2,35.4,11.7,44.3c-33.4,8.9-37.4-8.9-31.5-22.6
		C527.6,1252.4,532.5,1245.5,541.3,1244.4z"/>
	<path class="st1" d="M86.1,875.8c0,0,7.8,19.7,25.5,21.7"/>
	<path class="st1" d="M933.6,1268.1c0,0,18.6-41.2,34.3-36.3c15.7,4.9,11.7,60-4,58.9C948.2,1289.6,931.6,1277.8,933.6,1268.1z"/>
	<path class="st1" d="M1005.4,1254.3c9.1,3.8,24.6,11.7,10.9,34.3c-13.7,22.6-20.6,21.7-32.3,15.7c-11.7-6-16.6-15.7-8.9-29.5
		C982.6,1261.2,995.4,1250.4,1005.4,1254.3z"/>
	<path class="st1" d="M1042.6,1292.7c-6.4,9.1-33.4,24.6-28.6,0c4.9-24.6,15.7-40.3,27.5-39.4
		C1053.5,1254.3,1049.5,1282.7,1042.6,1292.7z"/>
	<path class="st1" d="M1075.2,1248.4c5.8-4.9,41.2,25.5,19.7,37.4c-21.7,11.7-26.6-4-28.6-18.6
		C1064.3,1252.4,1069.2,1253.2,1075.2,1248.4z"/>
	<path class="st1" d="M1104.6,1231.8c6-6,30.6,13.7,32.3,30.6c2,16.6,0,14.8-12.8,18.6C1111.5,1284.7,1080.9,1255.2,1104.6,1231.8z"
		/>
	<path class="st3" d="M1354.9,523.8c0,4.7-17.1,2.7-32.8-3.1c-15.7-6-2-11.3,4.7-14.4C1333.2,503,1354.9,515.4,1354.9,523.8z"/>
	<path class="st1" d="M1406.5,687.1c0,0,30.1-4,44.5-21"/>
	<path class="st1" d="M1418.5,713.2c0,0,21.7-4,39.4-17.7"/>
	<path class="st1" d="M1428.3,730.9c0,0,17.1,0.7,28.1-7.1"/>
	<path class="st1" d="M1438.7,752c0,0,6.6,2.7,21-5.3"/>
	<path class="st1" d="M435.2,566.1c0,0,60.9,118.1,79.5,147.5c18.6,29.5,26.6,63.8,23.5,74.7c-2.9,10.9,2.9,71.3,4,94.1"/>
	<path class="st1" d="M482.4,793.2c0,0,43.2,10.9,56-4.9"/>
	<path class="st1" d="M845,675.3c0,0-6,47.2,10.9,72.7c16.6,25.5,31.5,37.4,31.5,42.3c0,4.9,1.6,21.3,1.6,21.3"/>
	<path class="st1" d="M827.3,707.7c0,0,20.6,25.5,28.6,40.3"/>
	<path class="st1" d="M1118.4,973c0,0-14.8-24.6-37.4-10.9"/>
	<path class="st1" d="M1113.5,1004.5c0,0-19.7,11.7-33.4-8.9"/>
	<path class="st4" d="M1362.9,662.2c0,0-21.5,16.4-25.3,29s-7.5,29-7.5,29s74.7,85.9,111.2,112.5c36.8,26.6,134,67.1,140.4,54.3
		c6.4-12.6-78.4-46.7-127.8-105C1404.8,724.3,1358,654.7,1362.9,662.2z"/>
	<path class="st1" d="M1196.1,396.9c0,0-24.1-73.3-73.3-80.9c-49.4-7.5-87.3,1.3-119-14c-31.7-15.1-48.1-7.5-59.4,12.6
		c-11.3,20.2-21.5,22.8-27.9,31.7c-6.4,8.9,3.8,16.4-3.8,17.7c-7.5,1.3-20.2,3.8-16.4,12.6s-8.9,11.3-7.5,21.5
		c1.3,10.2,2.4,31.7,0,37.9c-2.4,6.4-1.3,15.3,5.1,20.2c6.4,5.1,14,8.9,11.3,14c-2.4,5.1-14,7.5-7.5,17.7
		c6.4,10.2,7.5,19.1,15.3,30.3c7.5,11.3,17.7,22.8,22.8,26.6c5.1,3.8,12.6,6.4,15.1,14c2.4,7.5,5.1,1.3,12.6,6.4
		c7.5,5.1,11.3,20.2,22.8,23.9c11.3,3.8,23.9,15.1,30.3,20.2c6.4,5.1,12.6-1.3,21.5,10.2c8.9,11.3,20.2,19.1,27.9,20.2
		c7.5,1.3,17.7,10.2,25.3,19.1c7.5,8.9,14,15.1,20.2,17.7c6.4,2.4,12.6,10.2,25.3,12.6c12.6,2.4,32.8,3.8,39.2-10.2
		c6.4-14,15.1-8.9,19.1-20.2c3.8-11.3,3.8-8.9,5.1-19.1c1.3-10.2,8.9-10.2,3.8-20.2c-5.1-10.2-5.1-12.6-3.8-21.5
		c1.3-8.9,3.8-8.9,6.4-15.3c2.4-6.4,5.1-14,5.1-14"/>
</g>
</svg>
