<?xml version="1.0" encoding="utf-8"?>
<!-- Generator: Adobe Illustrator 28.0.0, SVG Export Plug-In . SVG Version: 6.00 Build 0)  -->
<svg version="1.1" id="Layer_3" xmlns="http://www.w3.org/2000/svg" xmlns:xlink="http://www.w3.org/1999/xlink" x="0px" y="0px"
	 viewBox="0 0 1600 1600" style="enable-background:new 0 0 1600 1600;" xml:space="preserve">
<style type="text/css">
	.st0{fill:#DB281F;stroke:#000000;stroke-width:5.5253;stroke-linecap:round;stroke-linejoin:round;stroke-miterlimit:10;}
	.st1{fill:#DB281F;stroke:#000000;stroke-width:9.2089;stroke-linecap:round;stroke-linejoin:round;stroke-miterlimit:10;}
	.st2{fill:#DB281F;stroke:#000000;stroke-width:5.0126;stroke-linecap:round;stroke-linejoin:round;stroke-miterlimit:10;}
	.st3{stroke:#000000;stroke-width:5.5253;stroke-miterlimit:10;}
	.st4{fill:#F2721C;stroke:#000000;stroke-width:5.5253;stroke-linecap:round;stroke-linejoin:round;stroke-miterlimit:10;}
</style>
<g>
	<path class="st0" d="M641.4,1109c0,0,3.9-50.4,5.8-75.2c1.9-24.7,6.6-94.1,6.6-94.1s-11.8-31.3-36.4-19.9
		c-24.7,11.6-39.9,90.5-42.2,130.3s16.7,117.7,36,113C630.7,1158.3,641.4,1109,641.4,1109z"/>
	<path class="st0" d="M1291.1,754.3c0,0,9.4,33.2,10.5,71.4c0.9,37.9,1.9,110.4,8.6,120.9c6.6,10.3,33.2,58.9,38.2,89.4
		c4.7,30.4,5.8,86.6,10.5,99.9c4.7,13.3,25.7,43.7,11.4,60.9c-14.1,17.1-53.4,22.7-70.3,21.9c-17.1-0.9-80.8-7.5-76.1-25.7
		c4.7-18,19.9-35.2,25.7-55.1c5.8-19.9,0-38.2-8.6-54.2c-8.6-16.3-50.4-93.2-50.4-93.2"/>
	<path class="st0" d="M1319.4,556.4c0,0,25.9,78,45.9,135c19.9,57.2,54.2,124.8,85.5,153.3c31.3,28.5,75.2,39.9,89.4,40.9
		c14.4,1.1-9.4,7.7-9.4,7.7s14.1,5.8,19.9,6.6c5.8,0.9-25.7-2.8-20.8,1.9c4.7,4.7,22.7,11.4,26.6,10.5c3.9-1.1-30.4-1.9-25.7,0
		s15.2,11.4,19.9,9.4s-14.4-0.9-21.9-1.9c-7.7-0.9-8.6,5.8-8.6,5.8s11.4,5.8,18,6.6c6.6,1.1-21.9-1.9-27.7-5.6
		c-5.8-3.9-7.5,0-16.1-4.7s-22.7-12.4-26.6-18c-3.9-5.8-16.3-31.5-33.2-47.6c-17.1-16.1-69.4-84.7-94.3-131.2
		c-24.7-46.7-28.5-58.1-28.5-58.1"/>
	<path class="st0" d="M1295.8,940.7c0,0,8.6,0,12.4-0.9"/>
	<path class="st0" d="M1300.5,954c0,0,6.6-0.9,14.1-1.9"/>
	<path class="st1" d="M1212.2,1198.4c-0.9,7.5,10.5,14.4,16.3,15.2c5.8,0.9,10.5-25.7,1.1-35.2
		C1219.7,1169,1213.1,1189,1212.2,1198.4z"/>
	<path class="st1" d="M1252.1,1179.5c-7.7-5.6-22.9,16.1-21,29.4c1.9,13.3,11.4,12.4,19.1,8.6
		C1257.9,1213.8,1265.4,1189,1252.1,1179.5z"/>
	<path class="st2" d="M1273.1,1187c-7.3-2.8-23.8,35.2-6.6,39c17.1,3.9,19.9-7.7,21-19.9C1288.3,1193.7,1282.5,1190.9,1273.1,1187z"
		/>
	<path class="st2" d="M1303.5,1190.9c-7.5-2.1-33.2,34.3-4.7,39.9c28.5,5.8,24.7-13.3,21-23.8
		C1315.7,1196.7,1310.2,1192.8,1303.5,1190.9z"/>
	<path class="st1" d="M575.2,1267c-23.1,9-66.2,0.4-86.8-7.5c-24.7-9.4,4.7-41.8,17.1-54.2c8.6-8.8,18.6-38.4,24-55.3
		c13.7,27.2,39.4,87.7,43.7,108.9C573.7,1261.6,574.3,1264.4,575.2,1267z"/>
	<path class="st0" d="M161,943.1c0-86.8-1.3-242.2,10.9-287.4c12.2-45.2,34.3-203.2,75.9-245.9c41.6-42.9,60-51.4,90.5-57.4
		c30.7-6,93-1.3,106.3-3.6c13.5-2.4,194.6-37.9,253.1-34.3c58.7,3.6,112.5,46.5,166.3,33c53.8-13.5,164-57.4,245.9-14.6
		s199.3,157.8,209.2,223.8c9.9,66-20.8,199.3-62.4,290c-41.6,90.5-85.5,172.6-102.7,225.1c-17.1,52.7-13.5,58.7-19.5,69.7
		c-6.2,10.9-19.5,27-18.4,36.7c1.3,9.9,20.8,57.4-2.4,68.6c-23.4,10.9-64.9,22.1-102.9,8.6c-37.9-13.5-42.9-36.7-28.1-72.2
		c14.6-35.4,30.4-63.7,30.4-75.9c0-12.2-1.3-52.5,8.6-72.2c9.9-19.5,25.7-111.2,27-133.3c1.3-22.1,1.3-22.1,1.3-22.1
		s-48.9,22.1-150.5,6c-101.6-15.9-184.8-74.6-184.8-74.6s-15.9,48.9-33,78.2c-17.1,29.4-37.9,73.5-47.8,88.1
		c-9.9,14.8-20.8,17.1-20.8,28.1s8.6,90.5,15.9,96.7c7.3,6.2,48.9,19.5,51.4,63.7c2.4,43.9-4.9,98-50.2,113.8
		c-39.9,13.9-50.4,6.2-55.5-12.6c-0.6-2.6-1.3-5.4-1.9-8.1c-4.3-21.4-30-81.7-43.7-108.9c-2.1-4.1-3.9-7.3-5.1-9.6
		c-11.1-18.4-9.9-84.5-18.4-108.9c-8.6-24.4-15.9-67.3-7.3-93c8.6-25.7,15.9-106.5,14.6-133.3c-1.3-27,4.9-37.9-4.9-55.1
		c-9.6-17.1-15.9-58.7-25.7-64.7c-9.9-6.2-33,1.3-45.2-12.2c-12.2-13.5-19.5-14.6-29.4-7.3c-9.9,7.3-47.8,14.8-58.7,25.7
		c-11.1,11.1-18.4,23.4-34.3,30.7c-15.9,7.3-56.2,9.9-58.7,35.6c-2.6,25.7-33,243.5-35.6,303.3c-2.4,60,8.6,127.3,15.9,124.8
		c7.3-2.4,19.5,0,18.4,12.2c-1.3,12.2,3.6,14.6,8.6,14.6c4.9,0,15.9,8.6,7.3,18.4c-8.6,9.9-63.7,28.1-88.1-22.1
		C158.5,1158.5,161,1029.9,161,943.1z"/>
	<path class="st0" d="M625.3,1094.9c0,0-17.1,13.3-20.8,21"/>
	<path class="st0" d="M629.4,1102.1c0,0-12.6,11.6-15.6,20.1"/>
	<path class="st0" d="M647.2,1050.1c0,0-11.4,1.1-17.1,0"/>
	<path class="st0" d="M645.3,1062.5c0,0-10.5,3.9-13.3,2.8"/>
	<path class="st2" d="M495.9,1207c0,0-25.7,12.4-24.7,21.9c1.1,9.4,11.4,8.6,17.1,8.6C494.1,1237.4,500.8,1210.8,495.9,1207z"/>
	<path class="st2" d="M982.9,1193.7c0,0-13.3-9.4-22.9,4.7c-9.4,14.4-3.9,21.9,2.8,24.7C969.6,1226,989.5,1203.3,982.9,1193.7z"/>
	<path class="st2" d="M985.9,1212.8c-7.7-6.6-39,6.6-28.5,23.8c10.5,17.1,21,15.2,27.7,9.4C991.4,1240.4,1000,1225.2,985.9,1212.8z"
		/>
	<path class="st2" d="M1014.4,1221.3c-13.1-3.9-42.9,21.9-28.5,34.3c14.4,12.4,48.4,17.1,46.5-5.8
		C1030.4,1226.9,1023.8,1224.1,1014.4,1221.3z"/>
	<path class="st2" d="M1051.5,1229.9c-11.4-1.3-43.7,34.3-11.4,42.9c32.4,8.6,36.2-8.6,30.4-21.9
		C1064.7,1237.4,1060,1230.8,1051.5,1229.9z"/>
	<path class="st0" d="M1491.7,873.2c0,0-7.5,19.1-24.7,21"/>
	<path class="st2" d="M671.8,1252.6c0,0-18-39.9-33.2-35.2c-15.2,4.7-11.4,58.1,3.9,57C657.7,1273.6,673.8,1262.3,671.8,1252.6z"/>
	<path class="st2" d="M602.6,1239.3c-8.8,3.4-23.8,11.4-10.5,33.2c13.3,21.9,19.9,21,31.5,15.2c11.4-5.8,16.1-15.2,8.6-28.5
		C624.3,1246,612,1235.5,602.6,1239.3z"/>
	<path class="st2" d="M566.4,1276.4c6.2,8.8,32.4,23.8,27.7,0s-15.2-39-26.6-38.2C555.9,1239.3,559.7,1267,566.4,1276.4z"/>
	<path class="st2" d="M534.9,1233.8c-5.6-4.7-39.9,24.7-19.1,36.2c21,11.4,25.7-3.9,27.7-18C545.4,1237.4,540.7,1238.5,534.9,1233.8
		z"/>
	<path class="st2" d="M506.4,1217.5c-5.8-5.8-29.4,13.3-31.3,29.4c-1.9,16.3,0,14.4,12.4,18C499.7,1268.9,529.3,1240.4,506.4,1217.5
		z"/>
	<path class="st3" d="M264.1,532.6c0,4.5,16.5,2.6,31.7-3c15.2-5.8,1.9-10.9-4.5-13.9C285.2,512.5,264.1,524.5,264.1,532.6z"/>
	<path class="st1" d="M214.2,690.6c0,0-29.2-3.9-43.1-20.4"/>
	<path class="st1" d="M202.6,715.9c0,0-21-3.9-37.9-17.1"/>
	<path class="st1" d="M193.2,733c0,0-16.5,0.6-27.2-6.9"/>
	<path class="st1" d="M183.1,753.4c0,0-6.4,2.6-20.4-5.1"/>
	<path class="st0" d="M1154.1,573.6c0,0-58.9,114-77,142.5c-18,28.5-25.7,61.7-22.7,72.2c2.8,10.5-2.8,69-3.9,91.1"/>
	<path class="st0" d="M1108.5,793.3c0,0-41.8,10.5-54.2-4.7"/>
	<path class="st0" d="M757.6,679.2c0,0,5.8,45.7-10.5,70.5c-16.3,24.7-30.4,36-30.4,40.9c0,4.7-1.5,20.6-1.5,20.6"/>
	<path class="st0" d="M774.7,710.5c0,0-19.9,24.7-27.7,39"/>
	<path class="st0" d="M493.1,967.3c0,0,14.4-23.8,36.2-10.5"/>
	<path class="st0" d="M497.8,997.8c0,0,19.1,11.4,32.4-8.6"/>
	<path class="st4" d="M256.4,666.6c0,0,20.8,15.9,24.4,28.1c3.6,12.2,7.3,28.1,7.3,28.1s-72.2,83.2-107.6,108.9
		c-35.4,25.7-129.7,64.9-135.9,52.5c-6.2-12.2,75.9-45.2,123.5-101.6C215.9,726.6,261.4,659.3,256.4,666.6z"/>
	<path class="st0" d="M417.8,409.8c0,0,23.1-70.9,70.9-78.2c47.8-7.3,84.5,1.3,114.9-13.5c30.7-14.6,46.5-7.3,57.4,12.2
		c11.1,19.5,20.8,22.1,27,30.7c6.2,8.6-3.6,15.9,3.6,17.1c7.3,1.3,19.5,3.6,15.9,12.2c-3.6,8.6,8.6,10.9,7.3,20.8
		c-1.3,9.6-2.4,30.7,0,36.7c2.4,6.2,1.3,14.6-4.9,19.5c-6.2,4.9-13.5,8.6-10.9,13.5c2.4,4.9,13.5,7.3,7.3,17.1
		c-6,9.9-7.3,18.4-14.6,29.4c-7.5,10.9-17.1,22.1-22.1,25.7c-4.9,3.6-12.2,6.2-14.6,13.5c-2.4,7.3-4.9,1.3-12.2,6.2
		c-7.3,4.9-10.9,19.5-22.1,23.4c-10.9,3.6-23.1,14.6-29.4,19.5c-6.2,4.9-12.2-1.3-20.8,9.9c-8.6,10.9-19.5,18.4-26.8,19.5
		c-7.3,1.3-17.1,9.9-24.4,18.4c-7.3,8.6-13.5,14.6-19.5,17.1c-6.2,2.4-12.2,9.9-24.4,12.2s-31.9,3.6-37.9-9.9
		c-6.2-13.5-14.6-8.6-18.4-19.5c-3.6-11.1-3.6-8.6-4.9-18.4c-1.3-9.9-8.6-9.9-3.6-19.5c4.9-9.9,4.9-12.2,3.6-20.8
		c-1.3-8.6-3.6-8.6-6.2-14.6c-2.4-6.2-4.9-13.5-4.9-13.5"/>
</g>
</svg>
