<?xml version="1.0" encoding="utf-8"?>
<!-- Generator: Adobe Illustrator 28.0.0, SVG Export Plug-In . SVG Version: 6.00 Build 0)  -->
<svg version="1.1" id="Layer_3" xmlns="http://www.w3.org/2000/svg" xmlns:xlink="http://www.w3.org/1999/xlink" x="0px" y="0px"
	 viewBox="0 0 800 800" style="enable-background:new 0 0 800 800;" xml:space="preserve">
<style type="text/css">
	.st0{fill:#F3BD64;stroke:#231F20;stroke-width:4.6387;}
</style>
<path class="st0" d="M558.2,461.8c-43.3,16.3-84.3,36.7-92.5,85.6c-2.4,15.8-2.2,31.3-8.1,45.7c-11,13.3-21,27.2-29.1,41.6
	c9.2-63.3,10.1-128.9,1.2-192.6c0.3-0.3,0.5-0.8,0.5-1.3c1.2-34.4,14.4-61.7,31.7-89.2c5.6-3.5,11.8-6.2,18.1-9.4
	c33-17.4,70.4-34.4,80.4-74c10.7-42-13.4-91.9-26.3-131.7c-17.7,41.9-59.4,68.3-76.4,110.4c-14.6,35.8-2.7,73.4-8.8,109.7
	c-11.3,18.4-21,38.3-23.5,59.4c-5.5-29.7-13.2-58.9-23.3-87c-2.7-15.5-7.2-30.7-9.1-46.1c-5.5-43.9-2.1-85.3-33.6-121.3
	C323.3,120.8,262.8,97,217.5,66c6.8,26.6,18.3,51.8,28.8,77.7c23.5,62.1,42.2,121.9,102.5,156.2c12.4,6.8,34.3,15.3,45.4,27.3
	c20.9,59,30.3,121.2,31.6,184.1c-7.1-13.5-17.3-26-29.3-37.3c-0.8-2.8-1.6-5.6-2.6-8.2c-20.3-79.7-94.2-86.9-165.6-106.6
	c33.3,29.5,37.3,79.1,80,103.3c25.1,13.4,55.2,11.1,81.3,20c15.4,14.6,28.3,30.9,36.3,50.3c-0.4,54.6-6.5,109.6-16.2,163.5
	c-4.6-10.3-10.3-19.8-16.9-28.6c0.2-5,0.4-10.2,0.5-15c4.1-110.9-105.5-116.5-186.1-153.7c11.1,17.2,20.4,34.8,28.6,52.9
	c22.8,45.1,42.1,93.7,95.1,109.2c15.4,4.2,35.1,2,50.4,7.3c9.9,11.1,19,23.1,26.2,37.1c0.1,0.2,0.2,0.2,0.3,0.4
	c-1.6,8.5-3.2,17-5,25.4c-0.6,2.7,3.4,3.8,4.1,1.1c7.5-25.6,13.7-52.1,18.3-79.1c13.1-19.7,26.9-38.3,42.1-56.3
	c6.7-0.9,13.6-0.1,21.3,0.9c36.5,2.1,79.6,18.5,111.2-9.9c32.9-29.7,33.9-113.3,36.8-155.7C611.1,442.9,584.7,452.4,558.2,461.8z"/>
</svg>
