<?xml version="1.0" encoding="utf-8"?>
<!-- Generator: Adobe Illustrator 28.0.0, SVG Export Plug-In . SVG Version: 6.00 Build 0)  -->
<svg version="1.1" id="Layer_3" xmlns="http://www.w3.org/2000/svg" xmlns:xlink="http://www.w3.org/1999/xlink" x="0px" y="0px"
	 viewBox="0 0 800 800" style="enable-background:new 0 0 800 800;" xml:space="preserve">
<style type="text/css">
	.st0{fill:#38BCA7;stroke:#231F20;stroke-width:4.6387;}
</style>
<path class="st0" d="M559.1,485.4c-11.4,4.6-22.6,11.9-30.4,21.7c0,0,0,0,0,0c2.3-7,4.9-13.9,7.8-20.6c3.5-1.9,5.7-5.2,8.3-8.6
	c4.9-6.5,11.4-11.4,16.2-17.9c4.8-6.4,4.4-19.6-5.8-20.2c-22.2-1.2-30.6,32.6-24.4,49.5c-1.9,4.3-3.6,8.7-5.2,13.1
	c-2.1-6.2-4.8-12.6-7.3-18.3c-2.1-4.9-7-11.5-13-8.4c-7.6,4-5,13.6-1.9,19.4c4.1,7.5,11.3,14.5,18.1,19.7
	c-3.6,11.9-6.3,24.1-8.3,36.5c-2.3-8-5.2-16.1-7.8-23.4c-2.6-7.5-5.8-18-14-21.1c-9.5-3.5-11.3,15.3-10.2,20.1
	c4,18.2,16.5,31.2,29.4,43.8c-0.3,2.9-0.6,5.9-0.9,8.8c-0.5,5.5-1.1,11.6-1.8,17.9c-1.6-2.8-3.3-5.6-4.5-8.6
	c-2.4-6.2-5-12.3-8.4-18.1c-4.6-7.9-13.5-15.8-21.4-7.3c-7.3,7.8,4.5,21.3,9.3,26.8c5.7,6.7,14.6,16.5,23.9,18.7
	c-1.3,17.3-1.5,35.6,3.9,50.8c-25.1-31-50.9-61.2-72-95.6c-6.6-10.7-12.6-21.6-18.2-32.8c0.4-0.2,0.7-0.6,0.6-1.2
	c-2.4-20.6-2.3-40.6-0.5-60.4c1.7-2.6,4.2-4.7,6.9-6.1c8-4.1,57.7-10.9,48.3-27.1c-7.5-12.8-36.2,5.1-42.5,10.6
	c-4.7,4.2-9,9.6-12,15.5c1.4-12.9,3.6-25.6,6.3-38.3c2.5-2.8,5.5-5.3,8.6-7.2c6.5-3.9,51.9-24.4,38.4-35c-9.9-8-32.4,17.2-37.2,23
	c-2.3,2.9-5.2,6.5-7.8,10.5c3.1-13.1,6.8-26.2,10.9-39.2c1.5-1,3-2,4.4-3c8.2-6.5,37.7-18.6,37.9-29c0.2-11.6-20.5,2.2-24.2,5.1
	c-5.5,4.3-10.4,9.4-14.4,15.2c2-6,4.1-12,6.2-18c2.3-2.8,5.2-5.2,7.5-7.8c6.8-8,35.3-62.8,10.1-51.9c-21.7,9.3-19.3,36.6-20.7,56.5
	c-2,4.5-4,9.1-5.9,13.7c0.2-10.2-1.1-41-12.7-26c-7.3,9.4,1,30.2,6.2,42.2c-4.5,11.8-8.7,23.8-12.2,36.1c-0.2-0.7-0.3-1.3-0.5-2
	c-1.9-8-2.2-52-15.9-47.4c-12.1,4.1-2.4,28.8,0.7,35.5c3.5,7.7,8.1,15.1,13.6,21.6c-3.3,12.3-5.8,24.7-7.4,37.1
	c-1.9-11.4,0.2-22.7-4.5-33.8c-2.9-6.8-14-23.2-19.1-9.9c-5.3,13.5,6.3,36.5,13,47.6c2.7,4.3,5.8,8.1,9,11.7
	c-1.1,17.8,0.1,35.4,4.3,52.3c-15.7-33.3-26.8-68.6-33.1-105.1c-8-46.3-9.4-98.2-1.4-148c5-7.8,10.7-14.9,16.8-21.5
	c2.9,0.5,6,0.8,8.9,1.1c8.7,1,49.3,5.6,51.2-7c1.4-9.9-35.3-8.2-53.5-1c9.3-9.1,19.2-17.5,29.3-25.7c2.7,0.7,5.3,1.8,8,2.6
	c6.5,1.4,36.5,4.1,37.5-5.8c0.8-12.8-27.7-6.9-39.7-1.4c6.9-5.7,13.8-11.4,20.4-17.4c4.3-1.7,8.5-3.8,13-4.9
	c9.4-2.2,17.2-3.4,23.9-11.6c9.2-11.8,1.2-18.8-11.8-14.5c-10.4,3.6-16.4,10.6-21,20.1c-1,2-1.9,4-3,5.9
	c-7.3,5.7-14.7,11.1-22.1,16.6c1.6-2.1,3.1-4.2,4.6-6.4c2.9-3.9,9.4-11.8,8.2-17.2c-1.7-6.3-7-4.3-11.4-1.2
	c-10,7.5-8.9,20.1-10.2,31.3c-4.6,3.5-9.2,6.9-13.6,10.5c-2.5,2-5.2,4.2-7.9,6.5c0.9-1.7,1.9-3.4,3-5.1c3.4-5.1,17.4-37-0.2-28.3
	c-12.7,5.9-16.3,30-14.6,44.1c-4.9,4.8-9.4,10-13,15.5c6.6-32.9,17.6-64.5,33.8-92.8c0.3,0.1,0.7,0.1,1.1,0
	c8.8-3.1,54.6-3.1,50.2-18.8c-3.9-13.9-31-0.9-45.2,8.8c4.3-6.7,8.8-13.2,13.7-19.4c10.2-2,21.9-2.8,31.5-6.8
	c4.8-2,10.4-8.3,4.7-12.8c-4-3.1-10.4-0.7-15.4,1.9c-1.9,0.8-3.8,1.9-5.6,3.1c-1.9,1-3.8,2.2-5.7,3.4c2.9-3.2,5.9-6.4,9-9.4
	c1.9-1,3.6-2.2,5.5-3.2c2.5-1.3,5.3-2.3,7.9-3.4c2.9-1.3,5.7-3,8.4-4.7c3.8-2.4,12.1-7.4,11-12.9c-1.4-6.4-14.5-2.5-17.8-0.8
	c-7.8,4-11.8,13-15.3,20.9c-0.6,0.6-1.2,1.3-1.6,2.1c-3.2,3.1-6.4,6.2-9.4,9.4c4.1-10.1,8.1-24.9,0.3-26.8
	c-6.7-1.7-12.6,5.6-14.1,11.3c-2.3,8.1,1.6,17.5,5.6,24.8c-3.9,4.6-7.5,9.3-11,14.2c1.7-13.2,0.9-31-10.1-31
	c-19.3-0.1-6.4,35.6,0.9,44.7c-8.5,13.8-15.7,28.5-21.6,43.8c-0.1-5.3-0.8-10.6-2-15.9c0,0,0.1-0.1,0.1-0.1
	c2.5-10.7,14-15.2,17.1-25.3c1.9-5.9,0.2-13.5-7.3-12.8c-9.9,0.9-13.6,13.6-13.9,24.7c-1.9-5.2-4.2-10.4-6.8-15.4
	c3.1-6.6,7.6-12.4,10.5-19.2c2.3-5.5,1.9-11.9-4.9-13.1c-11.2-2-14.6,7.6-14.3,17.3c-1.7-2.6-3.4-5.1-5.2-7.6c0-0.2-0.1-0.5-0.2-0.7
	c-2.2-4.4-1.3-9.3-3-13.8c-1.1-2.7-3-5.1-4.9-7.2c-3.1-3.4-8.3-7.3-13.1-5.2c-5.6,2.5-2.5,12-0.3,15.6c4.1,6.6,10.7,10.6,17.5,13.9
	c1.8,3.1,3.6,6.2,5.5,9.3c-1.7-1.3-3.4-2.4-4.8-3.4c-4.7-3.5-13.6-7.2-17,0.1c-2.9,6.2,5.1,11.6,9.6,13.7c6.1,2.8,14.5,5.5,21.5,5.2
	c0.2,0.3,0.4,0.6,0.5,1c1.7,3.3,3.3,6.6,4.6,10c-3.1-2.5-6.6-4.4-10.3-5.7c-4.7-1.6-12-3.5-16,0.5c-4.4,4.5,1.4,12.3,5.1,14.9
	c7,5,17.6,4.3,25.7,4.1c1.9,7.1,3.1,14.4,3.7,21.9c0,0.1,0.1,0.1,0.1,0.1c-15.1,42.1-21.2,88.3-21.1,133.6
	c-3.9-11.9-9.3-23.9-15-35.4c0.6-3.8,1.3-7.6,2.7-11.3c3.1-8.7,24.6-39.6,6-44c-20.2-4.7-17.1,27.4-12.4,47.9
	c-3.7-7.3-7.5-14.3-10.9-20.9c-2.8-5.4-5.4-11-8-16.5c0.7-2.7,2-5.4,3.5-7.7c3.6-6.8,9.2-11.8,11.4-19.3c1.9-6.3,4.3-23.7-5.1-25.6
	c-10.1-1.9-15.9,15-16.7,22c-0.5,5.2-0.3,10.9,0.5,16.4c-5.5-12.3-11-24.4-17.6-36.1c-0.1-2.6,0-5.3-0.2-7.9
	c-0.7-11.4-17.4-60.9-30.9-35.8c-10.7,20.1,12,32.1,25.8,43.5c3.9,7.5,7.4,15.2,10.8,22.9c-1.4-1-2.7-2-4-3.2
	c-4.6-4.4-31.4-26.1-34.8-11.1c-3,12.2,31.7,20.6,42.4,22.7c4.8,11,9.5,22,14.8,32.8c1.4,2.9,2.9,5.8,4.4,8.7
	c-1.8-1.3-3.6-2.6-5.3-4c-10.1-7.7-33.6-36.5-48.3-26.1c-18.5,13,48.2,33.6,56.7,36c6.1,11.8,12.1,23.5,17.2,36.1
	c-2-1.4-4-2.8-6.2-4.1c-6-3.9-10.4-8.2-15.9-12.6c-6.8-5.6-28.3-17.2-37-10.1c-16.2,13.2,48,28.8,60.7,31c4,10.4,7.7,20.8,11.9,31
	c0.6,15.8,2,31.5,3.9,46.7c5.2,40.7,17.3,79.8,34.6,116.8c-6.8-5.8-13.7-11.4-20.9-16.8c-3.1-6.8-5.7-11.7-6.2-19.4
	c-0.4-6.6-0.7-13.1-1.5-19.6c-0.9-6.9-3.1-18.9-11.8-20c-10.9-1.4-10.4,12.7-9.6,19.9c1.2,10.4,5,19.5,11.6,26.7
	c-6.5-4.3-13-8.5-19.7-12.5c-4.4-15.4,4.4-52.8-20-46.9c-17.4,4.2-10.2,22.2-0.7,35.1c-6.8-3.7-13.6-7.1-20.5-10.5
	c-5.5-6.5-12.2-12.5-18-18.7c-5.3-5.7-11.5-11.4-18.8-14.4c-8.7-3.5-22.2-6-25.3,5.7c-3.2,11.7,7.3,20.9,16.8,24.6
	c13.4,5.2,28.7,4.7,42.8,6.9c7.7,4.4,15.3,9,22.9,13.7c-6.1-0.9-12.4-0.8-17.8-0.5c-7.4,0.4-22.9,2.2-23.9,12.2
	c-1,10.7,9,12.8,17.3,11c6.5-1.4,12.8-4.6,18.8-7.5c6.6-3.2,11.9-5.5,18.7-6.8c9.1,5.9,18.1,11.9,27,18c-15.5-2.2-37.1,1-42.4,14
	c-4.3,10.6,7.8,14.8,15.7,14.4c5.9-0.3,11.3-2.3,16-5.9c3-2.2,5.4-5.3,7.9-8.1c3.4-3.9,7.5-6.2,12.1-8c11.4,7.9,22.9,15.8,34.5,23.7
	c4,8.1,8.3,16.2,12.8,24.1c13.3,23.4,28.8,46.9,45.7,69.3c-7.4-4.4-15.7-8.1-24.3-11.1c-0.1-0.2-0.3-0.3-0.5-0.5
	c-13.8-10.2-18.7-24.2-27.5-38.3c-6-9.6-14.3-18-26.4-15.2c-12,2.7-5.8,17.5-1.5,23.8c5.7,8.4,13.9,15,22.7,20.6
	c-5.1-1.3-10-2.4-14.7-3.6c-4.1-1-8.1-1.9-12.2-2.8c-0.1-0.1-0.3-0.1-0.5-0.1c-1-0.2-2-0.4-2.9-0.6c-1.9-3.3-4.4-6.3-6.1-9.8
	c-2.6-5.2-5-10.4-7.9-15.5c-4.2-7.4-10.6-18.2-20.3-18.2c-9.9,0-11.3,11.7-7.9,18.5c4.2,8.4,10.8,13.8,18.3,18.2
	c2,1.5,4.1,2.7,6,3.2c-10.9-2.1-21.8-3.9-32.7-5.7c0,0,0,0,0,0c-3.6-3.8-3.5-9.3-6.7-13.5c-2.3-3.1-5.1-5.7-8-8.2
	c-4.2-3.6-11.3-9.8-17.3-7c-7.2,3.4-0.6,15.3,2.7,18.8c2.4,2.6,5.4,4.8,8.6,6.6c-2.8-0.5-5.7-0.9-8.5-1.3
	c-11.3-6.8-50.1-32.6-50.7-8.5c-0.5,21.2,34.5,14.6,47.6,11.4c1.2,0.3,2.5,0.6,3.7,0.8c0.1,0,0.2,0.1,0.2,0.1
	c0.2,0.1,0.3,0.1,0.5,0.1c4.6,1,9.2,2,13.8,3c-6.1,1.8-11.7,5.9-16.3,9.8c-4.3,3.7-11.9,12.9-6.6,18.7c4.3,4.6,13.9-3.1,17.2-5.4
	c3.2-2.3,6.3-4.8,9.2-7.5c3.9-3.5,6-8.5,9.9-12c0.3-0.2,0.5-0.5,0.6-0.8c10.4,2,20.8,4,31.2,6c-5.9,1-11.8,2.6-17.6,4.4
	c-7.7,2.4-23.5,7.6-23.4,18c0.1,10.8,10.8,13.2,19.1,9.4c6.6-3,12.3-7.3,17.9-11.7c8.7-6.8,15.1-11.2,26.1-14.5
	c0.5-0.2,0.9-0.4,1.3-0.7c10.4,2.3,20.5,5,30.5,8.1c-14.2,3.3-27.2,13.5-37.6,23.1c-4.5,4.1-16.6,21.6-3.5,24.2
	c11.2,2.2,23.6-8.8,31.7-14.9c9.7-7.4,20.2-16.6,28.2-26.1c14.9,5.5,29.4,11.9,43.9,19.2c16,19.9,33.2,38.7,51.3,55.5
	c1.2,1.1,3.3-0.4,2.3-1.8c-4.9-6.6-10-13.1-15.1-19.5c0-0.3,0-0.5-0.1-0.8c-7.6-17.6-9.3-36.2-8.9-55c3.6-1.9,6.2-5.1,9.7-7.4
	c2.6-1.7,5.4-2.6,8.3-3.6c7.6-2.7,15.2-5.3,22.5-8.9c8.4-4.2,17.7-16.6,4.8-22.3c-6.7-2.9-14.5-0.1-21.4,4c-2.4,1.3-4.7,2.9-6.8,4.7
	c-2.3,1.7-4.4,3.4-6.1,4.9c-2.6,2.2-6.6,6-10.1,10.3c0.5-6.7,1-13.5,1.5-20.1c0.3-3.6,0.6-7.2,0.9-10.8c7.4-5.4,13.9-10.6,23-13.5
	c8-2.5,15.9-5,23.5-8.8c6.9-3.5,21.1-17.5,10.7-25.6c-9.1-7.1-22.5,1.5-30.5,6.8c-7.6,4.9-18.2,12.3-24.1,21.1
	c1.6-9.9,3.6-19.8,6.2-29.5c5.3-1.6,9.2-6.2,14.8-7.7c6.5-1.7,13.1-3.1,19.6-5c7.6-2.2,23.1-6.3,22.5-16.8
	C581.3,477.9,565.3,482.9,559.1,485.4z M460,104.5c0,0,0,0.1,0,0.1c-0.1,0.1-0.1,0.1-0.2,0.2C459.9,104.7,459.9,104.6,460,104.5z
	 M350.6,119.9c0.1,0.1,0.2,0.2,0.2,0.3c0.1,0.2,0.2,0.4,0.3,0.6C351,120.4,350.8,120.2,350.6,119.9z M301.1,483.5
	c-0.1-0.1-0.1-0.1-0.2-0.1c0.3-0.1,0.5-0.2,0.8-0.3C301.5,483.2,301.3,483.3,301.1,483.5z M351.1,559.8
	C351.1,559.8,351,559.7,351.1,559.8c0-0.1,0.1-0.1,0.1-0.1C351.2,559.7,351.1,559.8,351.1,559.8z"/>
</svg>
