<?xml version="1.0" encoding="utf-8"?>
<!-- Generator: Adobe Illustrator 28.0.0, SVG Export Plug-In . SVG Version: 6.00 Build 0)  -->
<svg version="1.1" id="Layer_3" xmlns="http://www.w3.org/2000/svg" xmlns:xlink="http://www.w3.org/1999/xlink" x="0px" y="0px"
	 viewBox="0 0 800 800" style="enable-background:new 0 0 800 800;" xml:space="preserve">
<style type="text/css">
	.st0{fill:#F3BD64;stroke:#231F20;stroke-width:4.6387;}
	.st1{fill:#38BCA7;stroke:#231F20;stroke-width:4.6387;}
	.st2{fill:#DB281F;stroke:#000000;stroke-width:4.6387;stroke-linecap:round;stroke-linejoin:round;stroke-miterlimit:10;}
</style>
<g>
	<path class="st0" d="M287.7,267.5c7.1,5,10.6,12.7,15.3,20c-0.5-18.8-2-66.6,15.7-61.4c7.4,2,11.6,8.8,14.9,15.6
		c9.5-8.6,14.1-28.1,24.7-33.4c11.8-6.4,19.5,11.9,23.7,22.3c2.7-2.8,5.6-4.9,8.5-6.2c14.3-6,20.9,11.6,24.8,27.3
		c13.1-12.7,34-51.9,45.2-28.5c4.2,8.7,5.9,18.7,7.1,28.9c11.5-13,30.8-25.3,44-17.5c11.5,6.3,10.5,20.5,14.5,31.4
		c-0.4-0.4,2.7,8.1,4.2,11.9c13.1-12,39-34.1,47.3-31.8c7.4,2.3,5.9,20.1,5.1,31.1c3-1.5,5.8-2.7,8.7-3.5
		c20.1-5.8,8.6,29.8,5.2,40.1c-5.8,17.8-13.2,36.2-22.4,52.8c-2.3,4.7-16.4,42.6-16.1,46.6c0.5,6.8-55.5,120.3-154.2,117.9
		c-91.9-2.2-97.5-124.3-101-148.7c-5.7-19.4-12.2-38.3-15.5-57.7C284.9,314.5,278.6,275.5,287.7,267.5z"/>
	<path class="st1" d="M264.8,432.2c-4.6-3.5-10.9-4.6-16.6-5.7c-25.8-6.9-52.2-9.2-78-16.1c-9.7-2.9-59.1-26.4-58-8
		c0.6,8,11.5,18.9,17.2,24.1c17.2,16.1,40.2,26.4,62,36.2c18.4,8,38.4,13.2,57.4,20.1c12.1,4,25.8,6.9,36.1,15.5
		c0,0,25.2,30.4,59.4,21.3c34.2-9.1,28.1-57-12.9-69.9C290.3,436.6,264.8,432.2,264.8,432.2"/>
	<path class="st0" d="M302.7,286.3c1.6,5.4,7.4,10.5,9.7,13.3"/>
	<path class="st0" d="M303.3,384.5"/>
	<path class="st0" d="M431.2,420.1c-5.2-12.1-14.9-23.5-22.4-33.9c-4.6-6.9-9.2-18.9-17.2-22.4c-12.1-6.3-25.9,14.3-28.7,24.1"/>
	<path class="st0" d="M458.8,399.5c-2.9,1.7-16.1-18.3-21.8-20.6c-9.2-4.1-25.8,13.2-22.9,14.3"/>
	<path class="st1" d="M388.2,533.7c-23,0-40.2,27.5-55.7,41.8c-12.1,11.5-26.4,22.4-43,25.3c-25.8,3.4-49.3-6.4-72.9-17.2
		c-16-7.5-35.6-10.9-50.5-20.6c-6.3-3.4-12.1-9.2-10.9-16.6c1.1-12.6,16.6-14.9,26.4-17.2c22.4-6.3,44.7-8.6,64.8-18.9
		c14.9-7.5,31-12.1,48.2-10.9c9.2,1.2,43.6,6.3,47.6,13.2L388.2,533.7z"/>
	<path class="st0" d="M325.6,496.4c-15.6,3.7-28.1-17.8-37.9-30.4c-6.9-9.2-12-20.1-18.9-29.3c-18.9-27-35-59.1-44.2-90.6
		c-3.5-12.7-5.2-25.8-7.5-39c-0.6-4-5.7-20.6-1.7-24.7c9.8-9.7,39,40.2,43,47.1c1.7,2.3,4,6.9,4,8c0,0,56.6,105.2,63.5,124.9
		C332.8,482.2,332.9,494.7,325.6,496.4z"/>
	<path class="st0" d="M334.8,344.9c0-9.2-5.1-59.7-20.7-37.3c-12,17.2,0,36.2,9.8,48.8"/>
	<path class="st0" d="M333.3,241c1.6,3,3,6,4.4,8.7c2.3,5.2,5.2,10.9,8.6,16c0.6,1.8,6.9,8.6,4,6.9"/>
	<path class="st0" d="M415.2,251.8c1.7,6.9,2.9,13.4,3.9,17.4"/>
	<path class="st0" d="M361.2,279.6c-1.4-12.7,8.7-36.8,20.8-49"/>
	<path class="st0" d="M467.6,252.9c1.1,9.2,1.8,18.6,3.7,27.2"/>
	<path class="st0" d="M496,297.3c6.9-8.1,12.1-17.8,20-24.7c6.9-6.3,13.2-6.3,21.3-8.6c7.5,14.3,0,37.9-4,52.8
		c-1.7,5.7-6.3,20.6-6.3,20.6"/>
	<path class="st0" d="M540.8,317.4c7.3-14.6,25-31.8,41.8-40.1"/>
	<path class="st0" d="M517.6,432c2.9-18.4,14-45.2,23.7-61.2c5.7-10.3,18.3-33.3,29.3-38.4c2.3,14.3-6.9,33.8-9.8,48.2
		c-1.3,5.2-2,24.5-2.5,28.5"/>
	<path class="st0" d="M518.4,363.3c6.9-14.3,5.8-35,5.2-51c0-12.1-5.8-14.9-15.5-5.7c-13.7,13.2-18.4,41.8-25.8,56.8"/>
	<path class="st0" d="M498.3,320.3c-5.1-10.9-11.5-44.2-30.4-38.5c-6.9,2.3-16.1,14.9-16.1,19.5"/>
	<path class="st0" d="M454.7,335.2c-0.6-10.4-4-20.1-6.3-29.3c-1.7-5.2-3.4-22.4-8-25.8c-8-5.2-14.3,10.3-18.3,16.1
		c-9.8,13.7-16.1,27.5-24.1,41.3c6.9-12-25.2-49.3-37.3-50.5c-17.8-0.6-12,28.7-12.6,34.5"/>
	<path class="st2" d="M457.6,359.9c7.5-4,5.2,17.2-1.7,19.5C455.9,379.4,452.4,362.2,457.6,359.9z"/>
	<path class="st2" d="M443.8,374.8c-1.5-5.3-2.9-16.6,1.1-21.2C450.1,358.2,446.7,372.5,443.8,374.8z"/>
	<path class="st2" d="M430.6,334.6c4.6,2.3,4,14.9,4,19.5c0,2.3-1.7,13.2-2.8,9.8C431.8,363.9,422,330.6,430.6,334.6z"/>
	<path class="st2" d="M416.3,373.6c-0.5-5.5-3.4-17.2,1.7-21.2C422,357.6,420.3,371.9,416.3,373.6z"/>
	<path class="st2" d="M407.1,370.2c0-3.5-10.3-36.8-0.6-25.3C411.1,350.7,407.1,363.9,407.1,370.2z"/>
	<path class="st1" d="M417.7,522.2c29.8-16.6,178.4-60.8,210.6-68.3c20.1-5.2,47-15.5,67.7-10.3c18.4,4.6,25.2,19.5,8.6,31.5
		c-9.8,6.9-25.8,9.8-36.7,12.1c-18.3,2.9-36.7,5.2-54.5,8.6c-35.6,5.8-71.1,9.2-106.7,13.8c-24.7,3.4-47.5,9.9-71.7,16.6
		c-35,17.8-95.8,31-117-10.3c-3.4-6.9-9.2-18.3-0.6-22.4c7.5-3.5,20.6,4.6,26.4,8.6c12.6,8.1,22.9,15.5,37.9,18.4
		C393.6,522.8,406.2,525.7,417.7,522.2z"/>
	<path class="st0" d="M473.5,471.5c29.8-35.6,81.6-59.5,121.2-81.9c-11.5,10.4-14.9,32.7-21.2,45.9c-6.3,12.6-14.3,25.8-24.7,35
		c-27.5,24.7-70.6,38.4-106.7,41.9c-1.7,0-6.9,0-6.9,0"/>
	<path class="st1" d="M441,518.7c18.3-8.1,41.9,4,54.5,17.8c12.1,13.2,14.9,32.7,17.2,49.9c2.3,20.1,5.7,38.5,14.9,56.8
		c8.6,17.2,18.9,32.1,26.4,49.3c-7.5-4-13.8-13.7-20.1-20.1c-8.1-7.5-16.7-14.9-25.3-22.4c-16.6-16.6-38.4-28.7-51-48.1
		C446.1,583.5,423.7,537,441,518.7z"/>
	<path class="st0" d="M332,423.6"/>
	<path class="st0" d="M502.9,444.2c4-17.2,4.6-35,8-52.2c2.3-11.5,5.1-25.9,1.2-37.3c-5.2-16.6-14.9-4.6-20.7,5.2
		c-2.9,5.8-5.7,12.1-9.2,17.8c-1.8,3.5-5.2,8.6-3.5,8.6"/>
	<path class="st0" d="M424.8,503.9c-12.1-12.6-21.8-22.9-18.4-40.7c2.3-12.1,9.8-24.1,16.6-33.9c9.8-13.2,23.5-24.1,36.2-34.4
		c12.6-10.9,22.9-21.2,29.8,1.2c8.6,27.5-7.5,62-20.1,85.5c-6.3,12-16.6,24.7-27,33.3c-12,8.6-28.1,3.5-40.7-0.6
		c-14.4-4.6-39-9.2-47.7-23.5c-9.8-16-14.3-39-19.5-56.8c-5.7-18.9-10.3-38.5-9.7-58.5c0.6-11.5,2.3-41.3,20.1-27.5
		c12.6,9.8,18.9,33.3,24.1,47.6c5.8,14.9,9.2,30.4,12.6,45.3c2.9,12.1,13.8,49.4,6.9,57.4"/>
	<path class="st0" d="M320.7,486.8c0,0,32.7,33.5,41.8,20.5c9.1-13-27.4-75.3-27.4-75.3l-3.2-8.4c-2.3-4-4.7-7.9-7.2-11.9
		c-10.8-16.9-23.4-33.2-34.2-49.5c-5.8-9.2-13.8-25.8-24.1-31.6c-28.7-14.9-1.7,51.7,0,57.4c13.2,41.3,31,82.6,66,110.2
		c1.7,1.7,3.4,2.9,5.7,4"/>
</g>
</svg>
