<?xml version="1.0" encoding="utf-8"?>
<!-- Generator: Adobe Illustrator 28.0.0, SVG Export Plug-In . SVG Version: 6.00 Build 0)  -->
<svg version="1.1" id="Layer_3" xmlns="http://www.w3.org/2000/svg" xmlns:xlink="http://www.w3.org/1999/xlink" x="0px" y="0px"
	 viewBox="0 0 800 800" style="enable-background:new 0 0 800 800;" xml:space="preserve">
<style type="text/css">
	.st0{fill:#DB281F;stroke:#000000;stroke-width:3.6699;stroke-linecap:round;stroke-linejoin:round;stroke-miterlimit:10;}
	.st1{fill:#38BCA7;stroke:#231F20;stroke-width:3.6699;}
</style>
<g>
	<path class="st0" d="M301.1,281.9c6.2,4.5,9.3,11.2,13.4,17.6c-0.4-16.5-1.7-58.6,13.9-54c6.5,1.8,10.1,7.7,13.1,13.7
		c8.4-7.5,12.5-24.8,21.7-29.4c10.4-5.7,17.2,10.4,20.8,19.6c2.4-2.4,5-4.3,7.5-5.4c12.6-5.3,18.4,10.2,21.8,24
		c11.5-11.2,29.9-45.6,39.8-25c3.7,7.6,5.2,16.5,6.3,25.5c10.1-11.5,27.1-22.3,38.7-15.4c10.1,5.6,9.2,18,12.7,27.7
		c-0.4-0.4,2.4,7.1,3.7,10.4c11.5-10.5,34.3-30,41.6-27.9c6.6,2.1,5.2,17.7,4.5,27.3c2.6-1.3,5.1-2.3,7.6-3.1
		c17.7-5,7.6,26.3,4.5,35.3c-5,15.7-11.6,31.8-19.7,46.5c-2.1,4.1-14.5,37.5-14.2,41c0.5,6-42.8,86.5-129.7,84.4
		c-80.9-1.9-91.8-90-94.9-111.5c-4.9-17.1-10.7-33.7-13.6-50.8C298.6,323.3,293.1,289,301.1,281.9z"/>
	<path class="st1" d="M280.9,426.8c-4-3-9.6-4-14.6-5.1c-22.7-6.1-45.9-8.1-68.7-14.1c-8.6-2.5-52-23.2-51-7.1
		c0.5,7.1,10.1,16.7,15.1,21.2c15.1,14.1,35.3,23.3,54.5,31.8c16.2,7.1,33.8,11.6,50.5,17.7c10.6,3.5,22.7,6.1,31.8,13.6
		c0,0,22.2,26.8,52.3,18.8c30.1-8.1,24.8-50.2-11.4-61.6C303.3,430.7,280.9,426.8,280.9,426.8"/>
	<path class="st0" d="M314.3,298.5c1.4,4.7,6.5,9.2,8.6,11.7"/>
	<path class="st0" d="M314.8,384.9"/>
	<path class="st0" d="M427.3,416.2c-4.6-10.6-13.1-20.7-19.7-29.8c-4-6-8.1-16.6-15.1-19.7c-10.6-5.5-22.7,12.6-25.2,21.2"/>
	<path class="st0" d="M451.6,398c-2.5,1.5-14.1-16.1-19.2-18.1c-8.1-3.5-22.7,11.6-20.2,12.6"/>
	<path class="st1" d="M389.5,516.2c-20.2,0-35.3,24.2-49,36.8c-10.6,10.1-23.2,19.7-37.9,22.2c-22.7,3-43.4-5.6-64.1-15.1
		c-14.1-6.6-31.3-9.6-44.4-18.2c-5.6-3-10.6-8.1-9.6-14.7c1-11.1,14.6-13.1,23.2-15.1c19.7-5.6,39.4-7.6,57.1-16.6
		c13.1-6.6,27.3-10.6,42.4-9.6c8.1,1,38.4,5.6,41.9,11.6L389.5,516.2z"/>
	<path class="st1" d="M334.5,483.3c-13.7,3.3-24.7-15.6-33.3-26.8c-6.1-8.1-10.6-17.6-16.7-25.7c-16.6-23.7-30.8-52-38.9-79.8
		c-3-11.1-4.5-22.7-6.6-34.3c-0.5-3.6-5.1-18.2-1.5-21.7c8.6-8.6,34.3,35.3,37.9,41.3c1.5,2.1,3.5,6.1,3.5,7.1
		c0,0,49.8,92.5,55.9,109.9C340.8,470.8,340.8,481.8,334.5,483.3z"/>
	<path class="st0" d="M342.5,350c0-8.1-4.6-52.5-18.2-32.8c-10.6,15.1,0,31.8,8.6,42.9"/>
	<path class="st0" d="M341.2,258.6c1.3,2.6,2.6,5.3,3.8,7.7c2,4.5,4.5,9.6,7.6,14.1c0.5,1.5,6.1,7.6,3.5,6.1"/>
	<path class="st0" d="M413.3,268.1c1.5,6.1,2.5,11.8,3.4,15.3"/>
	<path class="st0" d="M365.7,292.5c-1.2-11.1,7.6-32.3,18.3-43"/>
	<path class="st0" d="M459.4,269.1c1,8.1,1.6,16.4,3.3,23.9"/>
	<path class="st0" d="M484.4,308.2c6.1-7.1,10.6-15.7,17.7-21.7c6-5.5,11.6-5.5,18.7-7.6c6.6,12.6,0,33.3-3.5,46.4
		c-1.5,5.1-5.6,18.2-5.6,18.2"/>
	<path class="st0" d="M523.8,325.8c6.5-12.9,22-28,36.8-35.3"/>
	<path class="st0" d="M503.4,426.7c2.5-16.1,12.3-39.7,20.9-53.9c5.1-9.1,16.2-29.3,25.8-33.8c2,12.6-6.1,29.8-8.6,42.4
		c-1.1,4.6-1.8,21.6-2.2,25.1"/>
	<path class="st0" d="M504.1,366.2c6.1-12.6,5-30.8,4.5-44.9c0-10.6-5.1-13.1-13.6-5.1c-12.1,11.6-16.1,36.9-22.7,50"/>
	<path class="st0" d="M486.4,328.4c-4.6-9.6-10.1-38.9-26.8-33.9c-6,2.1-14.1,13.1-14.1,17.2"/>
	<path class="st0" d="M448.1,341.5c-0.5-9.1-3.6-17.7-5.6-25.7c-1.5-4.6-3-19.7-7.1-22.7c-7.1-4.6-12.6,9.1-16.2,14.1
		c-8.6,12.1-14.1,24.2-21.2,36.3c6.1-10.6-22.2-43.4-32.8-44.4c-15.6-0.5-10.6,25.3-11.1,30.3"/>
	<path class="st0" d="M450.6,363.2c6.6-3.5,4.5,15.2-1.5,17.2C449.1,380.4,446,365.2,450.6,363.2z"/>
	<path class="st0" d="M438.4,376.3c-1.3-4.7-2.5-14.6,1-18.7C444,361.7,441,374.3,438.4,376.3z"/>
	<path class="st0" d="M426.8,341c4,2,3.5,13.1,3.5,17.2c0,2-1.5,11.6-2.5,8.6C427.9,366.7,419.3,337.4,426.8,341z"/>
	<path class="st0" d="M414.2,375.3c-0.5-4.8-3.1-15.2,1.5-18.7C419.3,361.2,417.7,373.8,414.2,375.3z"/>
	<path class="st0" d="M406.1,372.3c0-3-9.1-32.3-0.5-22.2C409.7,355.1,406.1,366.7,406.1,372.3z"/>
	<path class="st1" d="M415.4,506.1c26.3-14.6,157-53.5,185.3-60.1c17.7-4.5,41.4-13.6,59.6-9.1c16.1,4,22.2,17.1,7.6,27.7
		c-8.6,6.1-22.7,8.6-32.3,10.6c-16.1,2.5-32.3,4.5-48,7.6c-31.3,5.1-62.6,8.1-93.9,12.1c-21.7,3-41.8,8.7-63.1,14.7
		c-30.8,15.6-84.3,27.3-103-9.1c-3-6.1-8.1-16.1-0.5-19.7c6.6-3.1,18.2,4,23.2,7.6c11.1,7.1,20.2,13.6,33.3,16.1
		C394.2,506.6,405.4,509.1,415.4,506.1z"/>
	<path class="st0" d="M464.6,461.5c26.3-31.3,71.8-52.3,106.6-72c-10.1,9.1-13.1,28.8-18.7,40.4c-5.6,11.1-12.6,22.7-21.7,30.8
		c-24.3,21.7-62.1,33.8-93.9,36.8c-1.5,0-6.1,0-6.1,0"/>
	<path class="st1" d="M435.9,502.9c16.2-7.1,36.9,3.5,48,15.6c10.6,11.6,13.1,28.8,15.1,43.9c2,17.6,5.1,33.8,13.1,50
		c7.6,15.1,16.6,28.3,23.2,43.4c-6.6-3.5-12.1-12.1-17.7-17.6c-7.1-6.6-14.6-13.1-22.2-19.7c-14.6-14.6-33.8-25.3-44.9-42.4
		C440.5,559.9,420.8,519.1,435.9,502.9z"/>
	<path class="st0" d="M340,419.2"/>
	<path class="st0" d="M490.5,437.4c3.5-15.1,4-30.8,7.1-45.9c2-10.1,4.5-22.8,1-32.8c-4.5-14.6-13.1-4-18.2,4.6
		c-2.5,5.1-5,10.6-8.1,15.7c-1.5,3-4.6,7.5-3,7.5"/>
	<path class="st0" d="M421.7,489.9c-10.6-11.1-19.2-20.2-16.2-35.8c2-10.6,8.6-21.2,14.6-29.8c8.6-11.6,20.7-21.2,31.8-30.3
		c11.1-9.6,20.2-18.7,26.3,1c7.6,24.2-6.6,54.5-17.7,75.2c-5.6,10.6-14.6,21.7-23.7,29.3c-10.6,7.6-24.8,3-35.8-0.5
		c-12.6-4-34.3-8.1-41.9-20.7c-8.6-14.1-12.6-34.3-17.2-50c-5.1-16.6-9.1-33.8-8.6-51.5c0.5-10.1,2-36.3,17.7-24.2
		c11.1,8.6,16.7,29.3,21.2,41.9c5.1,13.1,8.1,26.8,11.1,39.9c2.5,10.6,12.1,43.4,6.1,50.5"/>
	<path class="st0" d="M330.1,474.8c0,0,28.8,29.4,36.8,18.1c8-11.4-24.1-66.3-24.1-66.3l-2.8-7.4c-2-3.5-4.1-7-6.3-10.4
		c-9.5-14.9-20.6-29.3-30.1-43.6c-5.1-8.1-12.1-22.8-21.2-27.8c-25.3-13.1-1.5,45.5,0,50.5c11.6,36.4,27.3,72.7,58,96.9
		c1.5,1.5,3,2.5,5.1,3.5"/>
</g>
</svg>
