<?xml version="1.0" encoding="utf-8"?>
<!-- Generator: Adobe Illustrator 28.0.0, SVG Export Plug-In . SVG Version: 6.00 Build 0)  -->
<svg version="1.1" id="Layer_3" xmlns="http://www.w3.org/2000/svg" xmlns:xlink="http://www.w3.org/1999/xlink" x="0px" y="0px"
	 viewBox="0 0 800 800" style="enable-background:new 0 0 800 800;" xml:space="preserve">
<style type="text/css">
	.st0{fill-rule:evenodd;clip-rule:evenodd;fill:#38BCA7;stroke:#231F20;stroke-width:1.8893;}
	.st1{fill-rule:evenodd;clip-rule:evenodd;fill:#321E2B;stroke:#000000;stroke-width:1.8893;stroke-miterlimit:10;}
	.st2{fill-rule:evenodd;clip-rule:evenodd;fill:#DAC89C;stroke:#000000;stroke-width:1.8893;stroke-miterlimit:10;}
	.st3{fill-rule:evenodd;clip-rule:evenodd;fill:#DF5112;stroke:#000000;stroke-width:1.8893;stroke-miterlimit:10;}
	.st4{fill-rule:evenodd;clip-rule:evenodd;fill:#F3DBB4;stroke:#231F20;stroke-width:1.8893;}
	.st5{fill-rule:evenodd;clip-rule:evenodd;fill:#46C5DF;stroke:#231F20;stroke-width:1.8893;}
</style>
<g>
	<g>
		<path class="st0" d="M457.9,686.7c0-19.1-21.7-69.6-21.7-69.6l-82.9,0.9c0,0-21.7,37.8-21.7,68.7c0,30.9,63.1,63.1,63.1,63.1
			S457.9,717.6,457.9,686.7z"/>
		<path class="st1" d="M449.2,687.8c0-16.1-19.4-62.4-19.4-62.4l-70,0.8c0,0-19.4,35.6-19.4,61.6c0,26.1,54.4,52.1,54.4,52.1
			S449.2,713.8,449.2,687.8z"/>
		<path class="st0" d="M442.3,678.4c0-13.8-17.6-60.9-17.6-60.9l-59.9,0.6c0,0-17.6,37.9-17.6,60.2c0,22.3,26.6,50.7,47.6,50.7
			C415.8,729.2,442.3,700.7,442.3,678.4z"/>
		<path class="st2" d="M434.5,674.9c0-11.1-15.6-48.1-15.6-48.1l-48.2,0.5c0,0-15.6,29.6-15.6,47.5c0,17.9,26.2,40.9,39.7,40.9
			C408.3,715.7,434.5,692.8,434.5,674.9z"/>
		<path class="st0" d="M422.4,668c0-9.4-7.4-30.5-7.4-30.5L374,638c0,0-6.9,14.8-6.9,30c0,15.2,9.7,34.7,27.6,34.7
			C412.6,702.7,422.4,683.2,422.4,668z"/>
		<path class="st3" d="M407.1,668.6c0-4.2-3.2-12.5-3.2-12.5l-18.3,0.2c0,0-3.2,5.5-3.2,12.3c0,6.8,5.6,15.5,12.3,15.5
			C401.5,684.1,407.1,675.4,407.1,668.6z"/>
	</g>
	<g>
		<path class="st0" d="M340.2,678.2c7.8-17.5,8.5-72.4,8.5-72.4l-76.1-32.9c0,0-35.2,25.8-47.8,54c-12.6,28.2,32,83.4,32,83.4
			S327.6,706.4,340.2,678.2z"/>
		<path class="st1" d="M331.8,675.6c6.6-14.8,7.6-64.9,7.6-64.9l-64.3-27.8c0,0-32.2,24.6-42.8,48.4c-10.6,23.8,28.5,69.8,28.5,69.8
			S321.2,699.4,331.8,675.6z"/>
		<path class="st0" d="M329.4,664.3c5.6-12.6,8.6-62.8,8.6-62.8l-55-23.7c0,0-31.5,27.5-40.6,47.8c-9,20.4,3.6,57.2,22.8,65.7
			C284.5,699.8,320.3,684.6,329.4,664.3z"/>
		<path class="st2" d="M323.6,657.8c4.5-10.2,5.3-50.3,5.3-50.3l-44.3-19.1c0,0-26.3,20.7-33.6,37.1c-7.3,16.4,7.3,48,19.6,53.5
			C283.1,684.5,316.4,674.2,323.6,657.8z"/>
		<path class="st0" d="M315.4,646.6c3.8-8.6,5.6-30.8,5.6-30.8l-37.6-16.3c0,0-12.3,10.7-18.5,24.6c-6.2,13.9-5.2,35.7,11.1,42.9
			C292.4,674.4,309.2,660.5,315.4,646.6z"/>
		<path class="st3" d="M301.2,641c1.7-3.9,2.2-12.7,2.2-12.7l-16.8-7.2c0,0-5.1,3.7-7.9,9.9c-2.8,6.2-1.2,16.4,5,19.2
			C289.7,652.9,298.4,647.2,301.2,641z"/>
	</g>
	<g>
		<path class="st0" d="M230.3,632.7c14.2-12.8,37.2-62.7,37.2-62.7l-56.1-61c0,0-42.6,9.2-65.6,29.9c-23,20.6-4.7,89.2-4.7,89.2
			S207.3,653.3,230.3,632.7z"/>
		<path class="st1" d="M223.7,626.9c12-10.8,33.4-56.2,33.4-56.2l-47.4-51.5c0,0-39.4,9.4-58.8,26.8c-19.4,17.4-2.3,75.3-2.3,75.3
			S204.3,644.3,223.7,626.9z"/>
		<path class="st0" d="M226,615.5c10.3-9.2,33.4-53.8,33.4-53.8l-40.5-44c0,0-40,12.3-56.5,27.2c-16.6,14.9-20,53.7-5.9,69.3
			C170.6,629.8,209.5,630.5,226,615.5z"/>
		<path class="st2" d="M223.4,607.3c8.3-7.4,25.3-43.8,25.3-43.8l-32.7-35.5c0,0-32.4,8.2-45.8,20.2c-13.3,12-12.9,46.8-3.8,56.9
			C175.5,615.2,210.1,619.3,223.4,607.3z"/>
		<path class="st0" d="M220.4,593.7c7-6.3,17.7-25.9,17.7-25.9l-27.7-30.1c0,0-15.6,4.8-26.9,15c-11.3,10.2-19.3,30.5-7.3,43.7
			C188.1,609.7,209.1,603.9,220.4,593.7z"/>
		<path class="st3" d="M209.7,582.8c3.1-2.8,7.2-10.7,7.2-10.7l-12.4-13.4c0,0-6.2,1.3-11.3,5.9c-5,4.6-7.8,14.5-3.3,19.5
			C194.5,589,204.7,587.4,209.7,582.8z"/>
	</g>
	<g>
		<path class="st0" d="M148.9,548.1c18.2-5.9,59.5-42.1,59.5-42.1l-26.5-78.6c0,0-42.7-8.9-72.1,0.6c-29.4,9.5-40.5,79.5-40.5,79.5
			S119.5,557.7,148.9,548.1z"/>
		<path class="st1" d="M145.2,540.1c15.4-5,53.3-37.7,53.3-37.7L176.2,436c0,0-39.8-7.5-64.6,0.6c-24.8,8-32.8,67.9-32.8,67.9
			S120.4,548.2,145.2,540.1z"/>
		<path class="st0" d="M152,530.7c13.1-4.3,52.4-35.6,52.4-35.6l-19.1-56.7c0,0-41.5-5.1-62.7,1.8c-21.2,6.9-40.1,40.9-33.6,60.9
			C95.5,521.2,130.8,537.6,152,530.7z"/>
		<path class="st2" d="M152.9,522.2c10.6-3.4,40.9-29.7,40.9-29.7l-15.4-45.7c0,0-32.9-5.7-50-0.1c-17.1,5.5-30.8,37.5-26.6,50.4
			C106,509.9,135.9,527.7,152.9,522.2z"/>
		<path class="st0" d="M155.7,508.5c9-2.9,26.7-16.4,26.7-16.4l-13.1-38.8c0,0-16.2-2-30.7,2.7c-14.5,4.7-30,20-24.5,37
			C119.7,510,141.2,513.2,155.7,508.5z"/>
		<path class="st3" d="M150.4,494.2c4-1.3,10.9-6.9,10.9-6.9l-5.8-17.3c0,0-6.2-1.3-12.7,0.8c-6.5,2.1-13,10.1-10.9,16.5
			C133.9,493.7,143.9,496.3,150.4,494.2z"/>
	</g>
	<g>
		<path class="st0" d="M110.7,434c19,2,71.5-14.3,71.5-14.3l7.8-82.6c0,0-35.4-25.5-66.1-28.7c-30.7-3.2-69.4,56.2-69.4,56.2
			S80.1,430.7,110.7,434z"/>
		<path class="st1" d="M110.6,425.2c16.1,1.7,64.1-12.8,64.1-12.8l6.6-69.7c0,0-33.3-23-59.3-25.7c-25.9-2.7-57.6,48.7-57.6,48.7
			S84.7,422.5,110.6,425.2z"/>
		<path class="st0" d="M120.7,419.3c13.7,1.4,62.4-11.2,62.4-11.2l5.6-59.6c0,0-35.9-21.5-58-23.8c-22.2-2.3-53.3,21.1-55.4,42
			C73,387.7,98.5,417,120.7,419.3z"/>
		<path class="st2" d="M125,411.9c11.1,1.2,49.4-10.5,49.4-10.5l4.5-48c0,0-27.8-18.6-45.6-20.5c-17.8-1.9-43.4,21.8-44.8,35.2
			C87.1,381.6,107.2,410,125,411.9z"/>
		<path class="st0" d="M133.1,400.6c9.4,1,31-4.2,31-4.2l3.9-40.8c0,0-14-8.4-29.1-10c-15.2-1.6-35.5,6.1-37.4,23.8
			C99.6,387.3,117.9,399,133.1,400.6z"/>
		<path class="st4" d="M134.1,385.3c4.2,0.4,12.8-1.9,12.8-1.9l1.7-18.2c0,0-5.2-3.7-11.9-4.4c-6.8-0.7-16,3.9-16.7,10.6
			C119.2,378.2,127.3,384.6,134.1,385.3z"/>
	</g>
	<g>
		<path class="st0" d="M118.4,315.4c16.6,9.6,71.1,16.1,71.1,16.1l40.7-72.3c0,0-21.9-37.7-48.7-53.1
			c-26.7-15.4-86.2,23.1-86.2,23.1S91.6,299.9,118.4,315.4z"/>
		<path class="st1" d="M121.9,307.3c14,8.1,63.7,14.4,63.7,14.4l34.3-61c0,0-21.1-34.6-43.7-47.6c-22.6-13-72.4,21-72.4,21
			S99.3,294.3,121.9,307.3z"/>
		<path class="st0" d="M133.4,306.1c12,6.9,61.5,15.1,61.5,15.1l29.4-52.2c0,0-24-34.2-43.3-45.4c-19.3-11.1-57.3-2.4-67.8,15.8
			C102.7,257.7,114.1,294.9,133.4,306.1z"/>
		<path class="st2" d="M140.4,301c9.6,5.6,49.4,10.5,49.4,10.5l23.6-42c0,0-17.8-28.3-33.3-37.3c-15.5-9-48.5,2.2-55.3,13.9
			C118.1,258,124.9,292.1,140.4,301z"/>
		<path class="st0" d="M152.4,294c8.2,4.7,30.1,8.8,30.1,8.8l20.1-35.7c0,0-9.4-13.3-22.6-20.9c-13.2-7.6-34.9-8.9-43.9,6.5
			S139.2,286.4,152.4,294z"/>
		<path class="st4" d="M159.5,280.4c3.7,2.1,12.4,3.5,12.4,3.5l8.9-15.9c0,0-3.2-5.5-9.1-8.9c-5.9-3.4-16.2-2.9-19.6,2.9
			C148.8,267.9,153.6,277,159.5,280.4z"/>
	</g>
	<g>
		<path class="st0" d="M182.9,208.5c11.2,15.5,58.5,43.6,58.5,43.6l66.6-49.5c0,0-4.7-43.4-22.9-68.3c-18.2-25-88.2-14-88.2-14
			S164.7,183.5,182.9,208.5z"/>
		<path class="st1" d="M189.3,202.5c9.5,13.1,52.4,39.1,52.4,39.1l56.2-41.8c0,0-5.2-40.2-20.5-61.3c-15.3-21.1-74.7-10.2-74.7-10.2
			S174,181.4,189.3,202.5z"/>
		<path class="st0" d="M200.4,206.1c8.1,11.2,50,38.9,50,38.9l48-35.7c0,0-8-41-21.1-59.1c-13.1-18-51.3-25.5-68.3-13.1
			C192,149.4,187.3,188,200.4,206.1z"/>
		<path class="st2" d="M208.8,204.3c6.5,9,40.9,29.7,40.9,29.7l38.7-28.8c0,0-4.7-33.1-15.3-47.6c-10.5-14.5-45.2-17.7-56.1-9.7
			C206,155.9,198.3,189.8,208.8,204.3z"/>
		<path class="st0" d="M222.7,202.8c5.6,7.6,23.9,20.3,23.9,20.3l32.9-24.4c0,0-3.1-16-12.1-28.3c-9-12.3-28.3-22.4-42.7-11.9
			C210.1,168.9,213.7,190.4,222.7,202.8z"/>
		<path class="st4" d="M234.6,193.2c2.5,3.4,9.9,8.3,9.9,8.3l14.7-10.9c0,0-0.7-6.3-4.7-11.8c-4-5.5-13.6-9.2-19.1-5.3
			C230,177.4,230.6,187.8,234.6,193.2z"/>
	</g>
	<g>
		<path class="st0" d="M275.9,136.2c4,18.7,35.7,63.6,35.7,63.6l80.9-18.1c0,0,13.3-41.5,6.9-71.7c-6.4-30.2-74.9-48.6-74.9-48.6
			S269.4,106,275.9,136.2z"/>
		<path class="st1" d="M284.2,133.4c3.4,15.8,32,57,32,57l68.3-15.3c0,0,11.6-38.8,6.2-64.3c-5.4-25.5-64.1-39.7-64.1-39.7
			S278.7,107.9,284.2,133.4z"/>
		<path class="st0" d="M292.8,141.1c2.9,13.5,29.9,55.9,29.9,55.9l58.4-13.1c0,0,9.4-40.8,4.7-62.6c-4.6-21.8-36.5-44.1-57.1-39.8
			C308.2,86,288.2,119.3,292.8,141.1z"/>
		<path class="st2" d="M301.2,143c2.3,10.9,25.3,43.8,25.3,43.8l47-10.6c0,0,9.1-32.1,5.4-49.7c-3.7-17.6-34.1-34.5-47.3-31.7
			C318.3,97.6,297.5,125.4,301.2,143z"/>
		<path class="st0" d="M314.5,147.2c2,9.2,13.6,28.3,13.6,28.3l40-8.9c0,0,3.6-15.9,0.5-30.8c-3.2-14.9-16.7-31.9-34.2-28.2
			C316.8,111.2,311.3,132.3,314.5,147.2z"/>
		<path class="st4" d="M329.3,143.4c0.9,4.1,5.7,11.6,5.7,11.6l17.8-4c0,0,2-6.1,0.6-12.7c-1.4-6.6-8.7-14-15.3-12.6
			C331.5,127.1,327.9,136.7,329.3,143.4z"/>
	</g>
	<g>
		<path class="st0" d="M395.6,103.2c-4,18.7,6.7,72.6,6.7,72.6l81.3,16.4c0,0,29-32.5,35.5-62.7c6.4-30.2-48.6-74.9-48.6-74.9
			S402.1,73,395.6,103.2z"/>
		<path class="st1" d="M404.4,104c-3.4,15.8,6,65.1,6,65.1l68.6,13.8c0,0,26.4-30.8,31.8-56.3c5.4-25.5-42.4-62.3-42.4-62.3
			S409.8,78.5,404.4,104z"/>
		<path class="st0" d="M409.2,114.6c-2.9,13.5,4.6,63.2,4.6,63.2l58.7,11.8c0,0,25.1-33.4,29.8-55.2c4.6-21.8-15.4-55.2-36-59.5
			C445.7,70.4,413.8,92.8,409.2,114.6z"/>
		<path class="st2" d="M416.1,119.7c-2.3,10.9,5.3,50.3,5.3,50.3l47.3,9.5c0,0,21.4-25.7,25.2-43.2c3.7-17.6-17.1-45.4-30.3-48.2
			C450.2,85.1,419.8,102.1,416.1,119.7z"/>
		<path class="st0" d="M426.5,128.9c-2,9.2,0.9,31.3,0.9,31.3l40.2,8.1c0,0,9.8-13,12.9-27.9c3.2-14.9-2.3-36-19.8-39.7
			C443.2,97,429.7,114,426.5,128.9z"/>
		<path class="st4" d="M441.6,131.5c-0.9,4.1,0.5,12.9,0.5,12.9L460,148c0,0,4.3-4.8,5.7-11.4c1.4-6.6-2.2-16.3-8.8-17.7
			C450.3,117.5,443,124.8,441.6,131.5z"/>
	</g>
	<g>
		<path class="st0" d="M518.2,130.3c-11.3,15.5-23.4,69.1-23.4,69.1l67.6,48c0,0,39.8-17.9,57.9-42.9c18.2-25-14-88.2-14-88.2
			S536.3,105.3,518.2,130.3z"/>
		<path class="st1" d="M525.9,134.6c-9.5,13.1-21,61.9-21,61.9L562,237c0,0,36.6-17.4,51.9-38.5c15.3-21.1-13.4-74.2-13.4-74.2
			S541.2,113.5,525.9,134.6z"/>
		<path class="st0" d="M525.9,146.2c-8.1,11.2-21.5,59.6-21.5,59.6l48.8,34.7c0,0,36.6-20.3,49.7-38.3c13.1-18.1,8.3-56.7-8.7-69
			C577.2,120.7,539,128.2,525.9,146.2z"/>
		<path class="st2" d="M530.2,153.7c-6.6,9-15.6,48.1-15.6,48.1l39.3,27.9c0,0,30-14.7,40.5-29.3c10.6-14.5,2.9-48.5-8.1-56.4
			C575.3,136,540.7,139.2,530.2,153.7z"/>
		<path class="st0" d="M535.9,166.4c-5.6,7.6-11.9,29-11.9,29l33.4,23.7c0,0,14.2-7.9,23.2-20.2c9-12.3,12.5-33.8-1.9-44.3
			C564.2,144,544.9,154,535.9,166.4z"/>
		<path class="st4" d="M548.7,174.8c-2.5,3.4-4.8,12-4.8,12l14.9,10.6c0,0,5.8-2.6,9.8-8.1c4-5.5,4.6-15.8-0.9-19.8
			C562.3,165.6,552.6,169.3,548.7,174.8z"/>
	</g>
	<g>
		<path class="st0" d="M621.4,203.1c-16.6,9.6-49.5,53.6-49.5,53.6l42.2,71.4c0,0,43.6-0.2,70.4-15.6c26.7-15.4,23.1-86.2,23.1-86.2
			S648.1,187.7,621.4,203.1z"/>
		<path class="st1" d="M626.7,210.2c-14,8.1-44.3,48-44.3,48l35.7,60.2c0,0,40.5-1,63.1-14c22.6-13,17.9-73.2,17.9-73.2
			S649.2,197.1,626.7,210.2z"/>
		<path class="st0" d="M622,220.8c-12,6.9-43.9,45.7-43.9,45.7l30.5,51.5c0,0,41.7-3.7,61-14.8c19.3-11.2,30.7-48.4,20.2-66.6
			C679.2,218.4,641.3,209.6,622,220.8z"/>
		<path class="st2" d="M622.8,229.3c-9.6,5.6-33.8,37.6-33.8,37.6l24.6,41.5c0,0,33.4-1.2,48.9-10.2c15.5-9,22.3-43.1,15.5-54.9
			C671.3,231.6,638.4,220.4,622.8,229.3z"/>
		<path class="st0" d="M622.9,243.3c-8.2,4.7-22.7,21.6-22.7,21.6l20.9,35.2c0,0,16.2-1.4,29.4-9c13.2-7.6,25.2-25.8,16.3-41.3
			C657.9,234.3,636.1,235.7,622.9,243.3z"/>
		<path class="st4" d="M631.1,256.2c-3.7,2.1-9.2,9-9.2,9l9.3,15.7c0,0,6.4,0,12.2-3.4c5.9-3.4,10.6-12.6,7.3-18.5
			C647.3,253.3,637,252.8,631.1,256.2z"/>
	</g>
	<g>
		<path class="st0" d="M680.2,311.5c-19,2-67,28.8-67,28.8l9.6,82.4c0,0,39.9,17.6,70.6,14.4c30.7-3.2,56.2-69.4,56.2-69.4
			S710.9,308.2,680.2,311.5z"/>
		<path class="st1" d="M682.2,320c-16,1.7-60,25.8-60,25.8l8.1,69.5c0,0,37.4,15.6,63.3,12.9c25.9-2.7,46.2-59.6,46.2-59.6
			S708.1,317.3,682.2,320z"/>
		<path class="st0" d="M673.6,327.8c-13.7,1.4-58.7,23.9-58.7,23.9l6.9,59.5c0,0,39.6,13.6,61.7,11.3c22.2-2.3,47.7-31.7,45.5-52.6
			C726.8,348.9,695.7,325.5,673.6,327.8z"/>
		<path class="st2" d="M670.9,336c-11.1,1.2-46.2,20.5-46.2,20.5l5.6,47.9c0,0,31,12.4,48.9,10.5c17.8-1.9,37.9-30.3,36.5-43.8
			C714.3,357.7,688.7,334.1,670.9,336z"/>
		<path class="st0" d="M665.3,348.8c-9.4,1-29.5,10.5-29.5,10.5l4.7,40.7c0,0,15.4,5.3,30.6,3.7c15.2-1.6,33.5-13.3,31.6-31.1
			C700.8,354.8,680.5,347.2,665.3,348.8z"/>
		<path class="st3" d="M667.5,363.9c-4.2,0.4-12.1,4.5-12.1,4.5l2.1,18.2c0,0,5.8,2.6,12.6,1.9c6.8-0.7,14.8-7.2,14.1-13.9
			C683.5,367.8,674.3,363.2,667.5,363.9z"/>
	</g>
	<g>
		<path class="st0" d="M689,435.2c-18.2-5.9-72.9-0.9-72.9-0.9l-24.8,79.2c0,0,29.3,32.3,58.7,41.8c29.4,9.6,79.5-40.5,79.5-40.5
			S718.4,444.8,689,435.2z"/>
		<path class="st1" d="M687.3,443.8c-15.4-5-65.3-0.8-65.3-0.8l-20.9,66.8c0,0,27.8,29.4,52.6,37.5c24.8,8.1,66.4-35.6,66.4-35.6
			S712.1,451.9,687.3,443.8z"/>
		<path class="st0" d="M676.3,447.5c-13.1-4.3-63.3-2-63.3-2l-17.9,57.2c0,0,30.6,28.5,51.8,35.4c21.2,6.9,56.5-9.6,63-29.6
			C716.4,488.4,697.5,454.3,676.3,447.5z"/>
		<path class="st2" d="M670.5,453.8c-10.6-3.5-50.5,0-50.5,0l-14.4,46c0,0,23.3,24,40.4,29.5c17,5.6,47-12.3,51.1-25.1
			C701.3,491.3,687.6,459.4,670.5,453.8z"/>
		<path class="st0" d="M660.2,463.2c-9-2.9-31.2-2.4-31.2-2.4l-12.2,39.1c0,0,11.9,11.1,26.4,15.8c14.5,4.7,36,1.5,41.6-15.5
			C690.2,483.2,674.7,467.9,660.2,463.2z"/>
		<path class="st3" d="M656.1,478c-4-1.3-12.9-0.8-12.9-0.8l-5.5,17.4c0,0,4.3,4.8,10.7,6.8c6.5,2.1,16.5-0.5,18.6-6.9
			C669.1,488,662.6,480.1,656.1,478z"/>
	</g>
	<g>
		<path class="st0" d="M642.9,556c-14.2-12.8-66.2-30.5-66.2-30.5l-54.9,62.2c0,0,13.7,41.4,36.6,62.1c22.9,20.7,89.1-4.7,89.1-4.7
			S665.9,576.6,642.9,556z"/>
		<path class="st1" d="M637.9,563.1c-12-10.8-59.4-27.3-59.4-27.3l-46.3,52.5c0,0,13.5,38.2,32.8,55.7c19.4,17.4,75.2-5.6,75.2-5.6
			S657.2,580.6,637.9,563.1z"/>
		<path class="st0" d="M626.3,561.9c-10.3-9.2-57-27.6-57-27.6l-39.6,44.9c0,0,16.4,38.5,32.9,53.4c16.6,14.9,55.5,14.2,69.6-1.4
			C646.3,615.6,642.9,576.9,626.3,561.9z"/>
		<path class="st2" d="M618.4,565.4c-8.3-7.5-46.2-20.6-46.2-20.6L540.4,581c0,0,11.5,31.4,24.9,43.4c13.3,12,47.9,7.9,56.9-2.2
			C631.3,612.2,631.7,577.4,618.4,565.4z"/>
		<path class="st0" d="M605.2,569.8c-7-6.3-27.6-14.9-27.6-14.9l-27.1,30.7c0,0,6.4,15,17.7,25.2c11.3,10.2,32.3,16,44.3,2.7
			C624.5,600.3,616.5,580,605.2,569.8z"/>
		<path class="st3" d="M595.5,581.6c-3.1-2.8-11.4-6-11.4-6l-12.1,13.7c0,0,2,6.1,7,10.6c5.1,4.5,15.3,6.2,19.8,1.2
			C603.2,596.1,600.5,586.1,595.5,581.6z"/>
	</g>
	<g>
		<path class="st0" d="M570.8,637.6c-7.8-17.5-48.1-54.8-48.1-54.8l-75.4,34.6c0,0-4.4,43.4,8.2,71.6c12.6,28.2,83.4,32,83.4,32
			S583.3,665.8,570.8,637.6z"/>
		<path class="st1" d="M563.2,642.1c-6.6-14.7-43.1-49.1-43.1-49.1l-63.6,29.2c0,0-3.3,40.4,7.3,64.2c10.6,23.8,70.9,25.5,70.9,25.5
			S573.9,665.9,563.2,642.1z"/>
		<path class="st0" d="M553.2,636.3c-5.6-12.6-40.9-48.4-40.9-48.4l-54.4,25c0,0-0.7,41.8,8.4,62.2c9.1,20.4,44.9,35.6,64.1,27
			C549.5,693.5,562.2,656.7,553.2,636.3z"/>
		<path class="st2" d="M544.5,636.3c-4.5-10.2-33.8-37.6-33.8-37.6l-43.8,20.1c0,0-2.3,33.4,5.1,49.8c7.3,16.4,40.5,26.7,52.9,21.2
			C537.3,684.3,551.8,652.7,544.5,636.3z"/>
		<path class="st0" d="M530.7,635c-3.8-8.6-19.1-24.8-19.1-24.8l-37.2,17.1c0,0-0.3,16.3,5.9,30.2c6.2,13.9,23,27.8,39.4,20.5
			C535.9,670.6,536.9,648.9,530.7,635z"/>
		<path class="st3" d="M517,641.8c-1.7-3.9-8-10.1-8-10.1l-16.6,7.6c0,0-0.7,6.3,2.1,12.5c2.8,6.2,11.4,11.9,17.6,9.2
			C518.2,658.2,519.7,648,517,641.8z"/>
	</g>
	<path class="st0" d="M672.4,396.5c0-148.8-120.6-269.4-269.4-269.4c-148.7,0-269.3,120.6-269.3,269.4
		c0,148.8,120.6,269.4,269.3,269.4C551.8,665.9,672.4,545.3,672.4,396.5z"/>
	<path class="st1" d="M656.3,396.5c0-139.9-113.4-253.3-253.3-253.3c-139.9,0-253.3,113.4-253.3,253.3
		c0,139.9,113.4,253.3,253.3,253.3C542.9,649.8,656.3,536.4,656.3,396.5z"/>
	<path class="st5" d="M636.7,396.5c0-129.1-104.6-233.7-233.7-233.7c-129,0-233.6,104.6-233.6,233.7c0,129,104.6,233.7,233.6,233.7
		C532.1,630.2,636.7,525.5,636.7,396.5z"/>
	<g>
		<path class="st0" d="M436.8,580c0-11.9-13.5-43.4-13.5-43.4l-51.7,0.6c0,0-13.5,23.6-13.5,42.8c0,19.2,22.2,39.3,39.3,39.3
			C414.6,619.3,436.8,599.2,436.8,580z"/>
		<path class="st2" d="M431.3,580.6c0-10-12.1-38.9-12.1-38.9l-43.6,0.5c0,0-12.1,22.2-12.1,38.4c0,16.3,21.7,32.5,33.9,32.5
			C409.6,613.1,431.3,596.9,431.3,580.6z"/>
		<path class="st0" d="M427.1,574.8c0-8.6-11-37.9-11-37.9l-37.3,0.4c0,0-11,23.6-11,37.5c0,13.9,16.5,31.6,29.6,31.6
			C410.5,606.4,427.1,588.7,427.1,574.8z"/>
		<path class="st2" d="M422.2,572.6c0-6.9-9.7-30-9.7-30l-30,0.3c0,0-9.7,18.4-9.7,29.6c0,11.2,16.3,25.5,24.7,25.5
			C405.8,598.1,422.2,583.8,422.2,572.6z"/>
		<path class="st0" d="M414.6,568.3c0-5.9-4.6-19-4.6-19l-25.5,0.3c0,0-4.3,9.2-4.3,18.7c0,9.5,6.1,21.7,17.2,21.7
			C408.6,589.9,414.6,577.8,414.6,568.3z"/>
		<path class="st2" d="M405.1,568.7c0-2.6-2-7.8-2-7.8l-11.4,0.1c0,0-2,3.4-2,7.7c0,4.2,3.5,9.7,7.7,9.7
			C401.6,578.3,405.1,572.9,405.1,568.7z"/>
	</g>
	<g>
		<path class="st0" d="M363.4,574.6c4.8-10.9,5.3-45.1,5.3-45.1L321.3,509c0,0-21.9,16.1-29.8,33.7c-7.8,17.6,4.3,45,19.9,51.9
			C327.2,601.6,355.6,592.2,363.4,574.6z"/>
		<path class="st2" d="M358.2,573c4.1-9.2,4.8-40.5,4.8-40.5l-40-17.3c0,0-20.1,15.3-26.7,30.2c-6.6,14.8,6.7,38.6,17.8,43.5
			C325.1,593.9,351.6,587.9,358.2,573z"/>
		<path class="st0" d="M356.7,566c3.5-7.9,5.4-39.1,5.4-39.1L327.8,512c0,0-19.7,17.1-25.3,29.8c-5.7,12.7,2.3,35.6,14.2,41
			C328.7,588.1,351,578.6,356.7,566z"/>
		<path class="st2" d="M353.1,561.9c2.8-6.3,3.3-31.3,3.3-31.3l-27.6-11.9c0,0-16.4,12.9-20.9,23.1c-4.6,10.2,4.5,29.9,12.3,33.3
			C327.8,578.6,348.5,572.1,353.1,561.9z"/>
		<path class="st0" d="M347.9,555c2.4-5.4,3.5-19.2,3.5-19.2L328,525.6c0,0-7.6,6.7-11.5,15.3c-3.9,8.7-3.3,22.3,6.9,26.8
			C333.6,572.3,344.1,563.6,347.9,555z"/>
		<path class="st2" d="M339.1,551.5c1.1-2.4,1.4-7.9,1.4-7.9L330,539c0,0-3.2,2.3-4.9,6.2c-1.7,3.9-0.8,10.2,3.1,11.9
			C332,558.9,337.3,555.4,339.1,551.5z"/>
	</g>
	<g>
		<path class="st0" d="M294.9,546.3c8.9-8,23.2-39.1,23.2-39.1l-35-38.1c0,0-26.6,5.8-40.9,18.6c-14.3,12.9-14.4,42.8-2.9,55.6
			C250.8,556.1,280.6,559.2,294.9,546.3z"/>
		<path class="st2" d="M290.8,542.7c7.5-6.7,20.8-35,20.8-35L282,475.6c0,0-24.6,5.8-36.6,16.7c-12.1,10.9-9.6,37.9-1.5,47
			C252.1,548.3,278.7,553.6,290.8,542.7z"/>
		<path class="st0" d="M292.3,535.6c6.4-5.7,20.8-33.6,20.8-33.6l-25.3-27.5c0,0-24.9,7.6-35.2,16.9c-10.3,9.3-12.5,33.5-3.7,43.2
			C257.7,544.5,282,544.9,292.3,535.6z"/>
		<path class="st2" d="M290.6,530.5c5.2-4.6,15.8-27.3,15.8-27.3l-20.3-22.1c0,0-20.2,5.1-28.5,12.6c-8.3,7.5-8,29.2-2.4,35.4
			C260.8,535.4,282.3,538,290.6,530.5z"/>
		<path class="st0" d="M288.8,522c4.4-3.9,11-16.1,11-16.1l-17.3-18.8c0,0-9.7,3-16.8,9.3c-7.1,6.4-12,19-4.6,27.3
			C268.6,532,281.7,528.4,288.8,522z"/>
		<path class="st2" d="M282.1,515.2c2-1.8,4.5-6.7,4.5-6.7l-7.7-8.4c0,0-3.9,0.8-7,3.6c-3.1,2.8-4.8,9.1-2,12.2
			C272.6,519.1,278.9,518,282.1,515.2z"/>
	</g>
	<g>
		<path class="st0" d="M244.2,493.6c11.4-3.7,37.1-26.3,37.1-26.3l-16.5-49c0,0-26.6-5.6-44.9,0.4c-18.3,5.9-30.6,33.3-25.3,49.6
			C199.9,484.6,225.9,499.5,244.2,493.6z"/>
		<path class="st2" d="M241.9,488.6c9.6-3.1,33.3-23.5,33.3-23.5l-13.9-41.3c0,0-24.8-4.7-40.3,0.4c-15.5,5-24.2,30.7-20.4,42.3
			C204.2,477.9,226.4,493.6,241.9,488.6z"/>
		<path class="st0" d="M246.1,482.8c8.2-2.7,32.7-22.2,32.7-22.2l-11.9-35.4c0,0-25.9-3.1-39.1,1.2c-13.2,4.3-25,25.5-20.9,38
			C210.9,476.8,232.9,487,246.1,482.8z"/>
		<path class="st2" d="M246.7,477.4c6.6-2.1,25.5-18.5,25.5-18.5l-9.6-28.5c0,0-20.5-3.6-31.2-0.1c-10.6,3.5-19.2,23.4-16.6,31.4
			C217.4,469.8,236.1,480.9,246.7,477.4z"/>
		<path class="st0" d="M248.4,468.9c5.6-1.8,16.6-10.2,16.6-10.2l-8.2-24.2c0,0-10.1-1.2-19.1,1.7c-9,3-18.7,12.5-15.3,23.1
			C226,469.8,239.4,471.9,248.4,468.9z"/>
		<path class="st2" d="M245.1,460c2.5-0.8,6.8-4.3,6.8-4.3l-3.7-10.8c0,0-3.9-0.8-7.9,0.5c-4,1.3-8.1,6.3-6.8,10.3
			C234.9,459.6,241.1,461.3,245.1,460z"/>
	</g>
	<g>
		<path class="st0" d="M220.4,422.4c11.9,1.3,44.6-8.9,44.6-8.9l4.9-51.5c0,0-22.1-15.9-41.2-17.9c-19.1-2-41.4,17.9-43.2,35
			C183.6,396.3,201.3,420.4,220.4,422.4z"/>
		<path class="st2" d="M220.3,417c10,1.1,39.9-7.9,39.9-7.9l4.1-43.4c0,0-20.8-14.3-36.9-16c-16.1-1.7-34.6,18.2-35.9,30.3
			C190.3,391.9,204.2,415.3,220.3,417z"/>
		<path class="st0" d="M226.6,413.3c8.6,0.9,38.9-7,38.9-7l3.5-37.1c0,0-22.3-13.4-36.2-14.9c-13.8-1.4-33.2,13.2-34.6,26.2
			C196.9,393.6,212.8,411.9,226.6,413.3z"/>
		<path class="st2" d="M229.3,408.7c6.9,0.7,30.8-6.5,30.8-6.5l2.8-29.9c0,0-17.3-11.6-28.4-12.8c-11.1-1.2-27,13.6-27.9,22
			C205.7,389.8,218.2,407.5,229.3,408.7z"/>
		<path class="st0" d="M234.4,401.6c5.8,0.6,19.4-2.6,19.4-2.6l2.4-25.4c0,0-8.7-5.2-18.1-6.2c-9.4-1-22.2,3.8-23.3,14.8
			C213.5,393.4,224.9,400.7,234.4,401.6z"/>
		<path class="st2" d="M234.9,392.1c2.6,0.3,8-1.2,8-1.2l1.1-11.3c0,0-3.2-2.3-7.4-2.8c-4.2-0.5-10,2.5-10.4,6.6
			C225.7,387.7,230.7,391.7,234.9,392.1z"/>
	</g>
	<g>
		<path class="st0" d="M225.2,348.6c10.3,6,44.3,10,44.3,10l25.3-45.1c0,0-13.7-23.5-30.3-33.1c-16.7-9.6-45.2-0.5-53.7,14.4
			C202.2,309.7,208.5,338.9,225.2,348.6z"/>
		<path class="st2" d="M227.3,343.5c8.7,5,39.7,9,39.7,9l21.4-38c0,0-13.2-21.6-27.2-29.7c-14.1-8.1-39,2.6-45.1,13.1
			C210,308.4,213.3,335.4,227.3,343.5z"/>
		<path class="st0" d="M234.5,342.8c7.5,4.3,38.3,9.4,38.3,9.4l18.3-32.5c0,0-15-21.3-27-28.3c-12-7-35.7-1.5-42.2,9.8
			C215.4,312.6,222.5,335.8,234.5,342.8z"/>
		<path class="st2" d="M238.9,339.6c6,3.5,30.8,6.6,30.8,6.6l14.7-26.2c0,0-11.1-17.6-20.8-23.2c-9.7-5.6-30.2,1.4-34.4,8.7
			C225,312.7,229.2,334,238.9,339.6z"/>
		<path class="st0" d="M246.4,335.2c5.1,3,18.7,5.5,18.7,5.5l12.5-22.3c0,0-5.8-8.3-14.1-13.1c-8.2-4.7-21.8-5.6-27.3,4.1
			C230.7,319.2,238.1,330.5,246.4,335.2z"/>
		<path class="st2" d="M250.8,326.8c2.3,1.3,7.7,2.2,7.7,2.2l5.6-9.9c0,0-2-3.4-5.7-5.5c-3.6-2.1-10.1-1.8-12.2,1.8
			C244.1,318.9,247.1,324.6,250.8,326.8z"/>
	</g>
	<g>
		<path class="st0" d="M265.4,281.9c7,9.7,36.4,27.2,36.4,27.2l41.5-30.8c0,0-3-27-14.3-42.6c-11.3-15.6-41.1-18.8-55-8.7
			C260.2,237.1,254.1,266.4,265.4,281.9z"/>
		<path class="st2" d="M269.4,278.2c5.9,8.1,32.7,24.4,32.7,24.4l35-26c0,0-3.2-25-12.8-38.2c-9.6-13.2-36.7-13.5-46.5-6.4
			C267.9,239.1,259.8,265.1,269.4,278.2z"/>
		<path class="st0" d="M276.3,280.4c5.1,7,31.2,24.2,31.2,24.2l29.9-22.3c0,0-5-25.6-13.2-36.8c-8.2-11.2-32-15.9-42.6-8.2
			C271.1,245.1,268.1,269.2,276.3,280.4z"/>
		<path class="st2" d="M281.5,279.3c4.1,5.6,25.5,18.5,25.5,18.5l24.1-17.9c0,0-3-20.6-9.5-29.7c-6.6-9-28.2-11-35-6.1
			C279.7,249.1,275,270.3,281.5,279.3z"/>
		<path class="st0" d="M290.2,278.4c3.5,4.8,14.9,12.6,14.9,12.6l20.5-15.2c0,0-1.9-10-7.5-17.6c-5.6-7.7-17.6-14-26.6-7.4
			C282.3,257.3,284.6,270.7,290.2,278.4z"/>
		<path class="st2" d="M297.6,272.4c1.5,2.1,6.2,5.1,6.2,5.1l9.1-6.8c0,0-0.4-3.9-2.9-7.4c-2.5-3.4-8.5-5.8-11.9-3.3
			C294.8,262.6,295.1,269,297.6,272.4z"/>
	</g>
	<g>
		<path class="st0" d="M323.3,236.9c2.5,11.7,22.2,39.7,22.2,39.7l50.4-11.3c0,0,8.3-25.9,4.3-44.7c-4-18.8-29.9-33.9-46.6-30.3
			C336.8,193.8,319.3,218.1,323.3,236.9z"/>
		<path class="st2" d="M328.5,235.1c2.1,9.8,19.9,35.5,19.9,35.5l42.6-9.6c0,0,7.2-24.2,3.9-40.1c-3.4-15.9-28-27.3-39.9-24.7
			C343,198.8,325.1,219.2,328.5,235.1z"/>
		<path class="st0" d="M333.9,239.9c1.8,8.4,18.6,34.8,18.6,34.8l36.4-8.1c0,0,5.8-25.4,2.9-39c-2.9-13.6-22.8-27.5-35.6-24.8
			C343.5,205.6,331,226.4,333.9,239.9z"/>
		<path class="st2" d="M339.1,241.1c1.4,6.8,15.7,27.3,15.7,27.3l29.3-6.6c0,0,5.7-20.1,3.4-31c-2.3-10.9-21.3-21.5-29.5-19.8
			C349.8,212.8,336.8,230.2,339.1,241.1z"/>
		<path class="st0" d="M347.4,243.7c1.2,5.7,8.4,17.6,8.4,17.6l24.9-5.6c0,0,2.3-9.9,0.3-19.2c-2-9.3-10.4-19.9-21.3-17.6
			C348.8,221.3,345.4,234.4,347.4,243.7z"/>
		<path class="st2" d="M356.6,241.4c0.5,2.6,3.6,7.2,3.6,7.2l11.1-2.5c0,0,1.2-3.8,0.4-7.9c-0.9-4.1-5.4-8.7-9.5-7.9
			C358,231.2,355.7,237.2,356.6,241.4z"/>
	</g>
	<g>
		<path class="st0" d="M398,216.3c-2.5,11.7,4.2,45.3,4.2,45.3l50.7,10.2c0,0,18.1-20.3,22.1-39.1c4-18.8-13.5-43.1-30.3-46.7
			C427.8,182.4,402,197.5,398,216.3z"/>
		<path class="st2" d="M403.4,216.8c-2.1,9.8,3.8,40.6,3.8,40.6l42.7,8.6c0,0,16.4-19.2,19.8-35.1c3.4-15.9-14.6-36.3-26.4-38.8
			C431.5,189.5,406.8,200.9,403.4,216.8z"/>
		<path class="st0" d="M406.4,223.4c-1.8,8.4,2.8,39.4,2.8,39.4l36.6,7.4c0,0,15.6-20.8,18.6-34.4c2.9-13.6-9.6-34.4-22.4-37.1
			C429.1,195.9,409.2,209.8,406.4,223.4z"/>
		<path class="st2" d="M410.7,226.6c-1.5,6.8,3.3,31.3,3.3,31.3l29.4,5.9c0,0,13.4-16,15.7-27c2.3-10.9-10.7-28.3-18.9-30.1
			C432,205,413,215.6,410.7,226.6z"/>
		<path class="st0" d="M417.2,232.3c-1.2,5.8,0.5,19.5,0.5,19.5l25,5c0,0,6.1-8.1,8.1-17.4c2-9.3-1.4-22.4-12.3-24.7
			C427.6,212.4,419.2,223.1,417.2,232.3z"/>
		<path class="st2" d="M426.6,233.9c-0.5,2.6,0.3,8,0.3,8l11.2,2.2c0,0,2.7-2.9,3.6-7.1c0.9-4.1-1.4-10.2-5.5-11
			C432,225.2,427.5,229.8,426.6,233.9z"/>
	</g>
	<g>
		<path class="st0" d="M474.3,233.2c-7,9.7-14.6,43-14.6,43l42.2,29.9c0,0,24.8-11.2,36.1-26.7c11.3-15.6,5.2-44.9-8.7-55
			C515.4,214.4,485.6,217.6,474.3,233.2z"/>
		<path class="st2" d="M479.1,235.9c-5.9,8.1-13.1,38.6-13.1,38.6l35.6,25.2c0,0,22.8-10.8,32.4-24c9.6-13.1,1.5-39.1-8.3-46.2
			C515.8,222.4,488.7,222.7,479.1,235.9z"/>
		<path class="st0" d="M479.1,243.1c-5.1,7-13.4,37.2-13.4,37.2l30.4,21.6c0,0,22.8-12.6,31-23.9c8.1-11.2,5.2-35.3-5.4-43
			C511.1,227.2,487.3,231.9,479.1,243.1z"/>
		<path class="st2" d="M481.8,247.8c-4.1,5.6-9.7,30-9.7,30l24.5,17.4c0,0,18.7-9.2,25.3-18.2c6.6-9,1.8-30.2-5-35.1
			C510,236.7,488.4,238.7,481.8,247.8z"/>
		<path class="st0" d="M485.4,255.7c-3.5,4.8-7.4,18.1-7.4,18.1l20.8,14.8c0,0,8.9-4.9,14.5-12.6c5.6-7.7,7.8-21.1-1.2-27.6
			C503,241.7,491,248,485.4,255.7z"/>
		<path class="st2" d="M493.3,260.9c-1.5,2.1-3,7.5-3,7.5l9.3,6.6c0,0,3.6-1.6,6.1-5c2.5-3.4,2.8-9.9-0.5-12.3
			C501.8,255.2,495.8,257.5,493.3,260.9z"/>
	</g>
	<g>
		<path class="st0" d="M537.4,280.2c-10.3,6-30.8,33.4-30.8,33.4l26.3,44.5c0,0,27.2-0.1,43.9-9.7c16.7-9.6,23-38.9,14.4-53.7
			C582.6,279.8,554.1,270.6,537.4,280.2z"/>
		<path class="st2" d="M540.7,284.6c-8.7,5-27.6,29.9-27.6,29.9l22.2,37.6c0,0,25.2-0.6,39.3-8.7c14.1-8.1,17.3-35.1,11.2-45.6
			C579.7,287.2,554.8,276.5,540.7,284.6z"/>
		<path class="st0" d="M537.8,291.2c-7.5,4.3-27.4,28.5-27.4,28.5l19,32.1c0,0,25.9-2.3,38-9.2c12-7,19.1-30.2,12.6-41.5
			C573.5,289.8,549.8,284.3,537.8,291.2z"/>
		<path class="st2" d="M538.3,296.6c-6,3.5-21.1,23.4-21.1,23.4l15.3,25.8c0,0,20.8-0.8,30.5-6.4c9.7-5.6,13.9-26.9,9.7-34.2
			C568.6,298,548,291,538.3,296.6z"/>
		<path class="st0" d="M538.4,305.3c-5.1,2.9-14.1,13.5-14.1,13.5l13,22c0,0,10.1-0.9,18.3-5.7c8.2-4.7,15.7-16.1,10.1-25.7
			C560.2,299.7,546.6,300.5,538.4,305.3z"/>
		<path class="st2" d="M543.5,313.3c-2.3,1.3-5.8,5.6-5.8,5.6l5.8,9.8c0,0,4,0,7.6-2.1c3.7-2.1,6.6-7.9,4.5-11.5
			C553.6,311.5,547.2,311.2,543.5,313.3z"/>
	</g>
	<g>
		<path class="st0" d="M575.3,346.1c-11.9,1.2-41.8,18-41.8,18l5.9,51.3c0,0,24.9,11,44,8.9c19.1-2,36.8-26.2,35-43.2
			C616.7,364,594.5,344.1,575.3,346.1z"/>
		<path class="st2" d="M576.5,351.4c-10,1-37.4,16.1-37.4,16.1l5,43.3c0,0,23.3,9.7,39.5,8c16.2-1.7,30.1-25.1,28.8-37.1
			C611.1,369.7,592.7,349.7,576.5,351.4z"/>
		<path class="st0" d="M571.2,356.3c-8.5,0.9-36.6,14.9-36.6,14.9l4.3,37c0,0,24.6,8.5,38.5,7c13.8-1.5,29.7-19.8,28.4-32.8
			C604.4,369.4,585,354.8,571.2,356.3z"/>
		<path class="st2" d="M569.5,361.4c-6.9,0.7-28.8,12.8-28.8,12.8l3.5,29.8c0,0,19.3,7.7,30.5,6.6c11.1-1.2,23.6-18.9,22.7-27.3
			C596.5,374.9,580.6,360.2,569.5,361.4z"/>
		<path class="st0" d="M566,369.4c-5.8,0.6-18.4,6.6-18.4,6.6l3,25.4c0,0,9.6,3.3,19,2.3c9.4-1,20.9-8.3,19.7-19.4
			C588.2,373.1,575.4,368.4,566,369.4z"/>
		<path class="st2" d="M567.4,378.8c-2.6,0.3-7.6,2.8-7.6,2.8l1.3,11.3c0,0,3.6,1.6,7.8,1.2c4.2-0.5,9.2-4.5,8.8-8.7
			C577.4,381.2,571.6,378.3,567.4,378.8z"/>
	</g>
	<g>
		<path class="st0" d="M580.8,423.2c-11.4-3.7-45.4-0.6-45.4-0.6L519.9,472c0,0,18.3,20.1,36.6,26.1c18.3,5.9,44.3-8.9,49.6-25.3
			C611.4,456.5,599.1,429.2,580.8,423.2z"/>
		<path class="st2" d="M579.8,428.6c-9.6-3.1-40.7-0.5-40.7-0.5l-13,41.6c0,0,17.3,18.4,32.8,23.4c15.5,5,37.6-10.7,41.4-22.2
			C603.9,459.3,595.2,433.6,579.8,428.6z"/>
		<path class="st0" d="M572.9,430.8c-8.2-2.6-39.5-1.2-39.5-1.2l-11.1,35.6c0,0,19.1,17.8,32.3,22.1c13.2,4.3,35.2-6,39.3-18.4
			C597.8,456.4,586.1,435.1,572.9,430.8z"/>
		<path class="st2" d="M569.3,434.8c-6.6-2.1-31.5,0-31.5,0l-9,28.7c0,0,14.5,14.9,25.2,18.4c10.6,3.5,29.3-7.6,31.9-15.7
			C588.4,458.2,579.9,438.3,569.3,434.8z"/>
		<path class="st0" d="M562.9,440.7c-5.6-1.8-19.5-1.5-19.5-1.5l-7.6,24.4c0,0,7.4,6.9,16.5,9.8c9,2.9,22.5,0.9,25.9-9.7
			C581.6,453.1,571.9,443.6,562.9,440.7z"/>
		<path class="st2" d="M560.3,449.9c-2.5-0.8-8-0.5-8-0.5l-3.4,10.9c0,0,2.7,3,6.7,4.3c4,1.3,10.3-0.3,11.6-4.3
			C568.4,456.1,564.3,451.2,560.3,449.9z"/>
	</g>
	<g>
		<path class="st0" d="M552.1,498.5c-8.9-8-41.3-19-41.3-19l-34.2,38.8c0,0,8.5,25.8,22.8,38.7c14.3,12.9,44.1,9.9,55.6-2.9
			C566.5,541.3,566.4,511.3,552.1,498.5z"/>
		<path class="st2" d="M548.9,503c-7.5-6.7-37-17-37-17l-28.8,32.7c0,0,8.4,23.8,20.4,34.7c12.1,10.9,38.7,5.6,46.8-3.5
			C558.5,540.9,561,513.8,548.9,503z"/>
		<path class="st0" d="M541.7,502.2c-6.4-5.8-35.6-17.2-35.6-17.2l-24.7,28c0,0,10.2,24,20.5,33.3c10.3,9.3,34.6,8.9,43.4-0.9
			C554.2,535.7,552.1,511.5,541.7,502.2z"/>
		<path class="st2" d="M536.8,504.4c-5.2-4.6-28.8-12.8-28.8-12.8l-19.9,22.6c0,0,7.2,19.6,15.5,27c8.3,7.5,29.9,4.9,35.5-1.3
			C544.8,533.5,545.1,511.8,536.8,504.4z"/>
		<path class="st0" d="M528.6,507.1c-4.3-4-17.2-9.3-17.2-9.3L494.5,517c0,0,4,9.3,11,15.7c7.1,6.4,20.1,10,27.6,1.7
			C540.6,526.1,535.6,513.5,528.6,507.1z"/>
		<path class="st2" d="M522.5,514.5c-1.9-1.8-7.1-3.7-7.1-3.7l-7.5,8.5c0,0,1.2,3.8,4.4,6.6c3.1,2.8,9.5,3.9,12.3,0.8
			C527.3,523.5,525.6,517.3,522.5,514.5z"/>
	</g>
	<g>
		<path class="st0" d="M507.1,549.4c-4.9-10.9-30-34.2-30-34.2l-47,21.5c0,0-2.7,27.1,5.1,44.6c7.8,17.6,36.3,26.9,51.9,19.9
			C502.9,594.3,514.9,567,507.1,549.4z"/>
		<path class="st2" d="M502.4,552.2c-4.1-9.2-26.9-30.6-26.9-30.6l-39.6,18.2c0,0-2,25.2,4.6,40c6.6,14.8,33.1,20.8,44.2,15.9
			C495.7,590.7,509,567,502.4,552.2z"/>
		<path class="st0" d="M496.1,548.6c-3.5-7.9-25.5-30.2-25.5-30.2l-33.9,15.6c0,0-0.4,26.1,5.2,38.7c5.7,12.7,28,22.2,40,16.8
			C493.9,584.2,501.8,561.3,496.1,548.6z"/>
		<path class="st2" d="M490.7,548.6c-2.8-6.4-21.1-23.4-21.1-23.4l-27.3,12.5c0,0-1.4,20.8,3.2,31c4.5,10.2,25.3,16.7,33,13.2
			C486.2,578.5,495.3,558.8,490.7,548.6z"/>
		<path class="st0" d="M482.1,547.7c-2.4-5.4-11.9-15.5-11.9-15.5L447,542.9c0,0-0.2,10.1,3.7,18.8c3.9,8.7,14.3,17.3,24.5,12.8
			C485.4,569.9,486,556.4,482.1,547.7z"/>
		<path class="st2" d="M473.6,551.9c-1.1-2.4-5-6.3-5-6.3l-10.3,4.7c0,0-0.4,4,1.3,7.8c1.7,3.9,7.1,7.4,10.9,5.7
			C474.3,562.2,475.3,555.8,473.6,551.9z"/>
	</g>
	<path class="st0" d="M566.7,399.1c0-90.7-73.5-164.2-164.2-164.2c-90.7,0-164.2,73.5-164.2,164.2c0,90.7,73.5,164.2,164.2,164.2
		C493.2,563.3,566.7,489.8,566.7,399.1z"/>
	<path class="st5" d="M553.9,399.1c0-83.6-67.8-151.4-151.4-151.4c-83.6,0-151.4,67.8-151.4,151.4c0,83.6,67.8,151.4,151.4,151.4
		C486.2,550.5,553.9,482.7,553.9,399.1z"/>
	<path class="st1" d="M497.2,399.1c0-52.3-42.4-94.6-94.6-94.6c-52.3,0-94.6,42.4-94.6,94.6c0,52.3,42.4,94.6,94.6,94.6
		C454.8,493.7,497.2,451.3,497.2,399.1z"/>
	<path class="st5" d="M464.3,399.1c0-34.1-27.7-61.8-61.8-61.8c-34.1,0-61.8,27.7-61.8,61.8c0,34.1,27.7,61.8,61.8,61.8
		C436.7,460.9,464.3,433.2,464.3,399.1z"/>
	<path class="st0" d="M438.9,399.1c0-20.1-16.3-36.4-36.4-36.4c-20.1,0-36.4,16.3-36.4,36.4c0,20.1,16.3,36.4,36.4,36.4
		C422.6,435.5,438.9,419.2,438.9,399.1z"/>
	<path class="st3" d="M423.3,399.1c0-11.5-9.3-20.8-20.8-20.8c-11.5,0-20.8,9.3-20.8,20.8c0,11.5,9.3,20.8,20.8,20.8
		C414,419.9,423.3,410.6,423.3,399.1z"/>
	<path class="st4" d="M335.7,607.2c-0.3,1.2-0.4,5.6-0.4,5.6l22.5,6.5c0,0,1.9-3.4,2.4-5.1c1.7-5.9-4.5-14.1-8.8-15.4
		C347,597.5,337.4,601.2,335.7,607.2z"/>
	<path class="st4" d="M262.9,567.5c-0.8,1-2.6,4.9-2.6,4.9l17.9,15.1c0,0,3.1-2.4,4.2-3.7c4-4.7,1.7-14.7-1.8-17.6
		C277.1,563.2,266.8,562.7,262.9,567.5z"/>
	<path class="st4" d="M205.7,499.9c-1.1,0.7-4,3.9-4,3.9l12.4,19.8c0,0,3.7-1.3,5.2-2.2c5.2-3.3,6.1-13.5,3.7-17.3
		C220.5,500.2,210.9,496.6,205.7,499.9z"/>
	<path class="st4" d="M180.5,410.2c-1.3,0.2-5.3,1.9-5.3,1.9l2.8,23.2c0,0,3.9,0.4,5.6,0.1c6.1-0.8,11.2-9.7,10.7-14.2
		C193.8,416.8,186.6,409.5,180.5,410.2z"/>
	<path class="st4" d="M193.4,325.2c-1.2-0.3-5.6-0.5-5.6-0.5l-6.8,22.4c0,0,3.4,1.9,5.1,2.4c5.9,1.8,14.2-4.2,15.5-8.6
		C202.9,336.6,199.4,327,193.4,325.2z"/>
	<path class="st4" d="M243.7,242.9c-1-0.8-4.9-2.7-4.9-2.7l-15.3,17.6c0,0,2.3,3.2,3.6,4.3c4.7,4,14.7,1.9,17.7-1.6
		C247.8,257.1,248.4,246.9,243.7,242.9z"/>
	<path class="st4" d="M318.6,191.8c-0.6-1.1-3.4-4.4-3.4-4.4l-21.2,9.9c0,0,0.8,3.8,1.6,5.4c2.6,5.6,12.6,7.7,16.8,5.8
		C316.5,206.5,321.2,197.4,318.6,191.8z"/>
	<path class="st4" d="M413.6,174c0-1.3-1.3-5.4-1.3-5.4l-23.4,0.4c0,0-0.8,3.8-0.8,5.6c0.1,6.2,8.4,12.2,13,12.1
		C405.7,186.5,413.7,180.1,413.6,174z"/>
	<path class="st4" d="M503.5,199.7c0.5-1.2,1-5.5,1-5.5l-21.5-9.2c0,0-2.3,3.2-3,4.8c-2.4,5.7,2.7,14.5,7,16.3
		C491.2,208,501.1,205.4,503.5,199.7z"/>
	<path class="st4" d="M576.3,260.2c0.9-0.9,3.2-4.6,3.2-4.6l-16-17.1c0,0-3.4,2-4.7,3.2c-4.5,4.2-3.4,14.4-0.3,17.7
		C561.7,262.7,571.8,264.4,576.3,260.2z"/>
	<path class="st4" d="M618.4,343.6c1.2-0.4,4.8-2.9,4.8-2.9l-7.6-22.1c0,0-3.9,0.4-5.6,1c-5.8,2-9,11.8-7.5,16.1
		C604,340,612.6,345.7,618.4,343.6z"/>
	<path class="st4" d="M622.3,437.3c1.3,0.1,5.6-0.7,5.6-0.7l2-23.3c0,0-3.7-1.2-5.5-1.3c-6.1-0.5-13,7.1-13.4,11.7
		C610.6,428.1,616.1,436.8,622.3,437.3z"/>
	<path class="st4" d="M583.2,526.1c1.1,0.6,5.4,1.6,5.4,1.6l11.4-20.5c0,0-2.9-2.6-4.5-3.4c-5.4-3-14.8,1.2-17,5.2
		C576.3,513,577.9,523.2,583.2,526.1z"/>
	<path class="st4" d="M512.1,592.2c0.8,1,4.3,3.6,4.3,3.6l18.7-14.1c0,0-1.6-3.6-2.7-5c-3.7-4.9-14-4.9-17.6-2.1
		C511.1,577.4,508.4,587.3,512.1,592.2z"/>
	<path class="st4" d="M429.2,618.5c0.3,1.2,2.2,5.1,2.2,5.1l22.9-4.6c0,0,0.1-4-0.3-5.7c-1.2-6.1-10.5-10.5-15-9.5
		C434.6,604.7,427.9,612.5,429.2,618.5z"/>
</g>
</svg>
