<?xml version="1.0" encoding="utf-8"?>
<!-- Generator: Adobe Illustrator 28.0.0, SVG Export Plug-In . SVG Version: 6.00 Build 0)  -->
<svg version="1.1" id="Layer_3" xmlns="http://www.w3.org/2000/svg" xmlns:xlink="http://www.w3.org/1999/xlink" x="0px" y="0px"
	 viewBox="0 0 800 800" style="enable-background:new 0 0 800 800;" xml:space="preserve">
<style type="text/css">
	.st0{fill:#321E2B;stroke:#000000;stroke-width:1.5474;stroke-miterlimit:10;}
	.st1{fill:#DF5112;stroke:#000000;stroke-width:1.5474;stroke-miterlimit:10;}
	.st2{fill:#F3DBB4;stroke:#000000;stroke-width:1.5474;}
	.st3{fill:#664E5D;stroke:#000000;stroke-width:1.5474;stroke-miterlimit:10;}
	.st4{fill-rule:evenodd;clip-rule:evenodd;fill:#664E5D;stroke:#000000;stroke-width:1.5474;stroke-miterlimit:10;}
	.st5{fill-rule:evenodd;clip-rule:evenodd;fill:#321E2B;stroke:#000000;stroke-width:1.5474;stroke-miterlimit:10;}
	.st6{fill-rule:evenodd;clip-rule:evenodd;fill:#46C5DF;stroke:#231F20;stroke-width:1.5474;}
	.st7{fill-rule:evenodd;clip-rule:evenodd;fill:#FAAE29;stroke:#000000;stroke-width:1.5474;stroke-miterlimit:10;}
	.st8{fill-rule:evenodd;clip-rule:evenodd;fill:#DF5112;stroke:#000000;stroke-width:1.5474;stroke-miterlimit:10;}
</style>
<g>
	<g>
		<g>
			<path class="st0" d="M232.8,156.5c4.2,4.4,8.9,11.2,13.5,18.7c1.2-0.8,2.4-1.6,3.6-2.4c-3.3-4.4-6.1-8.8-8-12.9
				c-9.5-20.7,3.1-58.6,22.6-67.5c19.6-9,56.4,6.2,65.9,27c1.5,3.4,2.9,9.3,4.1,16.3c1.3-0.3,2.6-0.7,3.9-1c-1.3-11-3.1-21.5-5.7-27
				C321.8,83.4,260,82.3,260,82.3s-39.5,47.5-28.4,71.7C232,154.9,232.4,155.7,232.8,156.5z"/>
			<path class="st0" d="M168.4,255.7c0.9-1.4,1.8-2.8,2.7-4.2c-3.4-2.1-6.4-4.2-9-6.5c-17.1-15.1-21-54.7-6.8-70.9
				c14.2-16.1,54.1-17.3,71.2-2.2c2.4,2.1,5.5,6.1,8.9,11c1-0.7,2-1.5,3-2.2c0.1-0.1,0.3-0.2,0.4-0.3c-4.6-7.6-9.3-14.5-13.3-18.6
				c-0.5-0.6-1.1-1.1-1.6-1.5c-20-17.7-76.9,6.5-76.9,6.5s-16.8,59.5,3.2,77.1C155.4,248.4,161.7,252.4,168.4,255.7z"/>
			<path class="st0" d="M105.1,363.7c5.7-0.5,14,0.4,23.1,2c0.1-1.1,0.4-2.2,0.5-3.3c-4.4-0.5-8.6-1.3-12.2-2.4
				c-21.8-6.8-41.5-41.5-35-62c6.4-20.5,42.4-37.8,64.1-30.9c3,0.9,7.5,3.3,12.5,6.4c0.7-1.2,1.3-2.5,2-3.7
				c-8.2-5.7-16.2-10.6-21.5-12.2c-25.5-8-67.6,37.2-67.6,37.2S79.8,355.6,105.1,363.7z"/>
			<path class="st0" d="M117.2,483.5c6.1-0.7,12.6-2.5,18.9-4.9c-0.5-1.6-0.9-3.3-1.3-5c-3.1,0.8-6.1,1.5-8.8,1.8
				c-22.7,2.6-54.8-21-57.2-42.4c-2.5-21.4,23.3-51.7,46-54.4c2.8-0.3,7.1-0.1,12,0.5c0.1-0.9,0.2-1.7,0.2-2.6
				c0.1-0.6,0.1-1.1,0.2-1.7c-9.2-1.7-17.6-2.7-22.8-2.1c0,0,0,0-0.1,0c-26.5,3.1-46.5,61.5-46.5,61.5S90.7,486.5,117.2,483.5z"/>
			<path class="st0" d="M187.3,577c-3,2.6-6.1,4.9-9,6.6c-19.6,11.6-58.6,3.1-69.5-15.5c-11-18.5,0.3-56.7,19.9-68.4
				c2.7-1.6,7.2-3.2,12.6-4.9c-0.5-1.3-0.9-2.6-1.4-4c-9.6,2.3-18.3,4.9-23,7.7c-23,13.6-17.6,75.1-17.6,75.1s51.3,34.3,74.3,20.8
				c5.8-3.5,11.6-8.3,16.9-13.7C189.4,579.5,188.3,578.3,187.3,577z"/>
			<path class="st0" d="M270.7,657.9c-13.2,18.6-52.3,26.6-69.8,14.2c-17.5-12.5-22.8-52-9.6-70.6c1.8-2.5,5.1-5.7,9.3-9.4
				c-1-1-1.9-2.1-2.9-3.1c-7.7,5.9-14.5,11.8-17.7,16.2C164.5,627,194.5,681,194.5,681s60.9,10.5,76.3-11.3c3.8-5.3,7-11.9,9.6-18.7
				c-1.5-0.7-3-1.5-4.5-2.2C274.3,652.2,272.5,655.3,270.7,657.9z"/>
			<path class="st0" d="M386.5,678.6c0,5.2-0.3,10.1-1.1,14.3c-4.5,22.4-36.9,45.6-58,41.3c-21.1-4.2-42-38.2-37.5-60.5
				c0.7-3.6,3.1-9.2,6.2-15.6c-1.2-0.5-2.5-1-3.7-1.6c-5.4,9.7-10.1,19.2-11.3,25.2c-5.3,26.2,44.1,63.3,44.1,63.3
				s59.9-15.2,65.1-41.3c1.5-7.6,1.6-16.4,0.9-25C389.6,678.7,388,678.7,386.5,678.6z"/>
			<path class="st0" d="M354.2,131.5c-0.8-4.2-1.3-8.2-1.4-11.8C352.6,97,379,67.8,400.5,67.2c21.5,0.6,47.9,29.8,47.7,52.5
				c0,3.6-0.5,7.6-1.4,11.8c1.6,0.3,3.2,0.6,4.8,0.9c2.1-7.5,3.6-15.2,3.7-22.3c0.3-24.5-46.5-49.6-54.1-53.4v-0.3
				c-0.3-0.1-0.4-0.2-0.4-0.2s-0.1,0.1-0.3,0.2c-0.2-0.1-0.3-0.2-0.3-0.2s-0.2,0.1-0.4,0.2v0.3c-7.5,3.9-54.3,28.9-54.1,53.4
				c0.1,7,1.5,14.7,3.7,22.3C350.9,132.1,352.5,131.8,354.2,131.5z"/>
			<path class="st0" d="M470.5,119.3c9.5-20.8,46.4-35.9,65.9-27c19.6,9,32.1,46.8,22.6,67.5c-1.9,4.1-4.7,8.5-8,12.9
				c1.2,0.8,2.4,1.6,3.6,2.4c4.6-7.5,9.4-14.3,13.5-18.7c0.4-0.8,0.8-1.6,1.2-2.5c11.1-24.3-28.4-71.7-28.4-71.7
				s-61.8,1.1-72.9,25.3c-2.5,5.5-4.4,16-5.7,27c1.3,0.3,2.6,0.6,3.9,1C467.6,128.7,468.9,122.7,470.5,119.3z"/>
			<path class="st0" d="M562.6,180.8c1,0.7,2,1.4,3,2.2c3.4-4.9,6.5-8.9,8.9-11c17.1-15.1,56.9-14,71.2,2.2
				c14.2,16.2,10.3,55.8-6.8,70.9c-2.5,2.2-5.6,4.4-9,6.5c0.9,1.4,1.8,2.8,2.7,4.2c6.7-3.4,13-7.3,18.1-11.7
				c20-17.6,3.2-77.1,3.2-77.1s-56.9-24.2-76.9-6.5c-0.5,0.4-1,1-1.6,1.5c-3.9,4.1-8.6,11-13.3,18.6
				C562.4,180.7,562.5,180.8,562.6,180.8z"/>
			<path class="st0" d="M642.9,273.4c5-3.1,9.4-5.4,12.5-6.4c21.8-6.8,57.7,10.4,64.1,30.9c6.4,20.5-13.3,55.2-35,62
				c-3.6,1.1-7.7,1.9-12.2,2.4c0.2,1.1,0.4,2.2,0.5,3.3c9-1.6,17.3-2.5,23.1-2c25.3-8.2,34.1-69,34.1-69s-42.1-45.2-67.6-37.2
				c-5.3,1.7-13.3,6.5-21.5,12.2C641.6,270.9,642.2,272.2,642.9,273.4z"/>
			<path class="st0" d="M696.7,372.8C696.7,372.8,696.7,372.8,696.7,372.8c-5.3-0.6-13.7,0.4-22.9,2.1c0.1,0.6,0.1,1.1,0.2,1.7
				c0.1,0.9,0.2,1.7,0.2,2.6c5-0.6,9.2-0.8,12-0.5c22.7,2.6,48.5,33,46,54.4c-2.5,21.4-34.6,45-57.2,42.4c-2.8-0.3-5.7-0.9-8.8-1.8
				c-0.4,1.7-0.9,3.3-1.3,5c6.4,2.4,12.8,4.2,18.9,4.9c26.5,3.1,59.4-49.2,59.4-49.2S723.2,376,696.7,372.8z"/>
			<path class="st0" d="M684.1,498.6c-4.7-2.8-13.4-5.4-23-7.7c-0.4,1.3-0.9,2.7-1.4,4c5.4,1.6,9.9,3.3,12.6,4.9
				c19.6,11.6,30.9,49.8,19.9,68.4c-11,18.5-49.9,27.1-69.5,15.5c-2.9-1.7-6-4-9-6.6c-1,1.3-2.1,2.5-3.2,3.8
				c5.3,5.4,11,10.2,16.9,13.7c23,13.6,74.3-20.8,74.3-20.8S707.1,512.2,684.1,498.6z"/>
			<path class="st0" d="M603.3,589c-0.9,1-1.9,2.1-2.9,3.1c4.2,3.6,7.5,6.9,9.3,9.4c13.2,18.6,7.9,58.1-9.6,70.6
				c-17.5,12.5-56.6,4.4-69.8-14.2c-1.8-2.6-3.6-5.7-5.2-9c-1.5,0.8-3,1.5-4.5,2.2c2.6,6.8,5.8,13.3,9.6,18.7
				c15.4,21.8,76.3,11.3,76.3,11.3s30-54,14.5-75.8C617.9,600.8,611,594.9,603.3,589z"/>
			<path class="st0" d="M508.7,656.6c-1.2,0.5-2.5,1-3.7,1.6c3.1,6.3,5.5,12,6.2,15.6c4.5,22.4-16.4,56.3-37.5,60.5
				c-21.1,4.3-53.5-19-58-41.3c-0.8-4.2-1.2-9.1-1.1-14.3c-1.6,0.1-3.1,0.1-4.7,0.2c-0.7,8.6-0.7,17.3,0.9,25
				c5.3,26.2,65.1,41.3,65.1,41.3s49.3-37.2,44.1-63.3C518.8,675.8,514.1,666.2,508.7,656.6z"/>
		</g>
		<g>
			<path class="st1" d="M283.8,134.3c-6.3,2.9-7.8,13.3-4.9,19.7c0.3,0.6,0.6,1.2,0.9,1.8c7.4-3.7,15-7,22.8-10
				c-0.2-0.9-0.5-1.6-0.8-2.3C299,137.1,290.1,131.4,283.8,134.3z"/>
			<path class="st1" d="M189.9,204.7c-4.2,4.8-2,13.8,2.4,18.8c5.4-6.3,11.1-12.4,17.1-18.2C204.1,201,194.3,199.7,189.9,204.7z"/>
			<path class="st1" d="M125.5,311.7c-2,6.3,4.2,14,10.5,16.5c2.3-8.1,5-16.1,7.9-23.9C137.3,302.5,127.5,305.3,125.5,311.7z"/>
			<path class="st1" d="M114.5,427.7c0.7,5.6,7.2,9.8,13.4,10.6c-1-8-1.7-16.1-2-24.3C119.8,416,113.8,421.8,114.5,427.7z"/>
			<path class="st1" d="M148.4,544.6c3.2,5.4,12.3,6.2,18.4,3.6c-4.4-7.1-8.5-14.3-12.2-21.8C149.2,530.4,145.1,539,148.4,544.6z"/>
			<path class="st1" d="M227.6,634.5c5,3.5,13.3,0.8,17.9-3.8c-6.8-4.7-13.5-9.7-19.8-15C222.4,621.6,222.4,630.8,227.6,634.5z"/>
			<path class="st1" d="M327.2,671c-1.4,6.8,2.5,16.7,9.2,18c6.7,1.3,14.1-6.2,15.5-13.1c0.1-0.5,0.1-1,0.2-1.4
				c-8.2-1.5-16.4-3.4-24.3-5.6C327.5,669.7,327.3,670.4,327.2,671z"/>
			<path class="st1" d="M517.2,134.3c-6.3-2.9-15.2,2.8-18.1,9.2c-0.3,0.6-0.6,1.4-0.8,2.3c7.8,3,15.4,6.3,22.8,10
				c0.3-0.6,0.6-1.1,0.9-1.8C524.9,147.6,523.5,137.1,517.2,134.3z"/>
			<path class="st1" d="M591.5,205.2c6,5.8,11.7,11.9,17.1,18.2c4.5-5,6.7-14,2.4-18.8C606.7,199.7,596.9,201,591.5,205.2z"/>
			<path class="st1" d="M675.5,311.7c-2-6.5-11.8-9.3-18.5-7.4c3,7.8,5.7,15.8,7.9,23.9C671.3,325.7,677.5,318,675.5,311.7z"/>
			<path class="st1" d="M675.1,414c-0.3,8.2-1,16.3-2,24.3c6.2-0.8,12.7-5,13.4-10.6C687.2,421.8,681.2,416,675.1,414z"/>
			<path class="st1" d="M646.4,526.4c-3.7,7.5-7.8,14.8-12.2,21.8c6.1,2.6,15.2,1.8,18.4-3.6C655.9,539,651.8,530.4,646.4,526.4z"/>
			<path class="st1" d="M555.5,630.7c4.6,4.6,12.9,7.3,17.9,3.8c5.2-3.7,5.1-12.9,2-18.8C569,621,562.4,626,555.5,630.7z"/>
			<path class="st1" d="M473.2,669c-8,2.2-16.1,4.1-24.3,5.6c0.1,0.5,0.1,0.9,0.2,1.4c1.4,6.8,8.7,14.4,15.5,13.1
				c6.8-1.4,10.6-11.2,9.2-18C473.7,670.4,473.5,669.7,473.2,669z"/>
			<path class="st1" d="M401.2,113.6v-0.3c-0.3,0-0.5,0.1-0.7,0.1c-0.2,0-0.5-0.1-0.7-0.1v0.3c-5.6,1.2-10.1,8.1-10.7,14.2
				c3.8-0.2,7.6-0.2,11.4-0.3c3.8,0,7.6,0.1,11.4,0.3C411.3,121.7,406.9,114.8,401.2,113.6z"/>
		</g>
		<g>
			<path class="st2" d="M316.4,137.5c0.4,0.9,0.8,1.9,1.1,2.9c3.3-1.1,6.7-2,10-3c-0.8-4.9-1.7-9.1-2.8-11.5
				c-7.6-16.7-41.8-26.9-54.4-21.1c-12.6,5.8-27.2,38.3-19.5,55c1.3,2.9,3.2,5.9,5.5,8.9c3.2-2,6.4-3.9,9.7-5.7
				c-0.3-0.6-0.7-1.3-1-1.9c-6.5-14.2-5.7-36.5,10.9-44.1C292.5,109.4,309.9,123.3,316.4,137.5z"/>
			<path class="st2" d="M175.4,245.3c2.3-3.3,4.7-6.5,7.1-9.6c-11.1-10.6-18.5-30.3-6.8-43.6c12.1-13.7,33.6-8,45.4,2.3
				c0.1,0.1,0.1,0.1,0.2,0.2c2.8-2.4,5.6-4.7,8.5-7c-2.1-3.1-4.1-5.6-5.7-7.1c-13.8-12.1-49.1-7.6-58.3,2.8
				c-9.2,10.4-9.3,46,4.5,58.2C171.7,242.8,173.5,244.1,175.4,245.3z"/>
			<path class="st2" d="M122.4,353.4c2.3,0.7,4.8,1.2,7.5,1.6c0.7-3.9,1.5-7.7,2.3-11.5c-14.7-4.9-30.2-20.1-24.8-37.3
				c5.5-17.5,27.5-21,42.4-16.3c0.1,0,0.2,0.1,0.3,0.1c1.5-3.3,3.1-6.7,4.7-9.9c-3.2-2-6-3.5-8-4.1c-17.5-5.5-47.9,13.1-52.1,26.3
				C90.5,315.3,104.9,347.9,122.4,353.4z"/>
			<path class="st2" d="M128.6,467c1.4-0.2,2.8-0.4,4.3-0.8c-0.9-4-1.8-8-2.5-12.1c-14.9,0.3-32.8-7.5-34.8-24.2
				c-2-17.5,15.1-29.4,30.2-31.9c0.1-3.9,0.2-7.7,0.4-11.6c-2.8-0.3-5.3-0.4-7-0.2c-18.2,2.1-38.5,31.4-36.9,45.2
				C83.9,445.2,110.3,469.1,128.6,467z"/>
			<path class="st2" d="M132.1,554.3c-9.3-15.6,2.6-34.2,15.9-42.2c-1.5-3.4-2.9-6.9-4.2-10.3c-3.3,1-6.1,2-7.9,3.1
				c-15.8,9.3-22.4,44.4-15.3,56.3c7,11.9,40.9,23,56.7,13.7c1.7-1,3.5-2.3,5.3-3.8c-2.4-3.2-4.8-6.4-7.1-9.6
				C162,568.6,141.1,569.5,132.1,554.3z"/>
			<path class="st2" d="M216.6,650c-14.7-10.4-11.6-31.9-2.9-44.7c-2.8-2.6-5.5-5.2-8.1-7.8c-2.5,2.2-4.5,4.2-5.7,5.8
				c-10.6,15-2.4,49.6,8.9,57.7c11.3,8,46.7,4.4,57.4-10.6c1.1-1.5,2-3.2,3-5c-3.5-1.9-7-4-10.5-6.1
				C249.2,651.1,230.7,660,216.6,650z"/>
			<path class="st2" d="M367.3,678.4c-3.1,15.3-16.8,32.9-34.7,29.3c-17.9-3.6-23.8-25.1-20.7-40.4c0.2-0.9,0.5-1.9,0.8-2.9
				c-3.3-1.1-6.6-2.3-9.9-3.6c-2.3,4.4-3.9,8.3-4.5,10.9c-3.6,18,18,46.3,31.6,49c13.6,2.7,44.5-15,48.1-33c0.6-2.9,0.8-6.2,0.8-9.7
				c-3.8-0.3-7.6-0.7-11.3-1.2C367.5,677.4,367.5,677.9,367.3,678.4z"/>
			<path class="st2" d="M536,161.1c-0.3,0.7-0.6,1.3-1,1.9c3.3,1.8,6.5,3.8,9.7,5.7c2.2-3,4.2-6,5.5-8.9c7.7-16.7-6.9-49.2-19.5-55
				c-12.6-5.8-46.7,4.4-54.4,21.1c-1.1,2.4-2,6.6-2.8,11.5c3.4,0.9,6.7,1.9,10,3c0.4-1.1,0.7-2.1,1.1-2.9
				c6.5-14.2,23.9-28.2,40.5-20.5C541.7,124.6,542.5,146.9,536,161.1z"/>
			<path class="st2" d="M580,194.4c11.7-10.3,33.3-16,45.4-2.3c11.7,13.3,4.3,32.9-6.8,43.6c2.4,3.2,4.8,6.4,7.1,9.6
				c1.9-1.2,3.7-2.5,5.2-3.9c13.8-12.1,13.7-47.8,4.5-58.2c-9.2-10.4-44.5-15-58.3-2.8c-1.6,1.4-3.6,4-5.7,7.1
				c2.9,2.3,5.7,4.6,8.5,7C579.9,194.5,579.9,194.4,580,194.4z"/>
			<path class="st2" d="M651.3,289.7c14.9-4.7,36.9-1.1,42.4,16.3c5.4,17.2-10.1,32.4-24.8,37.3c0.8,3.8,1.6,7.7,2.3,11.5
				c2.7-0.4,5.2-0.9,7.5-1.6c17.5-5.5,31.9-38.1,27.8-51.3c-4.1-13.2-34.6-31.8-52.1-26.3c-2.1,0.6-4.9,2.1-8,4.1
				c1.6,3.3,3.2,6.6,4.7,9.9C651.1,289.8,651.2,289.8,651.3,289.7z"/>
			<path class="st2" d="M681.8,386.2c-1.7-0.2-4.2-0.1-7,0.2c0.2,3.8,0.4,7.7,0.4,11.6c15.1,2.5,32.2,14.4,30.2,31.9
				c-1.9,16.7-19.8,24.5-34.8,24.2c-0.8,4.1-1.6,8.1-2.5,12.1c1.5,0.3,2.9,0.6,4.3,0.8c18.2,2.1,44.7-21.8,46.3-35.6
				C720.3,417.6,700,388.3,681.8,386.2z"/>
			<path class="st2" d="M665.1,504.8c-1.8-1-4.5-2.1-7.9-3.1c-1.3,3.5-2.7,6.9-4.2,10.3c13.3,8,25.2,26.6,15.9,42.2
				c-9,15.2-29.9,14.2-43.4,7.1c-2.3,3.3-4.7,6.5-7.1,9.6c1.8,1.4,3.5,2.7,5.3,3.8c15.8,9.4,49.7-1.8,56.7-13.7
				C687.5,549.2,680.9,514.2,665.1,504.8z"/>
			<path class="st2" d="M595.4,597.4c-2.6,2.7-5.4,5.3-8.1,7.8c8.7,12.8,11.8,34.3-2.9,44.7c-14.2,10.1-32.6,1.1-42.2-10.7
				c-3.4,2.1-6.9,4.1-10.5,6.1c0.9,1.8,1.9,3.5,3,5c10.6,15,46.1,18.6,57.4,10.6c11.3-8,19.6-42.7,8.9-57.7
				C599.9,601.6,597.9,599.6,595.4,597.4z"/>
			<path class="st2" d="M498.1,660.8c-3.3,1.2-6.5,2.4-9.9,3.6c0.3,1,0.6,2,0.8,2.9c3.1,15.3-2.7,36.8-20.7,40.4
				c-17.9,3.6-31.6-14-34.7-29.3c-0.1-0.5-0.2-1-0.3-1.5c-3.7,0.5-7.5,0.9-11.3,1.2c0,3.5,0.2,6.8,0.8,9.7c3.6,18,34.5,35.7,48.1,33
				c13.6-2.7,35.2-31,31.6-49C502.1,669.1,500.4,665.2,498.1,660.8z"/>
			<path class="st2" d="M427.6,128.9c4,0.4,7.9,0.9,11.8,1.5c0.4-2.5,0.7-4.9,0.7-7.1c0.2-17.8-24.7-40.6-38.9-42.1v-0.1
				c0,0-0.1,0-0.2,0c-0.2,0-0.4,0.1-0.6,0.1c-0.2,0-0.4-0.1-0.6-0.1c0,0-0.1,0-0.2,0v0.1c-14.1,1.5-39.1,24.3-38.9,42.1
				c0,2.2,0.3,4.6,0.7,7.1c3.9-0.6,7.8-1.1,11.8-1.5c0.3-15.2,9.8-33.9,27.1-34.6C417.9,95,427.3,113.7,427.6,128.9z"/>
		</g>
		<path class="st3" d="M753.4,435.5c0,0-20-53.7-46.5-68.2c23.2-19.3,32.9-75.6,32.9-75.6s-50.8-51.8-81-42.4
			c-0.4,0.1-0.8,0.3-1.2,0.4c21.1-22.7,4.1-89.5,4.1-89.5s-53.8-21.3-82.2-10.9c2.2-30.2-34.1-76.2-34.1-76.2s-65.2,2.8-83.2,27.6
			c-10.2-25.9-54-50.5-60.8-54.2v-0.2c-0.3-0.2-0.5-0.3-0.5-0.3s-0.1,0-0.2,0.1c-0.1-0.1-0.2-0.1-0.2-0.1s-0.2,0.1-0.5,0.3v0.2
			c-6.9,3.7-50.6,28.3-60.8,54.2c-18-24.8-83.2-27.6-83.2-27.6s-36.3,46-34.1,76.2c-28.4-10.3-82.2,10.9-82.2,10.9
			s-17,66.8,4.1,89.5c-0.4-0.2-0.8-0.3-1.2-0.4c-30.2-9.4-81,42.4-81,42.4s9.6,56.3,32.9,75.6c-26.5,14.5-46.5,68.2-46.5,68.2
			s33.7,50.6,63.5,56.3c-24.9,18.5-20.6,87.1-20.6,87.1s50.1,31.7,79.8,25.9c-11,28.4,18.3,84.5,18.3,84.5s59,8.6,83.7-9
			c-4.3,30.9,50.8,74.7,50.8,74.7s69.9-19.6,76.1-50.6c0.7-3.2,1-6.6,1.3-10.1c0.2,3.4,0.6,6.8,1.3,10.1c6.2,31,76.1,50.6,76.1,50.6
			s55.1-43.7,50.8-74.7c24.6,17.6,83.7,9,83.7,9s29.3-56.1,18.3-84.5c29.7,5.8,79.8-25.9,79.8-25.9s4.3-68.7-20.6-87.1
			C719.6,486.1,753.4,435.5,753.4,435.5z M662.4,257.5c25.5-8,67.6,37.2,67.6,37.2s-8.8,60.9-34.1,69c-5.7-0.5-14,0.4-23.1,2
			c-0.1-1.1-0.4-2.2-0.5-3.3c4.4-0.5,8.6-1.3,12.2-2.4c21.8-6.8,41.5-41.5,35-62c-6.4-20.5-42.4-37.8-64.1-30.9
			c-3,0.9-7.5,3.3-12.5,6.4c-0.7-1.2-1.3-2.5-2-3.7C649.1,264,657.1,259.1,662.4,257.5z M693.6,306.1c-5.5-17.5-27.5-21-42.4-16.3
			c-0.1,0-0.2,0.1-0.3,0.1c-1.5-3.3-3.1-6.7-4.7-9.9c3.2-2,6-3.5,8-4.1c17.5-5.5,47.9,13.1,52.1,26.3c4.1,13.2-10.3,45.8-27.8,51.3
			c-2.3,0.7-4.8,1.2-7.5,1.6c-0.7-3.9-1.5-7.7-2.3-11.5C683.5,338.5,699,323.3,693.6,306.1z M675.5,311.7c2,6.3-4.2,14-10.5,16.5
			c-2.3-8.1-5-16.1-7.9-23.9C663.7,302.5,673.5,305.3,675.5,311.7z M670.6,454.1c14.9,0.3,32.8-7.5,34.8-24.2
			c2-17.5-15.1-29.4-30.2-31.9c-0.1-3.9-0.2-7.7-0.4-11.6c2.8-0.3,5.3-0.4,7-0.2c18.2,2.1,38.5,31.4,36.9,45.2
			c-1.6,13.8-28,37.7-46.3,35.6c-1.4-0.2-2.8-0.4-4.3-0.8C669,462.2,669.9,458.1,670.6,454.1z M675.1,414c6.1,2,12.1,7.8,11.4,13.7
			c-0.7,5.6-7.2,9.8-13.4,10.6C674.1,430.3,674.8,422.2,675.1,414z M577.1,160.4c20-17.7,76.9,6.5,76.9,6.5s16.8,59.5-3.2,77.1
			c-5.1,4.5-11.4,8.4-18.1,11.7c-0.9-1.4-1.8-2.8-2.7-4.2c3.4-2.1,6.4-4.2,9-6.5c17.1-15.1,21-54.7,6.8-70.9
			c-14.2-16.1-54.1-17.3-71.2-2.2c-2.4,2.1-5.5,6.1-8.9,11c-1-0.7-2-1.5-3-2.2c-0.1-0.1-0.3-0.2-0.4-0.3c4.6-7.6,9.3-14.5,13.3-18.6
			C576,161.4,576.6,160.9,577.1,160.4z M625.3,192.1c-12.1-13.7-33.6-8-45.4,2.3c-0.1,0.1-0.1,0.1-0.2,0.2c-2.8-2.4-5.6-4.7-8.5-7
			c2.1-3.1,4.1-5.6,5.7-7.1c13.8-12.1,49.1-7.6,58.3,2.8c9.2,10.4,9.3,46-4.5,58.2c-1.5,1.3-3.3,2.6-5.2,3.9
			c-2.3-3.3-4.7-6.5-7.1-9.6C629.6,225,637,205.4,625.3,192.1z M608.6,223.4c-5.4-6.3-11.1-12.4-17.1-18.2
			c5.4-4.2,15.2-5.5,19.6-0.5C615.3,209.5,613.1,218.5,608.6,223.4z M468.1,107.7C479.2,83.4,541,82.3,541,82.3s39.5,47.5,28.4,71.7
			c-0.4,0.8-0.8,1.6-1.2,2.5c-4.2,4.4-8.9,11.2-13.5,18.7c-1.2-0.8-2.4-1.6-3.6-2.4c3.3-4.4,6.1-8.8,8-12.9
			c9.5-20.7-3.1-58.6-22.6-67.5c-19.6-9-56.4,6.2-65.9,27c-1.5,3.4-2.9,9.3-4.1,16.3c-1.3-0.3-2.6-0.7-3.9-1
			C463.7,123.7,465.6,113.2,468.1,107.7z M525.1,117c-16.6-7.6-34,6.4-40.5,20.5c-0.4,0.9-0.8,1.9-1.1,2.9c-3.3-1.1-6.7-2-10-3
			c0.8-4.9,1.7-9.1,2.8-11.5c7.6-16.7,41.8-26.9,54.4-21.1c12.6,5.8,27.2,38.3,19.5,55c-1.3,2.9-3.2,5.9-5.5,8.9
			c-3.2-2-6.4-3.9-9.7-5.7c0.3-0.6,0.7-1.3,1-1.9C542.5,146.9,541.7,124.6,525.1,117z M522.1,153.9c-0.3,0.6-0.6,1.2-0.9,1.8
			c-7.4-3.7-15-7-22.8-10c0.2-0.9,0.5-1.6,0.8-2.3c2.9-6.3,11.8-12,18.1-9.2C523.5,137.1,524.9,147.6,522.1,153.9z M400.5,56.3
			c4.2,2.1,55.1,28.3,54.8,53.8c-0.1,7-1.5,14.7-3.7,22.3c-1.6-0.3-3.2-0.6-4.8-0.9c0.8-4.2,1.3-8.2,1.4-11.8
			c0.2-22.4-25.7-51.1-47-52.4v-0.1c-0.1,0-0.2,0-0.3,0c-0.1,0-0.3,0-0.4,0c-0.1,0-0.3,0-0.4,0c-0.1,0-0.2,0-0.3,0v0.1
			c-21.3,1.2-47.2,30-47,52.4c0,3.6,0.5,7.6,1.4,11.8c-1.6,0.3-3.2,0.6-4.8,0.9c-2.1-7.5-3.6-15.2-3.7-22.3
			C345.4,84.6,396.3,58.5,400.5,56.3z M400.5,127.5c-0.2,0-0.5,0-0.7,0v0c-3.6,0-7.2,0.1-10.7,0.2c0.6-6.3,5.5-13.6,11.4-14.3
			c6,0.8,10.8,8,11.4,14.3c-3.5-0.2-7.1-0.2-10.7-0.2v0C401,127.5,400.7,127.5,400.5,127.5z M401.2,94.4v-0.1c0,0,0,0,0,0
			c-0.2,0-0.5,0-0.7,0.1c-0.2,0-0.5-0.1-0.7-0.1c0,0,0,0,0,0v0.1c-16.9,1.2-26.1,19.6-26.4,34.5c-4,0.4-7.9,0.9-11.8,1.5
			c-0.4-2.5-0.7-4.9-0.7-7.1c-0.2-18.1,25.6-41.5,39.6-42.2c14,0.8,39.8,24.1,39.6,42.2c0,2.2-0.3,4.6-0.7,7.1
			c-3.9-0.6-7.8-1.1-11.8-1.5C427.3,113.9,418.1,95.6,401.2,94.4z M260,82.3c0,0,61.8,1.1,72.9,25.3c2.5,5.5,4.4,16,5.7,27
			c-1.3,0.3-2.6,0.6-3.9,1c-1.2-7-2.6-13-4.1-16.3c-9.5-20.8-46.4-35.9-65.9-27c-19.6,9-32.1,46.8-22.6,67.5c1.9,4.1,4.7,8.5,8,12.9
			c-1.2,0.8-2.4,1.6-3.6,2.4c-4.6-7.5-9.4-14.3-13.5-18.7c-0.4-0.8-0.8-1.6-1.2-2.5C220.5,129.8,260,82.3,260,82.3z M275.9,117
			c-16.6,7.6-17.4,29.9-10.9,44.1c0.3,0.7,0.6,1.3,1,1.9c-3.3,1.8-6.5,3.8-9.7,5.7c-2.2-3-4.2-6-5.5-8.9c-7.7-16.7,6.9-49.2,19.5-55
			c12.6-5.8,46.7,4.4,54.4,21.1c1.1,2.4,2,6.6,2.8,11.5c-3.4,0.9-6.7,1.9-10,3c-0.4-1.1-0.7-2.1-1.1-2.9
			C309.9,123.3,292.5,109.4,275.9,117z M302.7,145.7c-7.8,3-15.4,6.3-22.8,10c-0.3-0.6-0.6-1.1-0.9-1.8c-2.9-6.3-1.4-16.8,4.9-19.7
			c6.3-2.9,15.2,2.8,18.1,9.2C302.2,144.1,302.4,144.9,302.7,145.7z M147.1,166.9c0,0,56.9-24.2,76.9-6.5c0.5,0.4,1,1,1.6,1.5
			c3.9,4.1,8.6,11,13.3,18.6c-0.1,0.1-0.3,0.2-0.4,0.3c-1,0.7-2,1.4-3,2.2c-3.4-4.9-6.5-8.9-8.9-11c-17.1-15.1-56.9-14-71.2,2.2
			c-14.2,16.2-10.3,55.8,6.8,70.9c2.5,2.2,5.6,4.4,9,6.5c-0.9,1.4-1.8,2.8-2.7,4.2c-6.7-3.4-13.1-7.3-18.1-11.7
			C130.3,226.4,147.1,166.9,147.1,166.9z M175.7,192.1c-11.7,13.3-4.3,32.9,6.8,43.6c-2.4,3.2-4.8,6.4-7.1,9.6
			c-1.9-1.2-3.7-2.5-5.2-3.9c-13.8-12.1-13.7-47.8-4.5-58.2c9.2-10.4,44.5-15,58.3-2.8c1.6,1.4,3.6,4,5.7,7.1
			c-2.9,2.3-5.7,4.6-8.5,7c-0.1,0-0.1-0.1-0.2-0.2C209.3,184.1,187.8,178.4,175.7,192.1z M209.5,205.2c-6,5.8-11.7,11.9-17.1,18.2
			c-4.5-5-6.7-14-2.4-18.8C194.3,199.7,204.1,201,209.5,205.2z M71,294.7c0,0,42.1-45.2,67.6-37.2c5.3,1.7,13.3,6.5,21.5,12.2
			c-0.7,1.2-1.3,2.4-2,3.7c-5-3.1-9.4-5.4-12.5-6.4c-21.8-6.8-57.7,10.4-64.1,30.9c-6.4,20.5,13.3,55.2,35,62
			c3.6,1.1,7.7,1.9,12.2,2.4c-0.2,1.1-0.4,2.2-0.5,3.3c-9-1.6-17.3-2.5-23.1-2C79.8,355.6,71,294.7,71,294.7z M125.8,398
			c-15.1,2.5-32.2,14.4-30.2,31.9c1.9,16.7,19.9,24.5,34.8,24.2c0.8,4.1,1.6,8.1,2.5,12.1c-1.5,0.3-2.9,0.6-4.3,0.8
			c-18.2,2.1-44.7-21.8-46.3-35.6c-1.6-13.8,18.6-43.1,36.9-45.2c1.7-0.2,4.2-0.1,7,0.2C126,390.3,125.8,394.1,125.8,398z
			 M127.9,438.3c-6.2-0.8-12.7-5-13.4-10.6c-0.7-5.9,5.3-11.7,11.4-13.7C126.2,422.2,126.9,430.3,127.9,438.3z M107.4,306.1
			c-5.4,17.2,10.1,32.4,24.8,37.3c-0.8,3.8-1.6,7.7-2.3,11.5c-2.7-0.4-5.2-0.9-7.5-1.6c-17.5-5.5-31.9-38.1-27.8-51.3
			c4.1-13.2,34.6-31.8,52.1-26.3c2.1,0.6,4.9,2.1,8,4.1c-1.6,3.3-3.2,6.6-4.7,9.9c-0.1,0-0.2-0.1-0.3-0.1
			C134.8,285.1,112.8,288.6,107.4,306.1z M144,304.3c-3,7.8-5.7,15.8-7.9,23.9c-6.4-2.5-12.5-10.2-10.5-16.5
			C127.5,305.3,137.3,302.5,144,304.3z M57.7,434.3c0,0,20.1-58.3,46.5-61.5c0,0,0,0,0.1,0c5.2-0.6,13.7,0.4,22.8,2.1
			c-0.1,0.6-0.1,1.1-0.2,1.7c-0.1,0.9-0.2,1.7-0.2,2.6c-5-0.6-9.2-0.8-12-0.5c-22.7,2.6-48.5,33-46,54.4c2.5,21.4,34.6,45,57.2,42.4
			c2.8-0.3,5.7-0.9,8.8-1.8c0.4,1.7,0.9,3.3,1.3,5c-6.4,2.4-12.8,4.2-18.9,4.9C90.7,486.5,57.7,434.3,57.7,434.3z M99.3,573.7
			c0,0-5.4-61.5,17.6-75.1c4.7-2.8,13.4-5.4,23-7.7c0.4,1.3,0.9,2.7,1.4,4c-5.4,1.6-9.9,3.3-12.6,4.9
			c-19.6,11.6-30.9,49.8-19.9,68.4c11,18.5,49.9,27.1,69.5,15.5c2.9-1.7,6-4,9-6.6c1,1.3,2.1,2.5,3.2,3.8
			c-5.3,5.4-11,10.2-16.9,13.7C150.6,608.1,99.3,573.7,99.3,573.7z M132.1,554.3c9,15.2,29.9,14.2,43.4,7.1c2.3,3.3,4.7,6.5,7.1,9.6
			c-1.8,1.4-3.5,2.7-5.3,3.8c-15.8,9.4-49.7-1.8-56.7-13.7c-7.1-11.9-0.5-46.9,15.3-56.3c1.8-1,4.5-2.1,7.9-3.1
			c1.3,3.5,2.7,6.9,4.2,10.3C134.7,520.1,122.8,538.7,132.1,554.3z M154.6,526.4c3.7,7.5,7.8,14.8,12.2,21.8
			c-6.1,2.6-15.2,1.8-18.4-3.6C145.1,539,149.2,530.4,154.6,526.4z M270.8,669.7c-15.4,21.8-76.3,11.3-76.3,11.3s-30-54-14.5-75.8
			c3.1-4.4,9.9-10.3,17.7-16.2c0.9,1,1.9,2.1,2.9,3.1c-4.2,3.6-7.5,6.9-9.3,9.4c-13.2,18.6-7.9,58.1,9.6,70.6
			c17.5,12.5,56.6,4.4,69.8-14.2c1.8-2.6,3.6-5.7,5.2-9c1.5,0.8,3,1.5,4.5,2.2C277.8,657.9,274.6,664.4,270.8,669.7z M216.6,650
			c14.2,10.1,32.6,1.1,42.2-10.7c3.4,2.1,6.9,4.1,10.5,6.1c-0.9,1.8-1.9,3.5-3,5c-10.6,15-46.1,18.6-57.4,10.6
			c-11.3-8-19.6-42.7-8.9-57.7c1.1-1.6,3.2-3.6,5.7-5.8c2.6,2.7,5.4,5.3,8.1,7.8C205,618,201.9,639.5,216.6,650z M225.6,615.7
			c6.4,5.3,13,10.3,19.8,15c-4.6,4.6-12.9,7.3-17.9,3.8C222.4,630.8,222.4,621.6,225.6,615.7z M390.2,703.7
			c-5.3,26.2-65.1,41.3-65.1,41.3s-49.3-37.2-44.1-63.3c1.2-6,5.9-15.5,11.3-25.2c1.2,0.5,2.5,1,3.7,1.6c-3.1,6.3-5.5,12-6.2,15.6
			c-4.5,22.4,16.4,56.3,37.5,60.5c21.1,4.3,53.5-19,58-41.3c0.8-4.2,1.2-9.1,1.1-14.3c1.6,0.1,3.1,0.1,4.7,0.2
			C391.8,687.4,391.8,696.1,390.2,703.7z M332.6,707.7c17.9,3.6,31.6-14,34.7-29.3c0.1-0.5,0.2-1,0.3-1.5c3.7,0.5,7.5,0.9,11.3,1.2
			c0,3.5-0.2,6.8-0.8,9.7c-3.6,18-34.5,35.7-48.1,33c-13.6-2.7-35.2-31-31.6-49c0.5-2.6,2.2-6.5,4.5-10.9c3.3,1.2,6.5,2.4,9.9,3.6
			c-0.3,1-0.6,2-0.8,2.9C308.9,682.6,314.7,704.1,332.6,707.7z M327.2,671c0.1-0.6,0.3-1.3,0.6-2c8,2.2,16.1,4.1,24.3,5.6
			c-0.1,0.5-0.1,0.9-0.2,1.4c-1.4,6.8-8.7,14.4-15.5,13.1C329.6,687.7,325.8,677.8,327.2,671z M400.6,662.5
			C400.6,662.5,400.5,662.5,400.6,662.5c-0.1,0-0.1,0-0.2,0c-0.6,0-1.1,0-1.7,0c-3.3,0-6.6-0.1-9.8-0.3c-1.2-0.1-2.3-0.1-3.5-0.2
			c-2.7-0.2-5.3-0.4-8-0.6c-3-0.3-6.1-0.6-9.1-1c-16.9-2.1-33.2-5.9-48.9-11.1c-2.8-0.9-5.6-1.8-8.3-2.9c-2.5-0.9-4.9-1.9-7.3-2.9
			c-1-0.4-2-0.8-3-1.2c-2.2-0.9-4.4-1.9-6.5-2.9c-0.7-0.3-1.4-0.6-2.1-0.9c-2.3-1-4.5-2.1-6.7-3.2c-1.1-0.6-2.2-1.2-3.4-1.7
			c-2.3-1.2-4.6-2.4-6.9-3.7c-2.8-1.6-5.5-3.1-8.3-4.8c-14.9-9.1-28.9-19.6-41.6-31.4c-2.2-2.1-4.4-4.2-6.5-6.3
			c-1.8-1.8-3.6-3.7-5.4-5.5c-0.8-0.8-1.6-1.6-2.3-2.5c-1.1-1.2-2.2-2.4-3.3-3.5c-1-1.1-2-2.3-3-3.5c-1.1-1.3-2.3-2.6-3.4-3.9
			c-0.8-1-1.6-1.9-2.3-2.9c-1.6-2-3.3-4.1-4.8-6.2c-1.9-2.5-3.7-5.1-5.5-7.7c-9.9-14.1-18.4-29.3-25.3-45.3
			c-1.2-2.8-2.3-5.6-3.4-8.4c-0.9-2.4-1.9-4.8-2.8-7.2c-0.4-1.1-0.7-2.1-1.1-3.2c-0.7-2.1-1.4-4.2-2.1-6.3c-0.3-0.9-0.6-1.8-0.8-2.7
			c-0.7-2.2-1.3-4.4-1.9-6.7c-0.3-1.3-0.7-2.5-1-3.7c-0.6-2.5-1.2-5-1.8-7.6c-0.7-3.1-1.4-6.3-2-9.5c-2.9-15.8-4.5-32.1-4.5-48.7
			c0-1.3,0.1-2.5,0.1-3.8c0.1-3.1,0.1-6.1,0.3-9.2c0.1-2.6,0.3-5.1,0.5-7.7c0.1-1.1,0.2-2.3,0.3-3.4c0.1-0.5,0.1-1.1,0.2-1.6
			c0.3-2.6,0.5-5.1,0.9-7.7c0.1-0.7,0.2-1.3,0.3-2c0.2-1.2,0.4-2.4,0.6-3.6c0.4-2.6,0.8-5.2,1.3-7.8c0.6-3.1,1.2-6.1,1.8-9.2
			c3.8-17,9.3-33.3,16.2-48.8c1.2-2.7,2.5-5.5,3.8-8.1c1.1-2.3,2.3-4.7,3.5-7c0.5-1,1.1-2,1.6-2.9c1.5-2.8,3-5.5,4.6-8.2
			c0.1-0.2,0.3-0.4,0.4-0.6c1.7-2.8,3.4-5.6,5.2-8.3c0.7-1,1.4-2.1,2.1-3.1c1.5-2.2,3-4.3,4.5-6.5c1.8-2.6,3.7-5.1,5.7-7.6
			c10.6-13.7,22.4-26.3,35.5-37.7c2.3-2,4.5-3.9,6.9-5.8c2-1.6,4.1-3.2,6.1-4.8c0.9-0.7,1.8-1.4,2.7-2c0.9-0.6,1.7-1.2,2.6-1.9
			c1.7-1.2,3.3-2.4,5-3.6c1-0.7,2-1.4,3-2c1-0.6,1.9-1.3,2.9-1.9c2.2-1.5,4.5-2.9,6.8-4.3c2.6-1.6,5.2-3.1,7.8-4.6
			c14.5-8.1,29.8-14.8,45.8-20c2.8-0.9,5.6-1.8,8.4-2.6c2.5-0.7,5.1-1.4,7.6-2.1c1-0.3,2.1-0.5,3.1-0.8c1.7-0.4,3.3-0.9,5-1.2
			c1.4-0.3,2.8-0.6,4.2-0.8c1.8-0.4,3.6-0.8,5.4-1.1c1.2-0.2,2.4-0.4,3.6-0.6c2.6-0.4,5.2-0.8,7.8-1.2c3.1-0.4,6.2-0.8,9.3-1.1
			c8.3-0.8,16.6-1.2,25.1-1.3c8.5,0,16.8,0.4,25.1,1.3c3.1,0.3,6.2,0.7,9.3,1.1c2.6,0.4,5.2,0.8,7.8,1.2c1.2,0.2,2.4,0.4,3.6,0.6
			c1.8,0.3,3.6,0.7,5.4,1.1c1.4,0.3,2.8,0.5,4.2,0.8c1.7,0.4,3.3,0.8,5,1.2c1,0.3,2.1,0.5,3.1,0.8c2.6,0.7,5.1,1.4,7.6,2.1
			c2.8,0.8,5.6,1.7,8.4,2.6c16,5.2,31.3,11.9,45.8,20c2.6,1.5,5.2,3,7.8,4.6c2.3,1.4,4.6,2.8,6.8,4.3c1,0.6,1.9,1.3,2.9,1.9
			c1,0.7,2,1.3,3,2c1.7,1.2,3.4,2.4,5,3.6c0.9,0.6,1.8,1.2,2.6,1.9c0.9,0.7,1.8,1.4,2.7,2c2.1,1.6,4.1,3.1,6.1,4.8
			c2.3,1.9,4.6,3.8,6.9,5.8c13,11.3,24.9,24,35.5,37.7c1.9,2.5,3.8,5,5.7,7.6c1.5,2.1,3,4.3,4.5,6.5c0.7,1,1.4,2.1,2.1,3.1
			c1.8,2.7,3.5,5.5,5.1,8.3c0.1,0.2,0.3,0.4,0.4,0.6c1.6,2.7,3.1,5.4,4.6,8.2c0.5,1,1.1,2,1.6,2.9c1.2,2.3,2.4,4.6,3.5,7
			c1.3,2.7,2.6,5.4,3.8,8.1c6.9,15.5,12.4,31.9,16.2,48.8c0.7,3,1.3,6.1,1.8,9.2c0.5,2.6,0.9,5.2,1.3,7.8c0.2,1.2,0.4,2.4,0.6,3.6
			c0.1,0.7,0.2,1.3,0.3,2c0.3,2.6,0.6,5.1,0.9,7.7c0.1,0.5,0.1,1.1,0.2,1.6c0.1,1.1,0.2,2.3,0.3,3.4c0.2,2.6,0.4,5.1,0.5,7.7
			c0.2,3,0.2,6.1,0.3,9.2c0,1.3,0.1,2.5,0.1,3.8c0.1,16.7-1.5,32.9-4.5,48.7c-0.6,3.2-1.3,6.4-2,9.5c-0.6,2.5-1.1,5.1-1.8,7.6
			c-0.3,1.3-0.7,2.5-1,3.7c-0.6,2.2-1.2,4.5-1.9,6.7c-0.3,0.9-0.6,1.8-0.8,2.7c-0.7,2.1-1.4,4.2-2.1,6.3c-0.4,1.1-0.7,2.1-1.1,3.2
			c-0.9,2.4-1.8,4.8-2.8,7.2c-1.1,2.8-2.2,5.6-3.4,8.4c-6.9,16-15.4,31.1-25.3,45.3c-1.8,2.6-3.6,5.2-5.5,7.7
			c-1.6,2.1-3.2,4.2-4.8,6.2c-0.8,1-1.6,2-2.3,2.9c-1.1,1.3-2.2,2.6-3.4,3.9c-1,1.2-2,2.3-3,3.5c-1.1,1.2-2.2,2.4-3.3,3.5
			c-0.8,0.8-1.6,1.6-2.3,2.5c-1.8,1.9-3.6,3.7-5.4,5.5c-2.1,2.1-4.3,4.2-6.5,6.3C562.9,605.4,549,615.9,534,625
			c-2.7,1.7-5.5,3.2-8.3,4.8c-2.3,1.3-4.6,2.5-6.9,3.7c-1.1,0.6-2.2,1.2-3.4,1.7c-2.2,1.1-4.4,2.2-6.7,3.2c-0.7,0.3-1.4,0.6-2.1,0.9
			c-2.2,1-4.3,2-6.5,2.9c-1,0.4-2,0.8-3,1.2c-2.4,1-4.9,2-7.3,2.9c-2.7,1-5.5,1.9-8.3,2.9c-15.7,5.2-32.1,9-48.9,11.1
			c-3,0.4-6,0.7-9.1,1c-2.7,0.2-5.3,0.5-8,0.6c-1.2,0.1-2.3,0.1-3.5,0.2c-3.3,0.2-6.5,0.2-9.8,0.3
			C401.7,662.5,401.1,662.5,400.6,662.5z M668.9,554.3c9.3-15.6-2.6-34.2-15.9-42.2c1.5-3.4,2.9-6.9,4.2-10.3c3.3,1,6.1,2,7.9,3.1
			c15.8,9.3,22.4,44.4,15.3,56.3c-7,11.9-40.9,23-56.7,13.7c-1.7-1-3.5-2.3-5.3-3.8c2.4-3.2,4.8-6.4,7.1-9.6
			C639,568.6,659.9,569.5,668.9,554.3z M634.2,548.2c4.4-7.1,8.5-14.3,12.2-21.8c5.5,4,9.5,12.7,6.2,18.2
			C649.3,550.1,640.3,550.8,634.2,548.2z M584.4,650c14.7-10.4,11.6-31.9,2.9-44.7c2.8-2.6,5.5-5.2,8.1-7.8c2.5,2.2,4.5,4.2,5.7,5.8
			c10.6,15,2.4,49.6-8.9,57.7c-11.3,8-46.7,4.4-57.4-10.6c-1.1-1.5-2-3.2-3-5c3.5-1.9,7-4,10.5-6.1C551.8,651.1,570.3,660,584.4,650
			z M555.5,630.7c6.8-4.7,13.5-9.7,19.8-15c3.2,5.9,3.2,15.1-2,18.8C568.4,638,560.1,635.3,555.5,630.7z M468.4,707.7
			c17.9-3.6,23.8-25.1,20.7-40.4c-0.2-0.9-0.5-1.9-0.8-2.9c3.3-1.1,6.6-2.3,9.9-3.6c2.3,4.4,3.9,8.3,4.5,10.9
			c3.6,18-18,46.3-31.6,49c-13.6,2.7-44.5-15-48.1-33c-0.6-2.9-0.8-6.2-0.8-9.7c3.8-0.3,7.6-0.7,11.3-1.2c0.1,0.5,0.2,1,0.3,1.5
			C436.7,693.7,450.4,711.3,468.4,707.7z M448.9,674.6c8.2-1.5,16.4-3.4,24.3-5.6c0.3,0.7,0.5,1.4,0.6,2c1.4,6.8-2.5,16.7-9.2,18
			c-6.7,1.3-14.1-6.2-15.5-13.1C449,675.5,449,675.1,448.9,674.6z M475.9,745.1c0,0-59.9-15.2-65.1-41.3c-1.5-7.6-1.6-16.4-0.9-25
			c1.6-0.1,3.1-0.1,4.7-0.2c0,5.2,0.3,10.1,1.1,14.3c4.5,22.4,36.9,45.6,58,41.3c21.1-4.2,42-38.2,37.5-60.5
			c-0.7-3.6-3.1-9.2-6.2-15.6c1.2-0.5,2.5-1,3.7-1.6c5.4,9.7,10.1,19.2,11.3,25.2C525.2,707.9,475.9,745.1,475.9,745.1z M606.5,681
			c0,0-60.9,10.5-76.3-11.3c-3.8-5.3-7-11.9-9.6-18.7c1.5-0.7,3-1.5,4.5-2.2c1.6,3.3,3.4,6.4,5.2,9c13.2,18.6,52.3,26.6,69.8,14.2
			c17.5-12.5,22.8-52,9.6-70.6c-1.8-2.5-5.1-5.7-9.3-9.4c1-1,1.9-2.1,2.9-3.1c7.7,5.9,14.5,11.8,17.7,16.2
			C636.5,627,606.5,681,606.5,681z M701.7,573.7c0,0-51.3,34.3-74.3,20.8c-5.8-3.5-11.6-8.3-16.9-13.7c1.1-1.3,2.1-2.5,3.2-3.8
			c3,2.6,6.1,4.9,9,6.6c19.6,11.6,58.6,3.1,69.5-15.5c11-18.5-0.3-56.7-19.9-68.4c-2.7-1.6-7.2-3.2-12.6-4.9c0.5-1.3,0.9-2.6,1.4-4
			c9.6,2.3,18.3,4.9,23,7.7C707.1,512.2,701.7,573.7,701.7,573.7z M683.8,483.5c-6.1-0.7-12.6-2.5-18.9-4.9c0.5-1.6,0.9-3.3,1.3-5
			c3.1,0.8,6.1,1.5,8.8,1.8c22.7,2.6,54.8-21,57.2-42.4c2.5-21.4-23.3-51.7-46-54.4c-2.8-0.3-7.1-0.1-12,0.5
			c-0.1-0.9-0.2-1.7-0.2-2.6c-0.1-0.6-0.1-1.1-0.2-1.7c9.2-1.7,17.6-2.7,22.8-2.1c0,0,0,0,0.1,0c26.5,3.1,46.5,61.5,46.5,61.5
			S710.3,486.5,683.8,483.5z"/>
	</g>
	<path class="st4" d="M677.5,405.4c-1.1,152.3-125.5,274.8-277.8,273.7C247.5,678,124.9,553.6,126.1,401.4
		c1.1-152.3,125.5-274.8,277.8-273.7C556.1,128.8,678.7,253.1,677.5,405.4z"/>
	<path class="st5" d="M661.1,405.3c-1.1,143.2-118,258.4-261.2,257.4c-143.2-1.1-258.4-118-257.4-261.2
		c1.1-143.2,118-258.4,261.2-257.4C546.9,145.2,662.2,262.1,661.1,405.3z"/>
	<path class="st6" d="M641,405.2c-1,132.1-108.9,238.4-241,237.4c-132.1-1-238.4-108.9-237.4-241c1-132.1,108.9-238.4,241-237.4
		C535.7,165.1,642,273.1,641,405.2z"/>
	<path class="st4" d="M569.9,402c-0.7,92.8-76.5,167.5-169.3,166.8c-92.8-0.7-167.5-76.5-166.8-169.3
		c0.7-92.8,76.5-167.5,169.3-166.8C495.9,233.3,570.6,309.2,569.9,402z"/>
	<path class="st6" d="M556.8,401.9c-0.6,85.6-70.5,154.4-156.1,153.8c-85.6-0.6-154.4-70.5-153.8-156.1
		c0.6-85.6,70.5-154.4,156.1-153.8C488.5,246.4,557.4,316.3,556.8,401.9z"/>
	<path class="st5" d="M498.7,401.4c-0.4,53.5-44.1,96.5-97.6,96.1c-53.5-0.4-96.5-44.1-96.1-97.6c0.4-53.5,44.1-96.5,97.6-96.1
		C456,304.3,499.1,348,498.7,401.4z"/>
	<path class="st7" d="M465.1,401.2c-0.3,34.9-28.8,63-63.7,62.8c-34.9-0.3-63-28.8-62.8-63.7c0.3-34.9,28.8-63,63.7-62.8
		C437.2,337.7,465.3,366.3,465.1,401.2z"/>
	<path class="st4" d="M439.1,401c-0.2,20.6-16.9,37.1-37.5,37c-20.5-0.2-37.1-16.9-37-37.5c0.2-20.6,17-37.1,37.5-37
		C422.7,363.6,439.2,380.4,439.1,401z"/>
	<path class="st8" d="M423.1,400.9c-0.1,11.7-9.7,21.2-21.4,21.1c-11.7-0.1-21.2-9.7-21.1-21.4c0.1-11.7,9.7-21.2,21.4-21.1
		C413.7,379.5,423.2,389.1,423.1,400.9z"/>
	<g>
		<g>
			<path class="st1" d="M333.7,233.9c-3.7,1.7-4.6,7.9-2.9,11.6c0.4,0.8,0.8,1.5,1.2,2.1c4.3-2,8.7-3.8,13.2-5.4
				c-0.2-1.1-0.5-2.2-0.8-3C342.7,235.6,337.4,232.3,333.7,233.9z"/>
			<path class="st1" d="M271.9,276.9c-2.7,3.1-1,9.1,2.1,11.8c0.5,0.4,1,0.8,1.6,1.2c3.2-3.6,6.5-7.1,10-10.4
				c-0.5-0.8-1.1-1.5-1.7-1.9C280.8,274.8,274.6,273.8,271.9,276.9z"/>
			<path class="st1" d="M234.4,344.6c-1.1,3.7,2.3,8.1,6,9.6c1.4-4.8,2.9-9.5,4.7-14C241.2,339.2,235.6,340.8,234.4,344.6z"/>
			<path class="st1" d="M226,419.4c0.5,3.9,5.7,6.6,9.8,6.3c-0.7-4.9-1.2-9.8-1.5-14.8C230.2,411.5,225.6,415.4,226,419.4z"/>
			<path class="st1" d="M249.8,490c1.9,3.3,7.6,3.7,11.2,2c-2.7-4.1-5.2-8.4-7.5-12.7C250.2,481.6,247.8,486.7,249.8,490z"/>
			<path class="st1" d="M301.1,546.2c3.3,2.4,9.1,0,11.5-3.3c0,0,0,0,0,0c-4.2-2.7-8.3-5.5-12.3-8.5
				C298.1,537.8,297.8,543.9,301.1,546.2z"/>
			<path class="st1" d="M358.6,564.6c-0.8,4,1.5,9.9,5.5,10.7c4,0.8,8.3-3.7,9.2-7.7c0.1-0.5,0.2-0.9,0.2-1.4
				c-4.9-0.8-9.7-1.8-14.4-3.1C358.9,563.6,358.7,564.1,358.6,564.6z"/>
			<path class="st1" d="M468.5,233.9c-3.7-1.7-9,1.7-10.7,5.4c-0.4,0.8-0.6,1.9-0.8,3c4.5,1.6,8.9,3.4,13.2,5.4
				c0.4-0.6,0.9-1.4,1.2-2.1C473,241.8,472.2,235.7,468.5,233.9z"/>
			<path class="st1" d="M518.3,277.5c-0.5,0.5-1.1,1.2-1.7,1.9c3.5,3.3,6.8,6.8,10,10.4c0.5-0.3,1-0.7,1.6-1.2
				c3.1-2.7,4.8-8.7,2.1-11.8C527.5,273.8,521.3,274.8,518.3,277.5z"/>
			<path class="st1" d="M567.8,344.6c-1.2-3.8-6.8-5.4-10.7-4.4c1.8,4.6,3.3,9.3,4.7,14C565.4,352.7,568.9,348.2,567.8,344.6z"/>
			<path class="st1" d="M567.9,410.9c-0.3,5-0.8,9.9-1.5,14.8c4,0.3,9.3-2.4,9.8-6.3C576.6,415.4,571.9,411.5,567.9,410.9z"/>
			<path class="st1" d="M548.7,479.2c-2.3,4.4-4.8,8.6-7.5,12.7c3.6,1.7,9.3,1.3,11.2-2C554.3,486.7,551.9,481.6,548.7,479.2z"/>
			<path class="st1" d="M489.5,542.9C489.5,542.9,489.5,542.9,489.5,542.9c2.4,3.4,8.2,5.7,11.5,3.4c3.3-2.3,3-8.4,0.7-11.8
				C497.9,537.4,493.8,540.2,489.5,542.9z"/>
			<path class="st1" d="M443.1,563.1c-4.7,1.2-9.5,2.2-14.4,3.1c0,0.5,0.1,0.9,0.2,1.4c0.8,4,5.2,8.5,9.2,7.7
				c4-0.8,6.3-6.6,5.5-10.7C443.5,564.1,443.3,563.6,443.1,563.1z"/>
			<path class="st1" d="M401.8,219.9v-0.2c-0.1,0-0.1,0-0.2,0c-0.2,0-0.4,0.1-0.6,0.1c-0.2,0-0.4-0.1-0.6-0.1c-0.1,0-0.1,0-0.2,0
				v0.2c-3.5,1-6.1,5.6-6.1,9.2c0,1.3,0.2,2.5,0.5,3.5c2.1-0.1,4.2-0.1,6.3-0.1c2.1,0,4.2,0.1,6.3,0.1c0.3-1,0.5-2.2,0.5-3.5
				C407.9,225.5,405.3,220.9,401.8,219.9z"/>
		</g>
		<g>
			<path class="st2" d="M362.4,190.4c4.5-1,11.3-9,9.9-15.2c-0.4-1.8-2.1-5.4-2.1-5.4l-23.3,5.3c0,0-0.2,4.4,0,5.7
				C348.3,187.1,357.9,191.4,362.4,190.4z"/>
			<path class="st2" d="M281.7,224.9c3.9-2.6,7.2-12.5,3.7-17.8c-1-1.5-3.9-4.2-3.9-4.2l-19.8,13.5c0,0,1.4,4.2,2.2,5.3
				C267.4,226.9,277.9,227.5,281.7,224.9z"/>
			<path class="st2" d="M201.4,294.6c5.4,3.2,15.1-0.7,17.5-4.7c2.4-4,1.2-14.4-4.2-17.6c-1.5-0.9-5.3-2.2-5.3-2.2l-12.2,20.6
				C197.2,290.7,200.3,294,201.4,294.6z"/>
			<path class="st2" d="M189.9,368.7c0.9-4.6-3.9-13.9-10.1-15.1c-1.8-0.3-5.8-0.2-5.8-0.2l-4.3,23.5c0,0,4,2,5.3,2.2
				C181.3,380.3,189,373.3,189.9,368.7z"/>
			<path class="st2" d="M180.6,458c-1.7,0.5-5.2,2.5-5.2,2.5l7.1,22.8c0,0,4.5-0.1,5.7-0.5c6-1.9,9.6-11.7,8.3-16.2
				C195.1,462.2,186.6,456.1,180.6,458z"/>
			<path class="st2" d="M219.8,539.1c-1.3,1.2-3.7,4.4-3.7,4.4l15.8,18c0,0,4-2,5-2.8c4.8-4.2,4-14.6,1-18.1
				C234.8,537.1,224.6,535,219.8,539.1z"/>
			<path class="st2" d="M308.9,598.1c-4.2-2-14.5,0.3-17.1,6c-0.8,1.6-1.6,5.5-1.6,5.5l21.8,10c0,0,2.9-3.4,3.4-4.6
				C318,609.3,313.1,600,308.9,598.1z"/>
			<path class="st2" d="M311.8,258.8c0.8-0.5,1.5-1,2.3-1.5c-2.1-2.8-4-5.6-5.1-8.2c-5.6-12.3,1.8-34.6,13.4-39.9
				c11.6-5.3,33.4,3.7,39,15.9c1.1,2.3,2,6.7,2.8,11.7c0.7-0.2,1.5-0.4,2.2-0.5c-0.1-0.5-0.1-1-0.2-1.5c-1.4-4.8-2.4-9.7-2.7-14.5
				c-0.2-0.8-0.5-1.4-0.8-2c-6.6-14.4-32.4-19.9-43.1-15c-10.7,4.9-23.4,28.1-16.8,42.4C304.9,250.2,308.2,254.7,311.8,258.8z"/>
			<path class="st2" d="M353,235.9c0.4,1,0.8,2.2,1.2,3.6c1.9-0.6,3.8-1.1,5.7-1.6c-0.5-3.8-1.1-7.1-2-8.8
				c-4.5-9.9-24.7-15.9-32.2-12.5c-7.5,3.4-16.1,22.6-11.6,32.5c0.9,1.9,2.2,4,3.8,6c1.9-1.1,3.8-2.1,5.7-3.1
				c-0.4-0.7-0.7-1.4-1.1-2.1c-3.9-8.4-3.4-21.6,6.4-26.1C338.9,219.2,349.1,227.5,353,235.9z"/>
			<path class="st2" d="M261.6,308.2c0.5-0.8,1-1.5,1.5-2.3c-2.9-1.6-5.5-3.3-7.6-5.2c-10.1-8.9-12.4-32.4-4-41.9
				c8.4-9.6,32-10.2,42.1-1.3c1.8,1.6,4.3,5,7,9.1c0.6-0.5,1.2-0.9,1.8-1.4c-3.6-6.1-7.4-12-10.3-14.5c-11.8-10.4-37.7-5-45.5,3.8
				c-7.8,8.9-9.9,35.2,1.9,45.6C252.1,303.3,256.8,306,261.6,308.2z"/>
			<path class="st2" d="M290.3,270.8c0.7,0.6,1.4,1.4,2.2,2.3c1.5-1.3,3-2.6,4.6-3.8c-1.9-3-3.7-5.5-5-6.8c-8.1-7.2-29-4.5-34.5,1.7
				c-5.4,6.1-5.5,27.2,2.7,34.4c1.5,1.3,3.4,2.5,5.4,3.7c1.3-1.8,2.6-3.5,3.9-5.3c-0.5-0.4-0.9-0.8-1.4-1.2
				c-6.9-6.1-11.9-18.3-4.7-26.5C270.7,261.3,283.4,264.7,290.3,270.8z"/>
			<path class="st2" d="M202.2,334.5c-3.5,11.3,5.2,36.2,20.3,40.9c3.9,1.2,8.5,1.8,13.1,2c0.1-1,0.3-1.9,0.5-2.9
				c-2.5-0.3-4.8-0.7-6.9-1.4c-12.9-4-24.5-24.5-20.7-36.7c3.8-12.1,25.1-22.3,37.9-18.3c1.8,0.6,4.3,1.9,7.2,3.7
				c0.4-0.7,0.8-1.5,1.2-2.2c-4.8-3.3-9.5-6.2-12.6-7.1C227.1,307.8,205.7,323.2,202.2,334.5z"/>
			<path class="st2" d="M248.7,331.6C248.7,331.6,248.7,331.6,248.7,331.6c0.9-2,1.8-4,2.8-5.9c-1.8-1.1-3.4-2-4.6-2.3
				c-10.4-3.2-28.4,7.7-30.8,15.5c-2.5,7.8,6.1,27.1,16.4,30.4c1.2,0.4,2.6,0.7,4.1,0.9c0.4-2.3,0.9-4.6,1.4-6.9
				c-8.6-3-17.6-11.9-14.4-22C226.9,330.9,239.9,328.8,248.7,331.6z"/>
			<path class="st2" d="M227.6,452.4c4.3-0.5,8.9-1.9,13.3-3.7c-0.3-0.9-0.5-1.8-0.8-2.7c-2.6,0.8-5.1,1.4-7.4,1.7
				c-13.4,1.6-32.4-12.4-33.9-25.1c-1.5-12.7,13.8-30.6,27.2-32.2c1.8-0.2,4.7,0,8.1,0.4c0-0.8,0.1-1.7,0.2-2.5
				c-5.7-1.1-11.1-1.8-14.4-1.4c-15.7,1.8-28.9,24.7-27.6,36.4C193.8,435,212,454.2,227.6,452.4z"/>
			<path class="st2" d="M228.8,394.8c-10.8,1.3-22.8,18.6-21.8,26.8c0.9,8.1,16.6,22.3,27.4,21c1.4-0.2,3-0.5,4.6-1
				c-0.6-2.2-1.1-4.5-1.5-6.7c-9.1,1-21.4-3.5-22.6-14.2c-1.3-10.8,9.8-18,19-19c0,0,0.1,0,0.1,0c0-0.6,0-1.1,0-1.7
				c0-1.6,0.1-3.3,0.1-4.9C231.9,394.8,230.1,394.7,228.8,394.8z"/>
			<path class="st2" d="M273.3,508.6c-2,1.7-4,3.3-5.9,4.4c-11.6,6.9-34.7,1.8-41.1-9.1c-6.5-11,0.2-33.6,11.8-40.4
				c1.5-0.9,4-1.8,7-2.7c-0.3-0.8-0.6-1.6-0.9-2.4c-5.4,1.3-10.3,2.8-13,4.4c-13.6,8-16.4,34.3-10.4,44.4c6,10.2,30.4,20.3,44,12.3
				c3.7-2.2,7.2-5.3,10.5-8.7C274.6,510.1,273.9,509.4,273.3,508.6z"/>
			<path class="st2" d="M233.3,499.8c4.2,7,24.2,13.6,33.6,8.1c1.2-0.7,2.4-1.6,3.6-2.7c-1.5-1.8-2.9-3.7-4.2-5.5
				c-8,4.5-20.7,5.2-26.2-3.9c-5.4-9.2,1.4-20.1,9.2-24.9c-0.9-2-1.8-4-2.7-6.1c-1.8,0.6-3.3,1.1-4.3,1.7
				C233,472,229.1,492.7,233.3,499.8z"/>
			<path class="st2" d="M330.6,552.7c-1.2,2.8-2.6,5.3-4,7.4c-7.8,11-30.9,15.8-41.3,8.4c-10.4-7.4-13.5-30.7-5.7-41.7
				c1-1.5,3-3.4,5.5-5.5c-0.6-0.6-1.2-1.2-1.8-1.7c-4.5,3.5-8.5,6.9-10.3,9.5c-9.2,12.9-1,38,8.6,44.8c9.6,6.8,36,6.2,45.2-6.7
				c0.1-0.2,0.3-0.4,0.4-0.6c1.2-3.6,3.4-8.1,5.9-12.7C332.2,553.4,331.4,553.1,330.6,552.7z"/>
			<path class="st2" d="M290,561.8c6.7,4.7,27.7,2.6,33.9-6.3c1-1.4,1.8-3,2.7-4.8c-2-1-4-2.1-6-3.1c-0.1,0.1-0.1,0.2-0.2,0.3
				c-5.3,7.5-17,13.7-25.8,7.5c-8.8-6.3-6.8-19.3-1.4-26.8c0,0,0,0,0,0c-1.7-1.4-3.3-2.9-4.9-4.3c-1.5,1.3-2.8,2.5-3.5,3.5
				C278.4,536.6,283.3,557.1,290,561.8z"/>
			<path class="st2" d="M396,583.9c0.9-4.7,0.9-10.2,0.4-15.5c-0.9,0-1.8,0-2.7-0.1c0,3.3-0.1,6.5-0.7,9.2
				c-2.7,13.2-21.8,27-34.3,24.5c-12.5-2.5-24.8-22.6-22.2-35.8c0.4-2.1,1.9-5.5,3.7-9.3c-0.7-0.3-1.3-0.5-2-0.8
				c-0.1,0-0.1,0-0.2-0.1c-2.6,4.6-4.9,9.2-6.1,12.7c-0.3,0.8-0.5,1.6-0.6,2.3c-3.1,15.5,14.5,35.1,26.1,37.5
				C369,610.7,392.8,599.4,396,583.9z"/>
			<path class="st2" d="M360.3,594c8,1.6,26.3-8.9,28.5-19.5c0.4-1.9,0.5-4.1,0.5-6.4c-2.2-0.2-4.4-0.4-6.6-0.6
				c-0.1,0.5-0.2,1-0.3,1.5c-1.8,9.1-9.9,19.4-20.5,17.3c-10.6-2.1-14.1-14.9-12.2-23.9c0.1-0.6,0.3-1.2,0.5-1.9
				c-2-0.6-3.9-1.3-5.8-2c-1.4,2.6-2.4,5-2.7,6.6C339.5,575.7,352.3,592.4,360.3,594z"/>
			<path class="st2" d="M368.7,217.8c0,0.4,0.1,0.8,0.1,1.3c0.2,4.5,1.3,9.3,2.7,14c0.2,0.7,0.4,1.4,0.6,2.1
				c0.8-0.2,1.7-0.3,2.5-0.4c-1-4-1.7-7.9-1.8-11.3c-0.1-13.4,15.5-30.7,28.2-31c12.7,0.4,28.4,17.6,28.2,31c0,3.3-0.7,7.3-1.8,11.3
				c0.8,0.1,1.7,0.3,2.5,0.4c0.2-0.7,0.4-1.4,0.6-2.1c1.4-4.7,2.5-9.5,2.7-14c0-0.4,0.1-0.8,0.1-1.3c0.2-15.4-19.8-31-31.7-31.8v0
				c-0.2,0-0.4,0-0.5,0c-0.1,0-0.1,0-0.2,0c-0.1,0-0.1,0-0.2,0c-0.2,0-0.4,0-0.5,0v0C388.4,186.9,368.5,202.5,368.7,217.8z"/>
			<path class="st2" d="M401.1,208.5c10.5,0.4,16.1,12.1,16,21.2c0,1.2-0.1,2.5-0.2,3.7c2.1,0.2,4.1,0.5,6.2,0.8
				c0.8-3,1.4-5.9,1.4-8.5c0.1-10.4-14.3-23.7-22.7-24.9v-0.1c-0.1,0-0.3,0-0.4,0c-0.1,0-0.2,0-0.4,0c-0.1,0-0.2,0-0.4,0
				c-0.1,0-0.3,0-0.4,0v0.1c-8.4,1.2-22.8,14.5-22.7,24.9c0,2.6,0.6,5.5,1.4,8.5c2.1-0.3,4.1-0.6,6.2-0.8c-0.1-1.2-0.2-2.4-0.2-3.7
				C384.9,220.5,390.5,208.9,401.1,208.5z"/>
			<path class="st2" d="M439.7,190.4c4.6,1,14.1-3.3,15.5-9.5c0.3-1.3,0-5.7,0-5.7l-23.3-5.3c0,0-1.7,3.6-2.1,5.4
				C428.4,181.4,435.2,189.4,439.7,190.4z"/>
			<path class="st2" d="M520.5,224.9c3.9,2.6,14.3,2.1,17.9-3.2c0.7-1.1,2.2-5.3,2.2-5.3l-19.8-13.5c0,0-2.9,2.7-3.9,4.2
				C513.2,212.3,516.6,222.2,520.5,224.9z"/>
			<path class="st2" d="M600.8,294.6c1.1-0.7,4.2-3.9,4.2-3.9l-12.2-20.6c0,0-3.8,1.2-5.3,2.2c-5.4,3.2-6.6,13.7-4.2,17.6
				C585.6,294,595.3,297.9,600.8,294.6z"/>
			<path class="st2" d="M628.1,353.4c0,0-4-0.2-5.8,0.2c-6.2,1.2-10.9,10.5-10.1,15.1c0.9,4.6,8.6,11.6,14.8,10.5
				c1.3-0.2,5.3-2.2,5.3-2.2L628.1,353.4z"/>
			<path class="st2" d="M605.6,466.7c-1.4,4.4,2.2,14.3,8.3,16.2c1.2,0.4,5.7,0.5,5.7,0.5l7.1-22.8c0,0-3.5-2-5.2-2.5
				C615.5,456.1,607,462.2,605.6,466.7z"/>
			<path class="st2" d="M582.4,539.1c-4.8-4.2-15-2.1-18.1,1.5c-3.1,3.5-3.8,14,1,18.1c1,0.8,5,2.8,5,2.8l15.8-18
				C586.1,543.6,583.7,540.3,582.4,539.1z"/>
			<path class="st2" d="M493.3,598.1c-4.2,2-9.1,11.2-6.5,17c0.5,1.2,3.4,4.6,3.4,4.6l21.8-10c0,0-0.8-3.9-1.6-5.5
				C507.7,598.4,497.5,596.1,493.3,598.1z"/>
			<path class="st2" d="M401.3,617.6c-0.1,0-0.2,0-0.3,0c-0.1,0-0.2,0-0.2,0c-4.7,0-13,6.3-13,12.6c0,1.8,0.9,5.7,0.9,5.7l12.4,0
				l12.4,0c0,0,0.9-3.9,0.9-5.7C414.4,624,406,617.6,401.3,617.6z"/>
			<path class="st2" d="M439.4,218.2c-0.3,0.6-0.5,1.3-0.8,2c-0.2,4.8-1.3,9.8-2.7,14.5c-0.1,0.5-0.1,1-0.2,1.5
				c0.7,0.2,1.5,0.4,2.2,0.5c0.8-5,1.7-9.4,2.8-11.7c5.6-12.3,27.4-21.3,39-15.9c11.6,5.3,19,27.7,13.4,39.9c-1.2,2.6-3,5.4-5.1,8.2
				c0.8,0.5,1.5,1,2.3,1.5c3.6-4.1,7-8.6,9-13.1c6.6-14.3-6.1-37.5-16.8-42.4C471.8,198.3,446,203.9,439.4,218.2z"/>
			<path class="st2" d="M473.1,223.7c9.8,4.5,10.3,17.7,6.4,26.1c-0.3,0.7-0.7,1.4-1.1,2.1c1.9,1,3.8,2.1,5.7,3.1c1.6-2,2.9-4,3.8-6
				c4.5-9.9-4.1-29.1-11.6-32.5c-7.4-3.4-27.6,2.6-32.2,12.5c-0.8,1.8-1.5,5.1-2,8.8c1.9,0.5,3.8,1,5.7,1.6c0.4-1.4,0.8-2.6,1.2-3.6
				C453,227.5,463.3,219.2,473.1,223.7z"/>
			<path class="st2" d="M501.6,266.6c2.6-4,5.1-7.5,7-9.1c10.1-8.9,33.7-8.3,42.1,1.3c8.4,9.6,6.1,33-4,41.9
				c-2.1,1.8-4.7,3.5-7.6,5.2c0.5,0.8,1,1.5,1.5,2.3c4.8-2.2,9.5-4.9,13.1-8.1c11.8-10.4,9.7-36.8,1.9-45.6
				c-7.8-8.8-33.7-14.3-45.5-3.8c-2.9,2.6-6.8,8.4-10.3,14.5C500.4,265.7,501,266.1,501.6,266.6z"/>
			<path class="st2" d="M538.7,269.4c7.2,8.1,2.2,20.3-4.7,26.5c-0.5,0.4-0.9,0.8-1.4,1.2c1.3,1.7,2.7,3.5,3.9,5.3
				c2.1-1.1,3.9-2.4,5.4-3.7c8.2-7.2,8.1-28.3,2.7-34.4c-5.4-6.2-26.3-8.9-34.5-1.7c-1.4,1.2-3.2,3.7-5,6.8c1.6,1.2,3.1,2.5,4.6,3.8
				c0.8-0.9,1.5-1.7,2.2-2.3C518.7,264.7,531.5,261.3,538.7,269.4z"/>
			<path class="st2" d="M547.4,319.6c0.4,0.7,0.8,1.5,1.2,2.2c2.9-1.8,5.4-3.1,7.2-3.7c12.9-4,34.1,6.1,37.9,18.3
				c3.8,12.2-7.9,32.7-20.7,36.7c-2,0.6-4.4,1.1-6.9,1.4c0.1,1,0.3,1.9,0.5,2.9c4.6-0.2,9.1-0.8,13.1-2
				c15.1-4.7,23.8-29.6,20.3-40.9c-3.5-11.3-24.9-26.7-40-22C556.9,313.5,552.3,316.3,547.4,319.6z"/>
			<path class="st2" d="M578.5,341.2c3.1,10.1-5.8,19-14.4,22c0.5,2.3,1,4.6,1.4,6.9c1.5-0.2,2.9-0.5,4.1-0.9
				c10.4-3.3,18.9-22.5,16.4-30.4c-2.4-7.8-20.4-18.8-30.8-15.5c-1.2,0.4-2.8,1.2-4.6,2.3c1,2,1.9,3.9,2.8,5.9c0,0,0,0,0,0
				C562.2,328.8,575.3,330.9,578.5,341.2z"/>
			<path class="st2" d="M582.1,386.9c-3.2-0.4-8.6,0.3-14.4,1.4c0.1,0.8,0.1,1.7,0.2,2.5c3.3-0.4,6.2-0.6,8.1-0.4
				c13.4,1.6,28.7,19.5,27.2,32.2c-1.5,12.7-20.5,26.6-33.9,25.1c-2.3-0.3-4.8-0.9-7.4-1.7c-0.3,0.9-0.5,1.8-0.8,2.7
				c4.4,1.8,9,3.2,13.3,3.7c15.7,1.8,33.8-17.4,35.2-29.1C611.1,411.5,597.8,388.7,582.1,386.9z"/>
			<path class="st2" d="M564.7,434.9c-0.5,2.3-1,4.5-1.5,6.7c1.6,0.5,3.1,0.8,4.6,1c10.8,1.3,26.4-12.9,27.4-21
				c1-8.2-11-25.5-21.8-26.8c-1.2-0.1-3.1,0-5.2,0.3c0.1,1.6,0.1,3.2,0.1,4.9c0,0.6,0,1.1,0,1.7c0,0,0.1,0,0.1,0
				c9.2,1.1,20.2,8.3,19,19C586.1,431.3,573.8,435.8,564.7,434.9z"/>
			<path class="st2" d="M581.5,507.2c6-10.2,3.2-36.4-10.4-44.4c-2.7-1.6-7.6-3.1-13-4.4c-0.3,0.8-0.6,1.6-0.9,2.4
				c3,0.9,5.5,1.8,7,2.7c11.6,6.9,18.3,29.5,11.8,40.4c-6.5,11-29.5,16-41.1,9.1c-1.9-1.1-3.9-2.7-5.9-4.4c-0.6,0.7-1.2,1.5-1.9,2.2
				c3.3,3.4,6.9,6.5,10.5,8.7C551.1,527.5,575.4,517.4,581.5,507.2z"/>
			<path class="st2" d="M568.9,499.8c4.2-7.1,0.3-27.8-9.1-33.3c-1-0.6-2.5-1.1-4.3-1.7c-0.9,2.1-1.8,4.1-2.7,6.1
				c7.8,4.8,14.7,15.7,9.2,24.9c-5.4,9.2-18.2,8.4-26.2,3.9c-1.4,1.9-2.8,3.7-4.2,5.5c1.2,1,2.4,1.9,3.6,2.7
				C544.6,513.4,564.7,506.8,568.9,499.8z"/>
			<path class="st2" d="M518.9,519.5c-0.6,0.6-1.2,1.2-1.8,1.7c2.4,2.1,4.4,4.1,5.5,5.5c7.8,11,4.7,34.4-5.7,41.7
				c-10.4,7.4-33.5,2.6-41.3-8.4c-1.5-2.1-2.8-4.6-4-7.4c-0.8,0.4-1.6,0.7-2.4,1.1c2.5,4.6,4.7,9.1,5.9,12.7
				c0.1,0.2,0.3,0.4,0.4,0.6c9.1,12.9,35.5,13.5,45.2,6.7c9.6-6.8,17.7-32,8.6-44.8C527.4,526.4,523.4,522.9,518.9,519.5z"/>
			<path class="st2" d="M512.2,561.8c6.7-4.8,11.6-25.3,5.3-34.1c-0.7-1-1.9-2.2-3.5-3.5c-1.6,1.5-3.3,2.9-4.9,4.3c0,0,0,0,0,0
				c5.3,7.5,7.4,20.6-1.4,26.8c-8.8,6.3-20.5,0.1-25.8-7.5c-0.1-0.1-0.2-0.2-0.2-0.3c-2,1.1-4,2.1-6,3.1c0.8,1.8,1.7,3.5,2.7,4.8
				C484.5,564.4,505.5,566.6,512.2,561.8z"/>
			<path class="st2" d="M470.2,568.7c-1.2-3.5-3.5-8-6.1-12.7c-0.1,0-0.1,0-0.2,0.1c-0.7,0.3-1.3,0.5-2,0.8c1.9,3.8,3.3,7.2,3.7,9.3
				c2.7,13.2-9.7,33.3-22.2,35.8c-12.5,2.5-31.7-11.2-34.3-24.5c-0.5-2.7-0.7-5.8-0.7-9.2c-0.9,0-1.8,0-2.7,0.1
				c-0.5,5.3-0.5,10.8,0.4,15.5c3.1,15.5,27,26.8,38.5,24.4c11.6-2.3,29.2-22,26.1-37.5C470.7,570.3,470.5,569.5,470.2,568.7z"/>
			<path class="st2" d="M441.8,594c8.1-1.6,20.9-18.4,18.7-29c-0.3-1.6-1.3-3.9-2.7-6.6c-1.9,0.7-3.9,1.4-5.8,2
				c0.2,0.7,0.4,1.3,0.5,1.9c1.8,9.1-1.6,21.8-12.2,23.9c-10.6,2.1-18.7-8.3-20.5-17.3c-0.1-0.5-0.2-1-0.3-1.5
				c-2.2,0.3-4.4,0.4-6.6,0.6c0,2.3,0.1,4.5,0.5,6.4C415.5,585.2,433.8,595.6,441.8,594z"/>
		</g>
		<path class="st3" d="M582.1,381.6c-1.4-0.2-3-0.2-4.8-0.1c1.2-0.3,2.3-0.6,3.4-0.9c17.8-5.6,30-32,25-47.9
			c-5-15.9-30-30.7-47.9-25.1c-3.4,1.1-8.2,3.9-13.1,7.2c-0.4-0.6-0.8-1.3-1.1-1.9c4.7-2.3,9.3-5.1,13.1-8.4
			c14-12.4,14.5-41.5,3.4-54c-11-12.5-39.9-15.8-54-3.4c-1.1,1-2.4,2.4-3.6,4c0.5-0.9,0.9-1.8,1.4-2.7c7.8-17-3.7-43.7-18.8-50.7
			c-13.4-6.2-36.8,0-47.3,13.4c-3.6-13.2-16.2-25.5-28.6-29.7c-0.3-0.1-0.7-0.2-1-0.3c-2.1-0.6-4.3-1-6.3-1.1v0c-0.2,0-0.4,0-0.6,0
			c0,0-0.1,0-0.1,0c0,0-0.1,0-0.1,0c-0.2,0-0.4,0-0.6,0v0c-2.1,0.1-4.2,0.5-6.3,1.1c-0.3,0.1-0.7,0.2-1,0.3
			c-12.4,4.2-25,16.5-28.6,29.7c-10.5-13.3-33.8-19.5-47.3-13.4c-15.2,7-26.6,33.7-18.8,50.7c0.4,0.9,0.9,1.8,1.4,2.7
			c-1.3-1.6-2.5-3-3.6-4c-14-12.4-42.9-9.1-54,3.4c-11,12.5-10.6,41.6,3.4,54c3.8,3.3,8.4,6.1,13.1,8.4c-0.4,0.6-0.8,1.3-1.1,1.9
			c-5-3.4-9.7-6.2-13.1-7.2c-17.9-5.6-42.9,9.1-47.9,25.1c-5,15.9,7.2,42.3,25,47.9c1.1,0.4,2.2,0.7,3.4,0.9
			c-1.8-0.1-3.5-0.1-4.8,0.1c-18.6,2.2-35.5,25.8-33.6,42.4c1.9,16.6,23.8,35.7,42.4,33.6c0.3,0,0.7-0.1,1-0.2
			c-0.3,0.2-0.7,0.4-1,0.5c-16.1,9.5-21.9,38-13.4,52.4c8.5,14.4,36.3,23,52.4,13.4c3.9-2.3,7.6-5.4,11-8.8c0.2,0.2,0.4,0.4,0.5,0.6
			c-4.5,3.5-8.5,7.1-10.5,9.9c-10.8,15.2-4.6,43.7,9.1,53.3c11.7,8.3,34.7,6.9,47.8-3.4c0.5,17.1,15.8,36,30.4,39
			c16.2,3.3,40.7-11.2,44.8-29.3c4.2,18,28.7,32.5,44.8,29.3c14.6-2.9,29.9-21.9,30.4-39c13.1,10.3,36.1,11.7,47.8,3.4
			c13.6-9.7,19.9-38.1,9.1-53.3c-2-2.8-5.9-6.3-10.5-9.9c0.2-0.2,0.4-0.4,0.5-0.6c3.4,3.4,7.1,6.5,11,8.8
			c16.1,9.5,43.9,0.9,52.4-13.4c8.5-14.4,2.7-42.9-13.4-52.4c-0.3-0.2-0.6-0.4-1-0.5c0.3,0.1,0.7,0.1,1,0.2
			c18.6,2.2,40.5-17,42.4-33.6C617.6,407.4,600.7,383.7,582.1,381.6z M560,312.5c15.1-4.7,36.5,10.7,40,22
			c3.5,11.3-5.2,36.2-20.3,40.9c-3.9,1.2-8.5,1.8-13.1,2c-0.1-1-0.3-1.9-0.5-2.9c2.5-0.3,4.8-0.7,6.9-1.4
			c12.9-4,24.5-24.5,20.7-36.7c-3.8-12.1-25.1-22.3-37.9-18.3c-1.8,0.6-4.3,1.9-7.2,3.7c-0.4-0.7-0.8-1.5-1.2-2.2
			C552.3,316.3,556.9,313.5,560,312.5z M562.1,495.7c5.4-9.2-1.4-20.1-9.2-24.9c0.9-2,1.8-4,2.7-6.1c1.8,0.6,3.3,1.1,4.3,1.7
			c9.3,5.5,13.2,26.2,9.1,33.3c-4.2,7-24.2,13.6-33.6,8.1c-1.2-0.7-2.4-1.6-3.6-2.7c1.5-1.8,2.9-3.7,4.2-5.5
			C543.9,504.1,556.6,504.9,562.1,495.7z M541.2,492c2.7-4.1,5.2-8.4,7.5-12.7c3.2,2.3,5.6,7.5,3.7,10.8
			C550.4,493.3,544.8,493.7,541.2,492z M578.5,341.2c-3.2-10.3-16.3-12.4-25.1-9.6c0,0,0,0,0,0c-0.9-2-1.8-4-2.8-5.9
			c1.8-1.1,3.4-2,4.6-2.3c10.4-3.2,28.4,7.7,30.8,15.5c2.5,7.8-6.1,27.1-16.4,30.4c-1.2,0.4-2.6,0.7-4.1,0.9
			c-0.4-2.3-0.9-4.6-1.4-6.9C572.7,360.2,581.7,351.3,578.5,341.2z M567.8,344.6c1.1,3.7-2.3,8.1-6,9.6c-1.4-4.8-2.9-9.5-4.7-14
			C561,339.2,566.6,340.8,567.8,344.6z M564.7,434.9c9.1,1,21.4-3.5,22.6-14.2c1.3-10.8-9.8-18-19-19c0,0-0.1,0-0.1,0
			c0-0.6,0-1.1,0-1.7c0-1.6-0.1-3.3-0.1-4.9c2.1-0.3,4-0.4,5.2-0.3c10.8,1.3,22.8,18.6,21.8,26.8c-0.9,8.1-16.6,22.3-27.4,21
			c-1.4-0.2-3-0.5-4.6-1C563.7,439.4,564.2,437.1,564.7,434.9z M576.1,419.4c-0.5,3.9-5.7,6.6-9.8,6.3c0.7-4.9,1.2-9.8,1.5-14.8
			C571.9,411.5,576.6,415.4,576.1,419.4z M510.1,250.7c11.8-10.4,37.7-5,45.5,3.8c7.8,8.9,9.9,35.2-1.9,45.6
			c-3.6,3.2-8.3,5.9-13.1,8.1c-0.5-0.8-1-1.5-1.5-2.3c2.9-1.6,5.5-3.3,7.6-5.2c10.1-8.9,12.4-32.4,4-41.9c-8.4-9.6-32-10.2-42.1-1.3
			c-1.8,1.6-4.3,5-7,9.1c-0.6-0.5-1.2-0.9-1.8-1.4C503.3,259.1,507.2,253.2,510.1,250.7z M538.7,269.4c-7.2-8.1-19.9-4.7-26.8,1.4
			c-0.7,0.6-1.4,1.4-2.2,2.3c-1.5-1.3-3-2.6-4.6-3.8c1.9-3,3.7-5.5,5-6.8c8.1-7.2,29-4.5,34.5,1.7c5.4,6.1,5.5,27.2-2.7,34.4
			c-1.5,1.3-3.4,2.5-5.4,3.7c-1.3-1.8-2.6-3.5-3.9-5.3c0.5-0.4,0.9-0.8,1.4-1.2C540.9,289.8,545.8,277.6,538.7,269.4z M528.1,288.7
			c-0.5,0.4-1,0.8-1.6,1.2c-3.2-3.6-6.5-7.1-10-10.4c0.5-0.8,1.1-1.5,1.7-1.9c3.1-2.7,9.3-3.7,12-0.6
			C532.9,279.9,531.2,286,528.1,288.7z M436,234.8c1.4-4.8,2.4-9.7,2.7-14.5c0.2-0.8,0.5-1.4,0.8-2c6.6-14.4,32.4-19.9,43.1-15
			c10.7,4.9,23.4,28.1,16.8,42.4c-2.1,4.5-5.4,9-9,13.1c-0.8-0.5-1.5-1-2.3-1.5c2.1-2.8,4-5.6,5.1-8.2c5.6-12.3-1.8-34.6-13.4-39.9
			c-11.6-5.3-33.4,3.7-39,15.9c-1.1,2.3-2,6.7-2.8,11.7c-0.7-0.2-1.5-0.4-2.2-0.5C435.9,235.8,435.9,235.3,436,234.8z M473.1,223.7
			c-9.8-4.5-20.1,3.8-23.9,12.1c-0.4,1-0.8,2.2-1.2,3.6c-1.9-0.6-3.8-1.1-5.7-1.6c0.5-3.8,1.1-7.1,2-8.8
			c4.5-9.9,24.7-15.9,32.2-12.5c7.5,3.4,16.1,22.6,11.6,32.5c-0.9,1.9-2.2,4-3.8,6c-1.9-1.1-3.8-2.1-5.7-3.1
			c0.4-0.7,0.7-1.4,1.1-2.1C483.4,241.4,483,228.2,473.1,223.7z M471.3,245.6c-0.4,0.8-0.8,1.5-1.2,2.1c-4.3-2-8.7-3.8-13.2-5.4
			c0.2-1.1,0.5-2.2,0.8-3c1.7-3.8,7-7.1,10.7-5.4C472.2,235.7,473,241.8,471.3,245.6z M401.1,185.9c11.8,0.3,32.6,16.2,32.4,31.9
			c0,0.4-0.1,0.8-0.1,1.3c-0.2,4.5-1.3,9.3-2.7,14c-0.2,0.7-0.4,1.4-0.6,2.1c-0.8-0.2-1.7-0.3-2.5-0.4c1-4,1.7-7.9,1.8-11.3
			c0.1-13.2-14.9-30-27.5-30.9v-0.1c-0.2,0-0.3,0-0.5,0c-0.1,0-0.2,0-0.3,0c-0.1,0-0.2,0-0.3,0c-0.2,0-0.3,0-0.5,0v0.1
			c-12.5,1-27.6,17.8-27.5,30.9c0,3.3,0.7,7.3,1.8,11.3c-0.8,0.1-1.7,0.3-2.5,0.4c-0.2-0.7-0.4-1.4-0.6-2.1c-1.4-4.7-2.5-9.5-2.7-14
			c0-0.4-0.1-0.8-0.1-1.3C368.5,202.1,389.3,186.2,401.1,185.9z M401.8,208.5L401.8,208.5c-0.1-0.1-0.2-0.1-0.3-0.1
			c-0.2,0-0.3,0-0.4,0c-0.1,0-0.3,0-0.4,0c-0.1,0-0.2,0-0.3,0v0.1c-10.1,0.9-15.4,12.2-15.3,21.1c0,1.2,0.1,2.5,0.2,3.7
			c-2.1,0.2-4.1,0.5-6.2,0.8c-0.8-3-1.4-5.9-1.4-8.5c-0.1-10.7,15.2-24.5,23.4-25c8.3,0.5,23.6,14.3,23.4,25c0,2.6-0.6,5.5-1.4,8.5
			c-2.1-0.3-4.1-0.6-6.2-0.8c0.1-1.2,0.2-2.4,0.2-3.7C417.2,220.8,411.9,209.5,401.8,208.5z M401.1,232.5c-0.2,0-0.5,0-0.7,0v0
			c-1.9,0-3.7,0-5.6,0.1c-0.3-1-0.5-2.2-0.5-3.5c0-3.9,3-8.9,6.8-9.4c3.8,0.5,6.8,5.4,6.8,9.4c0,1.3-0.2,2.5-0.5,3.5
			c-1.8-0.1-3.7-0.1-5.6-0.1v0C401.6,232.5,401.3,232.5,401.1,232.5z M319.6,203.2c10.7-4.9,36.5,0.6,43.1,15c0.3,0.6,0.5,1.3,0.8,2
			c0.2,4.8,1.3,9.8,2.7,14.5c0.1,0.5,0.1,1,0.2,1.5c-0.7,0.2-1.5,0.4-2.2,0.5c-0.8-5-1.7-9.4-2.8-11.7c-5.6-12.3-27.4-21.3-39-15.9
			c-11.6,5.3-19,27.7-13.4,39.9c1.2,2.6,3,5.4,5.1,8.2c-0.8,0.5-1.5,1-2.3,1.5c-3.6-4.1-7-8.6-9-13.1
			C296.2,231.3,308.9,208.2,319.6,203.2z M329,223.7c-9.8,4.5-10.3,17.7-6.4,26.1c0.3,0.7,0.7,1.4,1.1,2.1c-1.9,1-3.8,2.1-5.7,3.1
			c-1.6-2-2.9-4-3.8-6c-4.5-9.9,4.1-29.1,11.6-32.5c7.4-3.4,27.6,2.6,32.2,12.5c0.8,1.8,1.5,5.1,2,8.8c-1.9,0.5-3.8,1-5.7,1.6
			c-0.4-1.4-0.8-2.6-1.2-3.6C349.1,227.5,338.9,219.2,329,223.7z M345.2,242.4c-4.5,1.6-8.9,3.4-13.2,5.4c-0.4-0.6-0.9-1.4-1.2-2.1
			c-1.7-3.8-0.8-9.9,2.9-11.6c3.7-1.7,9,1.7,10.7,5.4C344.8,240.1,345,241.2,345.2,242.4z M248.5,300.1
			c-11.8-10.4-9.7-36.8-1.9-45.6c7.8-8.8,33.7-14.3,45.5-3.8c2.9,2.6,6.8,8.4,10.3,14.5c-0.6,0.5-1.2,0.9-1.8,1.4
			c-2.6-4-5.1-7.5-7-9.1c-10.1-8.9-33.7-8.3-42.1,1.3c-8.4,9.6-6.1,33,4,41.9c2.1,1.8,4.7,3.5,7.6,5.2c-0.5,0.8-1,1.5-1.5,2.3
			C256.8,306,252.1,303.3,248.5,300.1z M263.5,269.4c-7.2,8.1-2.2,20.3,4.7,26.5c0.5,0.4,0.9,0.8,1.4,1.2c-1.3,1.7-2.7,3.5-3.9,5.3
			c-2.1-1.1-3.9-2.4-5.4-3.7c-8.2-7.2-8.1-28.3-2.7-34.4c5.4-6.2,26.3-8.9,34.5-1.7c1.4,1.2,3.2,3.7,5,6.8c-1.6,1.2-3.1,2.5-4.6,3.8
			c-0.8-0.9-1.5-1.7-2.2-2.3C283.4,264.7,270.7,261.3,263.5,269.4z M285.6,279.4c-3.5,3.3-6.8,6.8-10,10.4c-0.5-0.3-1-0.7-1.6-1.2
			c-3.1-2.7-4.8-8.7-2.1-11.8c2.7-3.1,8.9-2.1,12,0.6C284.4,277.9,285,278.6,285.6,279.4z M222.4,375.4
			c-15.1-4.7-23.8-29.6-20.3-40.9c3.5-11.3,24.9-26.7,40-22c3.1,1,7.8,3.8,12.6,7.1c-0.4,0.7-0.8,1.5-1.2,2.2
			c-2.9-1.8-5.4-3.1-7.2-3.7c-12.9-4-34.1,6.1-37.9,18.3c-3.8,12.2,7.9,32.7,20.7,36.7c2,0.6,4.4,1.1,6.9,1.4
			c-0.1,1-0.3,1.9-0.5,2.9C230.9,377.2,226.4,376.6,222.4,375.4z M240.1,495.7c5.4,9.2,18.2,8.4,26.2,3.9c1.4,1.9,2.8,3.7,4.2,5.5
			c-1.2,1-2.4,1.9-3.6,2.7c-9.4,5.5-29.4-1.1-33.6-8.1c-4.2-7.1-0.3-27.8,9.1-33.3c1-0.6,2.5-1.1,4.3-1.7c0.9,2.1,1.8,4.1,2.7,6.1
			C241.5,475.7,234.7,486.5,240.1,495.7z M253.5,479.2c2.3,4.4,4.8,8.6,7.5,12.7c-3.6,1.7-9.3,1.3-11.2-2
			C247.8,486.7,250.2,481.6,253.5,479.2z M234,401.6c0,0-0.1,0-0.1,0c-9.2,1.1-20.2,8.3-19,19c1.2,10.7,13.5,15.2,22.6,14.2
			c0.5,2.3,1,4.5,1.5,6.7c-1.6,0.5-3.1,0.8-4.6,1c-10.8,1.3-26.4-12.9-27.4-21c-1-8.2,11-25.5,21.8-26.8c1.2-0.1,3.1,0,5.2,0.3
			c-0.1,1.6-0.1,3.2-0.1,4.9C233.9,400.5,234,401.1,234,401.6z M234.3,410.9c0.3,5,0.8,9.9,1.5,14.8c-4,0.3-9.3-2.4-9.8-6.3
			C225.6,415.4,230.2,411.5,234.3,410.9z M223.7,341.2c-3.1,10.1,5.8,19,14.4,22c-0.5,2.3-1,4.6-1.4,6.9c-1.5-0.2-2.9-0.5-4.1-0.9
			c-10.4-3.3-18.9-22.5-16.4-30.4c2.4-7.8,20.4-18.8,30.8-15.5c1.2,0.4,2.8,1.2,4.6,2.3c-1,2-1.9,3.9-2.8,5.9c0,0,0,0,0,0
			C239.9,328.8,226.9,330.9,223.7,341.2z M245.1,340.2c-1.8,4.6-3.3,9.3-4.7,14c-3.7-1.5-7.2-6-6-9.6
			C235.6,340.8,241.2,339.2,245.1,340.2z M227.6,452.4c-15.7,1.8-33.8-17.4-35.2-29.1c-1.4-11.7,11.9-34.6,27.6-36.4
			c3.2-0.4,8.6,0.3,14.4,1.4c-0.1,0.8-0.1,1.7-0.2,2.5c-3.3-0.4-6.2-0.6-8.1-0.4c-13.4,1.6-28.7,19.5-27.2,32.2
			c1.5,12.7,20.5,26.6,33.9,25.1c2.3-0.3,4.8-0.9,7.4-1.7c0.3,0.9,0.5,1.8,0.8,2.7C236.5,450.4,231.9,451.9,227.6,452.4z
			 M264.7,519.5c-13.6,8-37.9-2.1-44-12.3c-6-10.2-3.2-36.4,10.4-44.4c2.7-1.6,7.6-3.1,13-4.4c0.3,0.8,0.6,1.6,0.9,2.4
			c-3,0.9-5.5,1.8-7,2.7c-11.6,6.9-18.3,29.5-11.8,40.4c6.5,11,29.5,16,41.1,9.1c1.9-1.1,3.9-2.7,5.9-4.4c0.6,0.7,1.2,1.5,1.9,2.2
			C271.9,514.2,268.3,517.3,264.7,519.5z M326.7,567.1c-9.1,12.9-35.5,13.5-45.2,6.7c-9.6-6.8-17.7-32-8.6-44.8
			c1.8-2.6,5.8-6,10.3-9.5c0.6,0.6,1.2,1.2,1.8,1.7c-2.4,2.1-4.4,4.1-5.5,5.5c-7.8,11-4.7,34.4,5.7,41.7c10.4,7.4,33.5,2.6,41.3-8.4
			c1.5-2.1,2.8-4.6,4-7.4c0.8,0.4,1.6,0.7,2.4,1.1c-2.5,4.6-4.7,9.1-5.9,12.7C326.9,566.7,326.8,566.9,326.7,567.1z M294.6,555.4
			c8.8,6.3,20.5,0.1,25.8-7.5c0.1-0.1,0.2-0.2,0.2-0.3c2,1.1,4,2.1,6,3.1c-0.8,1.8-1.7,3.5-2.7,4.8c-6.3,8.9-27.3,11-33.9,6.3
			c-6.7-4.8-11.6-25.3-5.3-34.1c0.7-1,1.9-2.2,3.5-3.5c1.6,1.5,3.3,2.9,4.9,4.3c0,0,0,0,0,0C287.8,536.1,285.7,549.1,294.6,555.4z
			 M300.4,534.4c4,3,8.1,5.8,12.3,8.5c0,0,0,0,0,0c-2.4,3.4-8.2,5.7-11.5,3.3C297.8,543.9,298.1,537.8,300.4,534.4z M396,583.9
			c-3.1,15.5-27,26.8-38.5,24.4c-11.6-2.3-29.2-22-26.1-37.5c0.1-0.7,0.4-1.4,0.6-2.3c1.2-3.5,3.5-8,6.1-12.7c0.1,0,0.1,0,0.2,0.1
			c0.7,0.3,1.3,0.5,2,0.8c-1.9,3.8-3.3,7.2-3.7,9.3c-2.7,13.2,9.7,33.3,22.2,35.8c12.5,2.5,31.7-11.2,34.3-24.5
			c0.5-2.7,0.7-5.8,0.7-9.2c0.9,0,1.8,0,2.7,0.1C396.9,573.8,396.9,579.2,396,583.9z M361.9,586.3c10.6,2.1,18.7-8.3,20.5-17.3
			c0.1-0.5,0.2-1,0.3-1.5c2.2,0.3,4.4,0.4,6.6,0.6c0,2.3-0.1,4.5-0.5,6.4c-2.1,10.7-20.4,21.1-28.5,19.5c-8.1-1.6-20.9-18.4-18.7-29
			c0.3-1.6,1.3-3.9,2.7-6.6c1.9,0.7,3.9,1.4,5.8,2c-0.2,0.7-0.4,1.3-0.5,1.9C347.8,571.4,351.3,584.2,361.9,586.3z M358.6,564.6
			c0.1-0.4,0.3-1,0.5-1.5c4.7,1.2,9.5,2.2,14.4,3.1c0,0.5-0.1,0.9-0.2,1.4c-0.8,4-5.2,8.5-9.2,7.7
			C360.1,574.5,357.8,568.6,358.6,564.6z M444.7,608.4c-11.6,2.3-35.4-9-38.5-24.4c-0.9-4.7-0.9-10.2-0.4-15.5c0.9,0,1.8,0,2.7-0.1
			c0,3.3,0.1,6.5,0.7,9.2c2.7,13.2,21.8,27,34.3,24.5c12.5-2.5,24.8-22.6,22.2-35.8c-0.4-2.1-1.9-5.5-3.7-9.3c0.7-0.3,1.3-0.5,2-0.8
			c0.1,0,0.1,0,0.2-0.1c2.6,4.6,4.9,9.2,6.1,12.7c0.3,0.8,0.5,1.6,0.6,2.3C473.9,586.4,456.3,606.1,444.7,608.4z M440.3,586.3
			c10.6-2.1,14.1-14.9,12.2-23.9c-0.1-0.6-0.3-1.2-0.5-1.9c2-0.6,3.9-1.3,5.8-2c1.4,2.6,2.4,5,2.7,6.6c2.2,10.7-10.7,27.4-18.7,29
			c-8,1.6-26.3-8.9-28.5-19.5c-0.4-1.9-0.5-4.1-0.5-6.4c2.2-0.2,4.4-0.4,6.6-0.6c0.1,0.5,0.2,1,0.3,1.5
			C421.6,578,429.7,588.4,440.3,586.3z M428.7,566.2c4.9-0.8,9.7-1.8,14.4-3.1c0.2,0.5,0.4,1.1,0.5,1.5c0.8,4-1.5,9.9-5.5,10.7
			c-4,0.8-8.3-3.7-9.2-7.7C428.8,567.1,428.7,566.6,428.7,566.2z M529.2,529c9.2,12.9,1,38-8.6,44.8c-9.6,6.8-36,6.2-45.2-6.7
			c-0.1-0.2-0.3-0.4-0.4-0.6c-1.2-3.6-3.4-8.1-5.9-12.7c0.8-0.4,1.6-0.7,2.4-1.1c1.2,2.8,2.6,5.3,4,7.4c7.8,11,30.9,15.8,41.3,8.4
			c10.4-7.4,13.5-30.7,5.7-41.7c-1-1.5-3-3.4-5.5-5.5c0.6-0.6,1.2-1.2,1.8-1.7C523.4,522.9,527.4,526.4,529.2,529z M507.6,555.4
			c8.8-6.3,6.8-19.3,1.4-26.8c0,0,0,0,0,0c1.7-1.4,3.3-2.9,4.9-4.3c1.5,1.3,2.8,2.5,3.5,3.5c6.3,8.8,1.4,29.4-5.3,34.1
			c-6.7,4.7-27.7,2.6-33.9-6.3c-1-1.4-1.8-3-2.7-4.8c2-1,4-2.1,6-3.1c0.1,0.1,0.1,0.2,0.2,0.3C487.1,555.5,498.8,561.7,507.6,555.4z
			 M489.5,542.9c4.2-2.7,8.3-5.5,12.3-8.5c2.3,3.4,2.6,9.5-0.7,11.8C497.8,548.6,491.9,546.3,489.5,542.9
			C489.5,542.9,489.5,542.9,489.5,542.9z M522.6,495.4c-1,1.3-2,2.5-3,3.8c-0.4,0.5-0.8,1-1.2,1.4c-1.3,1.5-2.5,3-3.8,4.4
			c-0.8,0.9-1.7,1.8-2.5,2.7c-1.3,1.4-2.6,2.7-4,4c-0.4,0.4-0.9,0.9-1.4,1.3c-1.1,1.1-2.3,2.2-3.5,3.2c-1.3,1.1-2.6,2.3-3.9,3.4
			c-7.3,6.1-15.1,11.4-23.4,16.1c-1.5,0.8-3,1.6-4.5,2.4c-1.4,0.7-2.9,1.5-4.3,2.2c-0.5,0.3-1.1,0.5-1.7,0.8c-1,0.5-2,0.9-3,1.4
			c-0.8,0.3-1.6,0.7-2.3,1c-0.9,0.4-1.9,0.8-2.8,1.1c-0.5,0.2-1.1,0.4-1.6,0.6c-1.5,0.6-3,1.1-4.6,1.7c-1.6,0.5-3.1,1.1-4.7,1.6
			c-8.6,2.7-17.6,4.6-26.8,5.8c-1.7,0.2-3.4,0.4-5,0.6c-1.6,0.2-3.3,0.3-4.9,0.4c-0.6,0-1.2,0.1-1.8,0.1c-2,0.1-3.9,0.1-5.9,0.2
			c-0.3,0-0.5,0-0.8,0c-0.3,0-0.5,0-0.8,0c-2,0-3.9-0.1-5.9-0.2c-0.6,0-1.2-0.1-1.8-0.1c-1.7-0.1-3.3-0.2-4.9-0.4
			c-1.7-0.2-3.4-0.3-5-0.6c-9.2-1.1-18.2-3.1-26.8-5.8c-1.6-0.5-3.1-1-4.7-1.6c-1.5-0.5-3-1.1-4.6-1.7c-0.5-0.2-1.1-0.4-1.6-0.6
			c-0.9-0.4-1.9-0.7-2.8-1.1c-0.8-0.3-1.6-0.7-2.3-1c-1-0.4-2-0.9-3-1.4c-0.6-0.3-1.1-0.5-1.7-0.8c-1.5-0.7-2.9-1.5-4.3-2.2
			c-1.5-0.8-3-1.6-4.5-2.4c-8.3-4.7-16.1-10-23.4-16.1c-1.3-1.1-2.6-2.2-3.9-3.4c-1.2-1.1-2.4-2.1-3.5-3.2c-0.5-0.4-0.9-0.9-1.4-1.3
			c-1.3-1.3-2.7-2.6-4-4c-0.8-0.9-1.7-1.8-2.5-2.7c-1.3-1.4-2.6-2.9-3.8-4.4c-0.4-0.5-0.8-1-1.2-1.4c-1-1.2-2-2.5-3-3.8
			c-1.1-1.4-2.1-2.8-3.1-4.2c-5.6-7.8-10.5-16-14.7-24.8c-0.7-1.6-1.4-3.1-2.1-4.7c-0.6-1.4-1.2-2.9-1.8-4.4
			c-0.2-0.6-0.5-1.2-0.7-1.7c-0.7-1.7-1.3-3.5-1.9-5.3c-0.2-0.6-0.4-1.3-0.7-2c-0.6-1.8-1.2-3.7-1.7-5.6c-0.2-0.6-0.3-1.2-0.5-1.8
			c-0.4-1.6-0.8-3.1-1.2-4.7c-0.4-1.7-0.8-3.3-1.1-5c-1.8-9.2-2.8-18.7-3-28.4c0-0.9-0.1-1.9-0.1-2.8c0-0.8,0-1.5,0.1-2.3
			c0-1.6,0-3.2,0.1-4.8c0-0.6,0.1-1.2,0.1-1.8c0.1-1.9,0.2-3.7,0.4-5.6c0.1-0.9,0.2-1.8,0.3-2.8c0.2-1.9,0.5-3.9,0.8-5.8
			c0.1-0.6,0.2-1.3,0.3-1.9c0.3-1.6,0.5-3.2,0.9-4.8c0.3-1.7,0.7-3.4,1.1-5.1c2.2-9.4,5.3-18.6,9.1-27.2c0.7-1.6,1.4-3.1,2.1-4.6
			c0.7-1.4,1.4-2.8,2.1-4.2c0.3-0.5,0.6-1.1,0.9-1.6c0.9-1.6,1.8-3.3,2.7-4.9c0.9-1.5,1.8-3,2.8-4.5c1.1-1.7,2.2-3.3,3.3-5
			c0.3-0.5,0.7-1,1-1.5c1-1.4,1.9-2.7,2.9-4c1-1.4,2.1-2.7,3.1-4c5.7-7,11.9-13.6,18.7-19.5c1.2-1.1,2.5-2.1,3.7-3.2
			c1.3-1,2.5-2,3.8-3c0.4-0.3,0.9-0.7,1.4-1c1.5-1.1,3-2.2,4.5-3.3c1-0.7,2-1.4,3-2.1c1.6-1.1,3.3-2.2,5-3.2c0.5-0.3,1-0.6,1.5-0.9
			c1.4-0.9,2.9-1.7,4.4-2.5c1.5-0.8,3-1.6,4.5-2.4c7.9-4,16.1-7.4,24.7-10c1.5-0.5,3.1-0.9,4.7-1.3c1.6-0.4,3.2-0.9,4.7-1.2
			c0.5-0.1,1.1-0.2,1.6-0.4c1.3-0.3,2.6-0.6,3.9-0.9c0.5-0.1,1.1-0.2,1.6-0.3c1.4-0.3,2.8-0.5,4.2-0.7c0.5-0.1,1.1-0.2,1.6-0.3
			c1.7-0.3,3.4-0.4,5.1-0.6c1.6-0.2,3.3-0.4,4.9-0.5c4.1-0.4,8.2-0.5,12.4-0.6c4.2,0,8.3,0.2,12.4,0.6c1.7,0.1,3.3,0.3,4.9,0.5
			c1.7,0.2,3.4,0.4,5.1,0.6c0.5,0.1,1.1,0.2,1.6,0.3c1.4,0.2,2.8,0.5,4.2,0.7c0.5,0.1,1.1,0.2,1.6,0.3c1.3,0.3,2.6,0.6,3.9,0.9
			c0.5,0.1,1.1,0.2,1.6,0.4c1.6,0.4,3.2,0.8,4.7,1.2c1.6,0.4,3.1,0.9,4.7,1.3c8.6,2.6,16.8,6,24.7,10c1.5,0.8,3,1.6,4.5,2.4
			c1.5,0.8,2.9,1.7,4.4,2.5c0.5,0.3,1,0.6,1.5,0.9c1.7,1,3.4,2.1,5,3.2c1,0.7,2,1.4,3,2.1c1.5,1.1,3,2.2,4.5,3.3
			c0.5,0.3,0.9,0.7,1.4,1c1.3,1,2.6,2,3.8,3c1.3,1,2.5,2.1,3.7,3.2c6.8,5.9,13,12.5,18.7,19.5c1.1,1.3,2.1,2.7,3.1,4
			c1,1.3,2,2.7,2.9,4c0.3,0.5,0.7,1,1,1.5c1.1,1.6,2.2,3.3,3.3,5c0.9,1.5,1.9,3,2.8,4.5c0.9,1.6,1.8,3.2,2.7,4.9
			c0.3,0.6,0.6,1.1,0.9,1.6c0.7,1.4,1.4,2.8,2.1,4.2c0.7,1.5,1.4,3.1,2.1,4.6c3.8,8.7,6.9,17.8,9.1,27.2c0.4,1.7,0.7,3.4,1.1,5.1
			c0.3,1.6,0.6,3.2,0.9,4.8c0.1,0.6,0.2,1.3,0.3,1.9c0.3,1.9,0.5,3.9,0.8,5.8c0.1,0.9,0.2,1.8,0.3,2.8c0.2,1.8,0.3,3.7,0.4,5.6
			c0,0.6,0.1,1.2,0.1,1.8c0.1,1.6,0.1,3.2,0.1,4.8c0,0.8,0.1,1.5,0.1,2.3c0,0.9,0,1.9-0.1,2.8c-0.1,9.7-1.1,19.2-3,28.4
			c-0.3,1.7-0.7,3.4-1.1,5c-0.4,1.6-0.8,3.1-1.2,4.7c-0.2,0.6-0.3,1.2-0.5,1.8c-0.5,1.9-1.1,3.7-1.7,5.6c-0.2,0.7-0.4,1.3-0.7,2
			c-0.6,1.8-1.2,3.5-1.9,5.3c-0.2,0.6-0.4,1.2-0.7,1.7c-0.6,1.5-1.2,2.9-1.8,4.4c-0.7,1.6-1.4,3.2-2.1,4.7c-4.1,8.7-9,17-14.7,24.8
			C524.7,492.7,523.7,494.1,522.6,495.4z M581.5,507.2c-6,10.2-30.4,20.3-44,12.3c-3.7-2.2-7.2-5.3-10.5-8.7
			c0.6-0.7,1.3-1.4,1.9-2.2c2,1.7,4,3.3,5.9,4.4c11.6,6.9,34.7,1.8,41.1-9.1c6.5-11-0.2-33.6-11.8-40.4c-1.5-0.9-4-1.8-7-2.7
			c0.3-0.8,0.6-1.6,0.9-2.4c5.4,1.3,10.3,2.8,13,4.4C584.7,470.8,587.5,497.1,581.5,507.2z M609.7,423.3
			c-1.4,11.7-19.5,30.9-35.2,29.1c-4.3-0.5-8.9-1.9-13.3-3.7c0.3-0.9,0.5-1.8,0.8-2.7c2.6,0.8,5.1,1.4,7.4,1.7
			c13.4,1.6,32.4-12.4,33.9-25.1c1.5-12.7-13.8-30.6-27.2-32.2c-1.8-0.2-4.7,0-8.1,0.4c0-0.8-0.1-1.7-0.2-2.5
			c5.7-1.1,11.1-1.8,14.4-1.4C597.8,388.7,611.1,411.5,609.7,423.3z"/>
	</g>
</g>
</svg>
